<svg width="421" height="454" viewBox="0 0 421 454" fill="none" xmlns="http://www.w3.org/2000/svg">
<path d="M264.051 144.095V155.084L320.456 121.966V110.977L264.051 144.095Z" fill="url(#paint0_linear)"/>
<path d="M264.082 144.096V155.085L207.695 122.213V111.259L264.082 144.096Z" fill="url(#paint1_linear)"/>
<path d="M207.696 111.258L264.083 144.095L320.457 110.977L264.01 78.1016L207.696 111.258Z" fill="url(#paint2_linear)"/>
<path style="mix-blend-mode:screen" d="M264.083 143.198L208.461 110.807L207.694 111.258L264.082 144.095L320.456 110.976L319.689 110.529L264.083 143.198Z" fill="url(#paint3_radial)"/>
<path d="M264.051 128.642V139.632L320.456 106.513V95.5225L264.051 128.642Z" fill="url(#paint4_linear)"/>
<path d="M264.082 128.643V139.632L207.695 106.761V95.8057L264.082 128.643Z" fill="url(#paint5_linear)"/>
<path d="M207.696 95.8058L264.083 128.643L320.457 95.524L264.01 62.6514L207.696 95.8058Z" fill="url(#paint6_linear)"/>
<path style="mix-blend-mode:screen" d="M264.083 127.745L208.461 95.3546L207.694 95.8055L264.082 128.642L320.456 95.5237L319.689 95.0771L264.083 127.745Z" fill="url(#paint7_radial)"/>
<path d="M264.051 113.19V124.179L320.456 91.0604V80.0713L264.051 113.19Z" fill="url(#paint8_linear)"/>
<path d="M264.082 113.19V124.179L207.695 91.307V80.3535L264.082 113.19Z" fill="url(#paint9_linear)"/>
<path d="M207.696 80.353L264.083 113.19L320.457 80.0713L264.01 47.1992L207.696 80.353Z" fill="url(#paint10_linear)"/>
<path style="mix-blend-mode:screen" d="M264.083 112.293L208.461 79.9024L207.694 80.3533L264.082 113.19L320.456 80.0716L319.689 79.625L264.083 112.293Z" fill="url(#paint11_radial)"/>
<path d="M264.051 97.7369V108.727L320.456 75.6079V64.6182L264.051 97.7369Z" fill="url(#paint12_linear)"/>
<path d="M264.082 97.7374V108.727L207.695 75.8551V64.9004L264.082 97.7374Z" fill="url(#paint13_linear)"/>
<path d="M207.696 64.9L264.083 97.737L320.457 64.6183L264.01 31.7432L207.696 64.9Z" fill="url(#paint14_linear)"/>
<path d="M216.574 64.8789L264.021 36.9453L311.572 64.6347L264.075 92.5387L216.574 64.8789Z" fill="#45108A"/>
<path d="M264.02 39.1889L309.652 65.7636L311.57 64.6366L264.018 36.9473L216.574 64.879L218.49 65.9943L264.02 39.1889Z" fill="url(#paint15_linear)"/>
<path d="M264.019 39.1889L309.652 65.7636L311.569 64.6366L264.018 36.9473L264.019 39.1889Z" fill="#330A66"/>
<path style="mix-blend-mode:screen" d="M264.083 96.8393L208.461 64.4489L207.694 64.8999L264.082 97.7368L320.456 64.6175L319.689 64.1709L264.083 96.8393Z" fill="url(#paint16_radial)"/>
<path d="M293.162 67.5222C287.303 64.2003 283.376 59.909 281.922 55.2517L281.861 55.2142C273.794 54.3751 266.365 52.1082 260.607 48.7255L260.387 48.5957L257.235 50.7777C246.158 58.4462 244.312 66.1375 245.793 75.948L246.017 76.0784C263.01 76.931 276.33 75.8661 289.613 69.4698L293.392 67.6495L293.162 67.5222Z" fill="#43E8E1"/>
<path style="mix-blend-mode:color-dodge" d="M281.922 63.6638L281.86 63.6263C273.794 62.7872 266.364 60.5203 260.606 57.1376L260.387 57.0078L257.236 59.1898C249.902 64.2654 246.63 69.3558 245.675 75.0608C245.714 75.3567 245.745 75.6482 245.79 75.9491L246.014 76.0795C261.669 76.8644 274.206 76.0124 286.468 70.874C284.403 68.8649 282.844 66.3936 281.922 63.6638Z" fill="url(#paint17_radial)"/>
<path style="mix-blend-mode:screen" d="M245.272 0V76.0147L245.784 75.9249V75.947L246.008 76.0775C263.001 76.9301 276.321 75.8652 289.605 69.4689L293.383 67.6486V0H245.272Z" fill="url(#paint18_linear)"/>
<path d="M299.952 281.711V339.06L356.358 305.941V248.592L299.952 281.711Z" fill="url(#paint19_linear)"/>
<path d="M299.983 281.711V339.059L243.596 306.187V248.877L299.983 281.711Z" fill="#330A66"/>
<path d="M243.596 248.874L299.983 281.711L356.357 248.593L299.906 215.721L243.596 248.874Z" fill="#45108A"/>
<path style="mix-blend-mode:screen" d="M299.983 280.814L244.363 248.424L243.597 248.874L299.983 281.711L356.357 248.592L355.591 248.146L299.983 280.814Z" fill="url(#paint20_radial)"/>
<path d="M232.946 319.711V377.06L289.352 343.941V286.592L232.946 319.711Z" fill="url(#paint21_linear)"/>
<path d="M232.978 319.71V377.059L176.591 344.188V286.874L232.978 319.71Z" fill="#330A66"/>
<path d="M176.59 286.874L232.977 319.71L289.351 286.592L232.904 253.72L176.59 286.874Z" fill="#45108A"/>
<path style="mix-blend-mode:screen" d="M232.977 318.813L177.356 286.422L176.59 286.874L232.977 319.711L289.351 286.592L288.585 286.146L232.977 318.813Z" fill="url(#paint22_radial)"/>
<path style="mix-blend-mode:screen" d="M263.825 98.0228L207.377 65.1514L172.544 86.1405V143.454L228.9 176.308V176.326L228.915 176.317L228.931 176.326V176.308L263.825 155.371V98.0228Z" fill="url(#paint23_linear)"/>
<path d="M363.768 320.35V377.699L420.173 344.581V287.231L363.768 320.35Z" fill="url(#paint24_linear)"/>
<path d="M363.8 320.35V377.699L307.411 344.825V287.511L363.8 320.35Z" fill="#330A66"/>
<path d="M307.411 287.513L363.798 320.35L420.173 287.23L363.725 254.358L307.411 287.513Z" fill="#45108A"/>
<path d="M298.357 358.348V415.697L354.763 382.579V325.229L298.357 358.348Z" fill="url(#paint25_linear)"/>
<path d="M298.388 358.349V415.698L242.001 382.826V325.512L298.388 358.349Z" fill="#330A66"/>
<path d="M242.001 325.512L298.388 358.349L354.762 325.23L298.314 292.358L242.001 325.512Z" fill="#45108A"/>
<path style="mix-blend-mode:screen" d="M74.6547 273.65L50.2041 288.175L106.576 321.003L106.56 321.012V378.361L131.102 363.871V306.522L74.6547 273.65Z" fill="url(#paint26_linear)"/>
<path d="M82.3838 335.468V392.818L106.928 378.328V320.979L82.3838 335.468Z" fill="url(#paint27_linear)"/>
<path d="M82.4153 335.468V392.817L26.0283 359.945V302.631L82.4153 335.468Z" fill="url(#paint28_linear)"/>
<path d="M30.5137 357.368V310.436L77.9292 338.048V385.009L30.5137 357.368Z" fill="#330A66"/>
<path d="M32.134 356.495V311.379L30.5137 310.436V357.368L77.9292 385.009V383.192L32.134 356.495Z" fill="url(#paint29_linear)"/>
<path d="M32.134 356.494L30.5137 357.366L77.9292 385.008V383.191L32.134 356.494Z" fill="#45108A"/>
<path d="M26.0273 302.631L82.4143 335.468L106.925 320.978L50.4779 288.106L26.0273 302.631Z" fill="url(#paint30_linear)"/>
<path style="mix-blend-mode:screen" d="M82.4149 334.573L26.7907 302.18L26.0273 302.633L82.4149 335.47L106.926 320.978L106.161 320.533L82.4149 334.573Z" fill="url(#paint31_radial)"/>
<path d="M56.8448 350.787V363.308L51.2186 360.06V347.536C48.977 345.028 47.4219 341.521 47.4219 338.489C47.4219 334.3 50.3814 332.613 54.0317 334.72C57.6821 336.828 60.6416 341.931 60.6416 346.121C60.6422 349.157 59.0871 350.868 56.8448 350.787Z" fill="#43E8E1"/>
<path style="mix-blend-mode:color-dodge" d="M56.8448 350.787V363.308L51.2186 360.06V347.536C48.977 345.028 47.4219 341.521 47.4219 338.489C47.4219 334.3 50.3814 332.613 54.0317 334.72C57.6821 336.828 60.6416 341.931 60.6416 346.121C60.6422 349.157 59.0871 350.868 56.8448 350.787Z" fill="url(#paint32_radial)"/>
<path style="mix-blend-mode:screen" d="M54.0328 334.723C51.5205 333.273 49.3342 333.62 48.2171 335.344L0 361.381V393.308L56.8459 363.308V350.787C59.0875 350.868 60.6426 349.157 60.6426 346.124C60.6426 341.934 57.6831 336.832 54.0328 334.723Z" fill="url(#paint33_linear)"/>
<path d="M169.13 358.928V416.277L225.535 383.159V325.81L169.13 358.928Z" fill="url(#paint34_linear)"/>
<path d="M169.161 358.929V416.278L112.773 383.406V326.092L169.161 358.929Z" fill="#FFC100"/>
<path style="mix-blend-mode:lighten" opacity="0.2" d="M129.64 365.214V335.916L112.776 326.095V375.118L129.64 365.214Z" fill="url(#paint35_radial)"/>
<path d="M112.773 326.092L169.16 358.929L225.535 325.812L169.087 292.94L112.773 326.092Z" fill="#45108A"/>
<path style="mix-blend-mode:screen" d="M169.161 358.033L113.54 325.645L112.774 326.096L169.162 358.933L225.535 325.814L224.769 325.367L169.161 358.033Z" fill="url(#paint36_radial)"/>
<path d="M105.313 256.097V313.446L161.719 280.327V222.978L105.313 256.097Z" fill="url(#paint37_linear)"/>
<path d="M105.345 256.097V313.446L48.958 280.574V223.26L105.345 256.097Z" fill="#330A66"/>
<path d="M48.958 223.261L105.345 256.098L161.719 222.979L105.271 190.107L48.958 223.261Z" fill="#45108A"/>
<path style="mix-blend-mode:screen" d="M105.345 255.199L49.7248 222.809L48.959 223.261L105.345 256.098L161.719 222.979L160.953 222.532L105.345 255.199Z" fill="url(#paint38_radial)"/>
<path style="mix-blend-mode:lighten" opacity="0.2" d="M81.271 283.156L71.7361 277.65C67.9375 275.458 64.4994 275.232 62.0007 276.634V276.626L57.085 279.565C59.5733 278.24 62.956 278.485 66.6906 280.641L76.2255 286.146C82.1833 289.586 87.2442 296.839 89.188 304.023L95.0985 307.468V307.001C95.0966 298.244 88.9063 287.566 81.271 283.156Z" fill="url(#paint39_radial)"/>
<path d="M232.946 396.347V453.696L289.352 420.577V363.229L232.946 396.347Z" fill="url(#paint40_linear)"/>
<path d="M232.978 396.348V453.697L176.591 420.825V363.511L232.978 396.348Z" fill="#330A66"/>
<path d="M176.59 363.511L232.977 396.348L289.351 363.229L232.904 330.357L176.59 363.511Z" fill="#45108A"/>
<path style="mix-blend-mode:screen" d="M232.977 395.451L177.356 363.06L176.59 363.512L232.977 396.349L289.351 363.23L288.585 362.783L232.977 395.451Z" fill="url(#paint41_radial)"/>
<path d="M169.13 293.516V350.865L225.535 317.746V260.396L169.13 293.516Z" fill="url(#paint42_linear)"/>
<path d="M169.161 293.515V350.867L112.773 317.993V260.679L169.161 293.515Z" fill="#330A66"/>
<path d="M112.773 260.679L169.16 293.516L225.534 260.397L169.087 227.525L112.773 260.679Z" fill="#45108A"/>
<path style="mix-blend-mode:screen" d="M169.161 292.619L113.54 260.229L112.774 260.68L169.161 293.517L225.536 260.398L224.77 259.951L169.161 292.619Z" fill="url(#paint43_radial)"/>
<path d="M232.946 377.295V388.284L289.352 355.166V344.176L232.946 377.295Z" fill="url(#paint44_linear)"/>
<path d="M232.978 377.294V388.284L176.591 355.412V344.457L232.978 377.294Z" fill="#330A66"/>
<path d="M176.59 344.457L232.977 377.294L289.351 344.176L232.904 311.304L176.59 344.457Z" fill="#45108A"/>
<path d="M181.991 340.008L232.977 369.699L283.955 339.751L232.912 310.027L181.991 340.008ZM232.979 371.314C232.846 371.314 232.716 371.278 232.602 371.21L180.134 340.656C180.022 340.59 179.928 340.496 179.863 340.383C179.798 340.269 179.764 340.141 179.764 340.01C179.764 339.88 179.798 339.751 179.863 339.638C179.928 339.525 180.022 339.43 180.134 339.364L232.533 308.514C232.647 308.447 232.778 308.411 232.911 308.411C233.044 308.411 233.175 308.447 233.289 308.514L285.809 339.104C285.922 339.169 286.016 339.264 286.081 339.377C286.147 339.49 286.181 339.619 286.181 339.749C286.181 339.88 286.147 340.009 286.081 340.122C286.016 340.235 285.922 340.33 285.809 340.395L233.356 371.21C233.241 371.278 233.11 371.314 232.976 371.314L232.979 371.314Z" fill="#43E8E1"/>
<path d="M181.991 333.466L232.978 363.157L283.955 333.208L232.912 303.485L181.991 333.466ZM232.979 364.771C232.846 364.772 232.716 364.736 232.602 364.668L180.133 334.115C180.02 334.049 179.927 333.954 179.862 333.841C179.797 333.728 179.763 333.599 179.763 333.469C179.763 333.338 179.797 333.21 179.862 333.096C179.927 332.983 180.02 332.889 180.133 332.823L232.528 301.973C232.643 301.906 232.773 301.87 232.906 301.87C233.039 301.87 233.17 301.906 233.285 301.973L285.81 332.559C285.923 332.625 286.016 332.72 286.082 332.833C286.147 332.946 286.181 333.075 286.181 333.205C286.181 333.336 286.147 333.465 286.082 333.578C286.016 333.691 285.923 333.786 285.81 333.851L233.357 364.667C233.242 364.735 233.11 364.771 232.977 364.771H232.979Z" fill="#43E8E1"/>
<path d="M181.991 326.922L232.977 356.613L283.952 326.664L232.909 296.94L181.991 326.922ZM232.979 358.228C232.846 358.228 232.716 358.192 232.602 358.125L180.134 327.571C180.022 327.505 179.928 327.41 179.863 327.297C179.798 327.184 179.764 327.055 179.764 326.925C179.764 326.794 179.798 326.666 179.863 326.552C179.928 326.439 180.022 326.345 180.134 326.279L232.533 295.429C232.647 295.362 232.778 295.326 232.911 295.326C233.044 295.326 233.175 295.362 233.289 295.429L285.814 326.016C285.927 326.081 286.021 326.176 286.086 326.289C286.151 326.402 286.186 326.531 286.186 326.661C286.186 326.792 286.151 326.921 286.086 327.034C286.021 327.147 285.927 327.242 285.814 327.307L233.356 358.124C233.241 358.192 233.11 358.228 232.976 358.228H232.979Z" fill="#43E8E1"/>
<path d="M181.991 320.38L232.978 350.071L283.955 320.123L232.912 290.399L181.991 320.38ZM232.979 351.686C232.846 351.686 232.716 351.65 232.602 351.582L180.133 321.029C180.02 320.963 179.927 320.868 179.862 320.755C179.797 320.642 179.763 320.513 179.763 320.383C179.763 320.252 179.797 320.124 179.862 320.011C179.927 319.897 180.02 319.803 180.133 319.737L232.531 288.887C232.646 288.82 232.776 288.784 232.909 288.784C233.042 288.784 233.173 288.82 233.288 288.887L285.813 319.474C285.926 319.539 286.02 319.634 286.085 319.747C286.15 319.86 286.184 319.989 286.184 320.119C286.184 320.25 286.15 320.379 286.085 320.492C286.02 320.605 285.926 320.7 285.813 320.765L233.357 351.581C233.242 351.649 233.11 351.685 232.977 351.686H232.979Z" fill="#43E8E1"/>
<g opacity="0.5">
<path opacity="0.5" d="M181.992 313.837L232.979 343.528L283.956 313.58L232.913 283.856L181.992 313.837ZM232.98 345.143C232.847 345.143 232.717 345.107 232.603 345.039L180.136 314.485C180.023 314.419 179.93 314.325 179.865 314.212C179.8 314.098 179.766 313.97 179.766 313.839C179.766 313.709 179.8 313.58 179.865 313.467C179.93 313.354 180.023 313.259 180.136 313.193L232.534 282.343C232.649 282.276 232.779 282.241 232.912 282.241C233.045 282.241 233.176 282.276 233.291 282.343L285.811 312.933C285.924 312.999 286.018 313.093 286.083 313.207C286.148 313.32 286.182 313.448 286.182 313.579C286.182 313.71 286.148 313.838 286.083 313.952C286.018 314.065 285.924 314.159 285.811 314.225L233.358 345.038C233.243 345.107 233.111 345.143 232.978 345.143L232.98 345.143Z" fill="#43E8E1"/>
</g>
<path d="M232.946 330.935V340.429L289.352 307.31V297.816L232.946 330.935Z" fill="url(#paint45_linear)"/>
<path d="M232.978 330.935V340.429L176.591 307.557V298.098L232.978 330.935Z" fill="#330A66"/>
<path d="M176.59 298.098L232.977 330.935L289.351 297.816L232.904 264.944L176.59 298.098Z" fill="#45108A"/>
<path style="mix-blend-mode:screen" d="M232.977 330.038L177.356 297.647L176.59 298.098L232.977 330.935L289.351 297.816L288.584 297.369L232.977 330.038Z" fill="url(#paint46_radial)"/>
<path style="mix-blend-mode:lighten" opacity="0.2" d="M289.351 307.31V297.815L249.12 321.437L257.233 326.167L289.351 307.31Z" fill="url(#paint47_radial)"/>
<path opacity="0.3" d="M232.946 330.935V388.284L289.352 355.165V297.816L232.946 330.935Z" fill="url(#paint48_linear)"/>
<path opacity="0.1" d="M232.978 330.935V388.284L176.591 355.412V298.098L232.978 330.935Z" fill="#330A66"/>
<path d="M363.768 254.937V312.286L420.173 279.167V221.815L363.768 254.937Z" fill="url(#paint49_linear)"/>
<path d="M363.8 254.936V312.286L307.413 279.414V222.1L363.8 254.936Z" fill="#330A66"/>
<path d="M307.411 222.099L363.8 254.937L420.174 221.819L363.726 188.947L307.411 222.099Z" fill="#45108A"/>
<path style="mix-blend-mode:screen" d="M363.8 254.04L308.178 221.649L307.412 222.1L363.798 254.937L420.173 221.817L419.406 221.368L363.8 254.04Z" fill="url(#paint50_radial)"/>
<path style="mix-blend-mode:screen" d="M358.252 262.31L301.804 229.438L245.49 262.595V319.909L301.846 352.762V352.78L301.862 352.771L301.878 352.78V352.762L358.252 319.661V262.31Z" fill="url(#paint51_linear)"/>
<path d="M354.686 372.196V383.186L411.091 350.067V339.077L354.686 372.196Z" fill="url(#paint52_linear)"/>
<path d="M354.716 372.196V383.186L298.329 350.314V339.358L354.716 372.196Z" fill="url(#paint53_linear)"/>
<path d="M298.329 339.36L354.716 372.197L411.091 339.078L354.64 306.206L298.329 339.36Z" fill="url(#paint54_linear)"/>
<path style="mix-blend-mode:screen" d="M354.717 371.3L299.097 338.909L298.33 339.36L354.718 372.197L411.092 339.078L410.325 338.632L354.717 371.3Z" fill="url(#paint55_radial)"/>
<path d="M354.686 356.743V367.732L411.091 334.614V323.624L354.686 356.743Z" fill="url(#paint56_linear)"/>
<path d="M354.716 356.743V367.732L298.329 334.86V323.906L354.716 356.743Z" fill="url(#paint57_linear)"/>
<path d="M298.329 323.906L354.716 356.743L411.091 323.624L354.64 290.753L298.329 323.906Z" fill="url(#paint58_linear)"/>
<path style="mix-blend-mode:screen" d="M354.717 355.845L299.097 323.455L298.33 323.906L354.718 356.743L411.092 323.623L410.325 323.177L354.717 355.845Z" fill="url(#paint59_radial)"/>
<path d="M354.686 341.29V352.279L411.091 319.161V308.171L354.686 341.29Z" fill="url(#paint60_linear)"/>
<path d="M354.716 341.289V352.279L298.329 319.407V308.452L354.716 341.289Z" fill="url(#paint61_linear)"/>
<path d="M298.329 308.453L354.716 341.289L411.091 308.169L354.64 275.299L298.329 308.453Z" fill="url(#paint62_linear)"/>
<path style="mix-blend-mode:screen" d="M354.717 340.393L299.096 308.003L298.329 308.454L354.717 341.291L411.091 308.171L410.324 307.725L354.717 340.393Z" fill="url(#paint63_radial)"/>
<path d="M354.686 325.836V336.825L411.091 303.706V292.717L354.686 325.836Z" fill="url(#paint64_linear)"/>
<path d="M354.716 325.836V336.825L298.329 303.953V292.998L354.716 325.836Z" fill="url(#paint65_linear)"/>
<path d="M298.329 293L354.716 325.836L411.091 292.718L354.64 259.846L298.329 293Z" fill="url(#paint66_linear)"/>
<path d="M307.21 292.979L354.656 265.045L402.207 292.734L354.71 320.638L307.21 292.979Z" fill="#45108A"/>
<path d="M354.655 267.289L400.287 293.864L402.205 292.737L354.653 265.048L307.21 292.979L309.126 294.094L354.655 267.289Z" fill="url(#paint67_linear)"/>
<path d="M354.654 267.289L400.286 293.864L402.204 292.737L354.652 265.048L354.654 267.289Z" fill="#330A66"/>
<path style="mix-blend-mode:screen" d="M354.717 324.939L299.097 292.549L298.33 293L354.718 325.837L411.092 292.718L410.325 292.271L354.717 324.939Z" fill="url(#paint68_radial)"/>
<path d="M338.586 304.456L341.828 302.585C340.967 302.102 340.01 301.557 338.956 300.951L337.542 300.134L334.321 301.99C334.074 302.116 333.8 302.182 333.522 302.182C333.244 302.182 332.97 302.116 332.722 301.99L329.816 300.314C329.72 300.281 329.636 300.22 329.576 300.137C329.517 300.055 329.485 299.956 329.484 299.854C329.484 299.752 329.515 299.653 329.574 299.57C329.632 299.487 329.716 299.425 329.812 299.391L333.033 297.532L329.67 295.59C329.573 295.558 329.489 295.496 329.429 295.414C329.369 295.331 329.336 295.232 329.336 295.13C329.335 295.028 329.367 294.928 329.426 294.845C329.485 294.762 329.569 294.7 329.666 294.667L357.532 278.579C357.78 278.453 358.054 278.388 358.332 278.388C358.61 278.388 358.884 278.453 359.132 278.579L362.495 280.521L365.716 278.661C365.964 278.536 366.238 278.47 366.516 278.47C366.794 278.47 367.068 278.536 367.316 278.661L370.22 280.337C370.316 280.37 370.4 280.431 370.46 280.514C370.519 280.596 370.552 280.695 370.552 280.797C370.553 280.898 370.522 280.998 370.463 281.081C370.405 281.164 370.322 281.226 370.226 281.26L367.003 283.12L370.178 284.952C370.556 285.171 370.913 285.383 371.25 285.594L374.491 283.723C374.739 283.598 375.013 283.532 375.291 283.532C375.568 283.532 375.842 283.598 376.09 283.723L378.994 285.4C379.091 285.432 379.175 285.494 379.234 285.576C379.294 285.658 379.326 285.757 379.327 285.859C379.328 285.96 379.297 286.06 379.238 286.143C379.18 286.226 379.097 286.289 379.001 286.322L375.417 288.39C376.134 288.983 376.681 289.755 377.001 290.628C377.301 291.53 377.238 292.513 376.825 293.369C376.224 294.521 375.261 295.445 374.085 295.998C372.842 296.657 371.497 297.104 370.107 297.321C367.992 297.68 365.828 297.628 363.733 297.167C365.016 298.512 365.514 299.828 365.225 301.116C364.937 302.403 363.942 303.538 362.241 304.521C360.73 305.355 359.092 305.934 357.392 306.235C355.541 306.602 353.646 306.693 351.769 306.504C349.953 306.315 348.181 305.832 346.52 305.075L343.098 307.05C342.85 307.175 342.576 307.241 342.299 307.241C342.021 307.241 341.747 307.175 341.499 307.05L338.595 305.374C338.5 305.34 338.418 305.279 338.359 305.197C338.301 305.116 338.269 305.018 338.268 304.918C338.267 304.817 338.297 304.719 338.354 304.636C338.411 304.554 338.492 304.491 338.586 304.456ZM359.407 284.402L352.595 288.334L356.518 290.598C358.851 291.946 360.334 292.763 360.967 293.051C362.054 293.56 363.237 293.828 364.437 293.838C365.552 293.853 366.649 293.57 367.617 293.016C368.529 292.49 369.017 291.916 369.079 291.294C369.142 290.672 368.736 290.039 367.861 289.394C367.334 289.013 365.662 288.008 362.845 286.38L359.407 284.402ZM347.692 291.168L339.818 295.716L345.358 298.915C346.738 299.759 348.17 300.516 349.644 301.181C350.708 301.604 351.848 301.8 352.992 301.756C354.169 301.722 355.318 301.392 356.333 300.796C357.059 300.459 357.631 299.863 357.938 299.124C358.021 298.796 358.016 298.451 357.924 298.125C357.832 297.799 357.656 297.503 357.413 297.267C356.88 296.633 355.251 295.531 352.527 293.959L347.692 291.168Z" fill="#43E8E1"/>
<path style="mix-blend-mode:color-dodge" d="M376.999 290.637C376.678 289.765 376.131 288.993 375.415 288.4L376.125 287.99L376.088 287.968C375.84 287.843 375.566 287.777 375.288 287.777C375.01 287.777 374.736 287.843 374.489 287.968L371.248 289.841C370.91 289.63 370.554 289.416 370.176 289.198L367.001 287.366L370.222 285.506C370.36 285.435 370.464 285.311 370.512 285.163C370.398 285.096 370.294 285.03 370.176 284.961L367.001 283.13L367.351 282.928L367.313 282.905C367.065 282.779 366.792 282.714 366.514 282.714C366.236 282.714 365.962 282.779 365.714 282.905L362.493 284.765L359.13 282.824C358.882 282.698 358.608 282.633 358.33 282.633C358.052 282.633 357.778 282.698 357.531 282.824L332.536 297.243L333.032 297.53L329.81 299.389C329.682 299.458 329.583 299.57 329.529 299.705C329.571 299.751 329.617 299.792 329.668 299.828L333.031 301.769L332.683 301.971L332.72 301.992C332.968 302.118 333.242 302.184 333.52 302.184C333.798 302.184 334.072 302.118 334.32 301.992L337.539 300.133L338.954 300.949C340.005 301.556 340.962 302.101 341.826 302.584L338.584 304.454C338.444 304.528 338.34 304.654 338.292 304.804L338.955 305.186C340.006 305.793 340.963 306.338 341.826 306.82L341.457 307.034L341.495 307.057C341.743 307.182 342.017 307.247 342.294 307.247C342.572 307.247 342.846 307.182 343.094 307.057L346.516 305.081C348.176 305.839 349.949 306.322 351.765 306.511C353.642 306.7 355.537 306.609 357.388 306.241C359.087 305.941 360.726 305.362 362.236 304.528C363.16 304.029 363.96 303.331 364.579 302.484C364.825 302.264 364.986 301.963 365.032 301.636C365.108 301.471 365.172 301.3 365.222 301.125C365.51 299.839 365.012 298.523 363.73 297.177C365.825 297.637 367.989 297.69 370.104 297.331C371.494 297.114 372.838 296.667 374.082 296.008C375.055 295.519 375.892 294.797 376.517 293.905C376.209 293.434 375.838 293.008 375.414 292.637L377.167 291.626C377.159 291.29 377.102 290.957 376.999 290.637ZM357.935 299.123C357.629 299.862 357.056 300.458 356.33 300.795C355.315 301.391 354.166 301.721 352.989 301.755C351.845 301.799 350.705 301.602 349.641 301.179C348.167 300.514 346.735 299.758 345.355 298.914L339.815 295.715L347.689 291.167L352.522 293.957C355.245 295.529 356.874 296.632 357.407 297.265C357.651 297.501 357.827 297.797 357.92 298.123C358.013 298.449 358.018 298.794 357.935 299.123ZM367.618 293.019C366.651 293.572 365.552 293.855 364.438 293.84C363.237 293.83 362.053 293.562 360.965 293.053C360.333 292.766 358.85 291.949 356.517 290.601L352.595 288.336L359.406 284.403L362.844 286.387C365.662 288.014 367.334 289.019 367.86 289.402C368.737 290.048 369.143 290.681 369.079 291.301C369.015 291.922 368.528 292.494 367.62 293.018L367.618 293.019Z" fill="url(#paint69_radial)"/>
<path d="M299.952 152.104V209.453L356.358 176.334V118.985L299.952 152.104Z" fill="url(#paint70_linear)"/>
<path d="M299.983 152.104V209.453L243.596 176.582V119.268L299.983 152.104Z" fill="#330A66"/>
<path d="M243.596 119.267L299.983 152.104L356.357 118.987L299.906 86.1133L243.596 119.267Z" fill="#FFC100"/>
<path style="mix-blend-mode:screen" d="M299.983 151.206L244.363 118.816L243.597 119.267L299.983 152.104L356.357 118.986L355.591 118.539L299.983 151.206Z" fill="url(#paint71_radial)"/>
<g style="mix-blend-mode:multiply">
<path d="M410.349 216.059C410.207 216.077 410.06 216.09 409.918 216.113L399.122 210.879C398.663 209.165 395.955 207.837 392.571 207.705L364.906 194.295L363.094 198.036L384.004 208.173L370.632 205.775C369.8 204.2 367.037 203.035 363.723 203.035C359.751 203.035 356.533 204.696 356.533 206.745C356.533 208.505 358.914 209.972 362.102 210.352L361.197 243.659C358.477 244.189 356.533 245.533 356.533 247.123C356.533 249.17 359.752 250.831 363.723 250.831C367.695 250.831 370.912 249.17 370.912 247.123C370.906 246.832 370.838 246.546 370.711 246.284L410.383 223.257C410.916 223.322 411.453 223.356 411.989 223.357C415.103 223.357 417.729 222.33 418.728 220.902L410.349 216.059ZM365.41 241.703L366.265 210.204C366.965 210.07 367.649 209.862 368.305 209.582L385.283 212.627C385.491 212.933 385.746 213.205 386.038 213.432L383.024 216.156C382.809 216.146 382.601 216.124 382.378 216.124C378.408 216.124 375.19 217.785 375.19 219.834C375.19 220.934 376.136 221.912 377.612 222.593L365.41 241.703ZM370.358 241.679L381.954 223.521C382.096 223.525 382.234 223.542 382.378 223.542C386.35 223.542 389.568 221.881 389.568 219.833C389.568 218.91 388.892 218.081 387.817 217.434L390.498 215.01C391.007 215.067 391.519 215.097 392.031 215.098C393.577 215.115 395.111 214.828 396.546 214.254L405.214 218.455C404.959 218.803 404.814 219.219 404.798 219.65C404.828 220.262 405.094 220.839 405.54 221.26L370.358 241.679Z" fill="#BCBCD6"/>
</g>
<g opacity="0.7">
<path opacity="0.7" d="M372.62 159.678L361.031 189.214L365.766 191.072L377.355 161.536L372.62 159.678Z" fill="#8770B8"/>
<g style="mix-blend-mode:screen" opacity="0.5">
<path d="M373.166 161.018L362.669 187.77L364.62 188.535L375.117 161.783L373.166 161.018Z" fill="#8770B8"/>
</g>
</g>
<g opacity="0.7">
<path opacity="0.7" d="M349.564 214.745C349.046 214.744 348.541 214.586 348.115 214.29C347.69 213.995 347.365 213.576 347.183 213.091L336.715 185.051C336.501 184.476 336.501 183.842 336.715 183.267L346.435 157.47C346.477 157.358 346.528 157.249 346.585 157.143L361.165 130.599L365.621 133.047L351.127 159.433L341.806 184.168L351.203 209.334L381.771 203.966L382.65 208.975L350 214.709C349.856 214.733 349.71 214.745 349.564 214.745Z" fill="#8770B8"/>
<g style="mix-blend-mode:screen" opacity="0.5">
<path d="M349.265 212.65C349.052 212.649 348.844 212.583 348.669 212.461C348.494 212.339 348.36 212.167 348.285 211.968L337.817 183.928C337.728 183.689 337.729 183.427 337.82 183.189L347.539 157.394C347.557 157.345 347.579 157.298 347.605 157.253L361.462 132.024L363.297 133.034L349.471 158.202L339.914 183.563L349.941 210.42L380.259 205.096L380.622 207.16L349.445 212.635C349.386 212.645 349.325 212.65 349.265 212.65Z" fill="#8770B8"/>
</g>
</g>
<g opacity="0.7">
<path opacity="0.7" d="M391.441 180.349C391.097 180.349 390.756 180.28 390.44 180.144C390.124 180.009 389.839 179.811 389.601 179.562L373.82 163.063L350.231 161.147L350.644 156.079L375.195 158.074C375.815 158.124 376.396 158.401 376.825 158.852L391.663 174.364L410.783 158.998L413.967 162.963L393.03 179.787C392.58 180.15 392.019 180.349 391.441 180.349Z" fill="#8770B8"/>
<g style="mix-blend-mode:screen" opacity="0.5">
<path d="M391.141 178.253C390.999 178.253 390.859 178.225 390.729 178.169C390.599 178.114 390.482 178.033 390.384 177.93L374.206 161.018L351.542 159.177L351.712 157.091L374.773 158.965C375.028 158.986 375.267 159.1 375.444 159.284L391.229 175.788L410.253 160.502L411.565 162.133L391.793 178.021C391.609 178.171 391.378 178.253 391.141 178.253Z" fill="#8770B8"/>
</g>
</g>
<g opacity="0.7">
<path opacity="0.7" d="M410.268 210.258L392.256 183.56L384.635 207.244L379.796 205.687L389.018 177.025C389.165 176.571 389.435 176.167 389.8 175.86C390.165 175.553 390.608 175.354 391.08 175.287C391.552 175.22 392.034 175.287 392.469 175.48C392.905 175.673 393.278 175.985 393.545 176.38L414.482 207.411L410.268 210.258Z" fill="#8770B8"/>
<g style="mix-blend-mode:screen" opacity="0.5">
<path d="M391.475 179.577L383.371 204.765L381.377 204.123L390.142 176.885C390.201 176.698 390.312 176.531 390.461 176.405C390.611 176.278 390.794 176.197 390.988 176.17C391.041 176.162 391.094 176.158 391.147 176.158C391.317 176.159 391.485 176.201 391.635 176.282C391.785 176.362 391.913 176.479 392.008 176.62L412.107 206.412L410.371 207.58L391.475 179.577Z" fill="#8770B8"/>
</g>
</g>
<g opacity="0.7">
<path opacity="0.7" d="M363.398 192.685C362.894 192.685 362.402 192.535 361.983 192.255C361.565 191.974 361.239 191.575 361.047 191.109L348.78 161.274L315.34 163.52C314.77 163.566 314.201 163.415 313.729 163.092C313.257 162.769 312.91 162.294 312.745 161.747C312.573 161.204 312.589 160.618 312.79 160.085C312.991 159.552 313.365 159.102 313.852 158.807L362.081 129.646L364.713 133.997L325.436 157.742L350.265 156.074C350.797 156.036 351.328 156.167 351.781 156.449C352.235 156.731 352.587 157.15 352.787 157.645L364.75 186.749L390.894 174.989L392.979 179.626L364.441 192.463C364.113 192.61 363.758 192.686 363.398 192.685Z" fill="#8770B8"/>
<g style="mix-blend-mode:screen" opacity="0.5">
<path d="M363.099 190.592C362.967 190.592 362.837 190.567 362.714 190.519C362.584 190.466 362.464 190.388 362.364 190.289C362.264 190.191 362.184 190.073 362.129 189.943L349.457 159.109L314.925 161.427C314.692 161.44 314.461 161.375 314.269 161.241C314.077 161.107 313.936 160.913 313.867 160.69C313.799 160.466 313.807 160.226 313.891 160.008C313.975 159.79 314.129 159.606 314.33 159.486L361.279 131.098L362.362 132.892L324.365 155.864L325.238 158.632L350.075 156.964C350.293 156.951 350.51 157.007 350.695 157.123C350.879 157.239 351.023 157.41 351.106 157.612L363.655 188.142L389.843 176.366L390.704 178.273L363.528 190.497C363.394 190.559 363.247 190.591 363.099 190.592Z" fill="#8770B8"/>
</g>
</g>
<g opacity="0.7">
<path opacity="0.7" d="M363.399 240.914C362.94 240.915 362.49 240.79 362.097 240.553L313.868 211.764C313.49 211.539 313.177 211.219 312.96 210.836C312.743 210.454 312.629 210.021 312.629 209.581V160.979H317.714V208.14L363.393 235.406L406.598 209.35L362.492 192.516L364.306 187.766L413.282 206.46C413.728 206.63 414.116 206.921 414.403 207.301C414.691 207.681 414.866 208.134 414.908 208.609C414.95 209.083 414.859 209.56 414.643 209.985C414.428 210.41 414.097 210.766 413.689 211.012L364.712 240.547C364.315 240.786 363.862 240.913 363.399 240.914Z" fill="#8770B8"/>
<g style="mix-blend-mode:screen" opacity="0.5">
<path d="M363.1 238.819C362.911 238.819 362.726 238.767 362.563 238.671L314.335 209.882C314.18 209.788 314.052 209.656 313.962 209.498C313.873 209.341 313.826 209.162 313.825 208.981V161.877H315.917V208.391L363.095 236.552L409.694 208.449L364.121 191.056L364.868 189.101L412.451 207.262C412.634 207.332 412.794 207.452 412.912 207.608C413.031 207.765 413.103 207.951 413.12 208.147C413.137 208.342 413.099 208.539 413.01 208.713C412.921 208.888 412.785 209.035 412.617 209.136L363.639 238.669C363.476 238.767 363.29 238.819 363.1 238.819Z" fill="#8770B8"/>
</g>
</g>
<g opacity="0.7">
<path opacity="0.7" d="M411.046 163.147L369.481 137.644L377.506 159.995L372.72 161.713L362.252 132.551C362.074 132.056 362.054 131.517 362.196 131.01C362.337 130.502 362.632 130.051 363.041 129.719C363.45 129.387 363.951 129.19 364.477 129.155C365.002 129.12 365.526 129.249 365.975 129.525L413.705 158.812L411.046 163.147Z" fill="#8770B8"/>
<g style="mix-blend-mode:screen" opacity="0.5">
<path d="M366.337 133.545L375.291 158.496L373.323 159.202L363.357 131.449C363.284 131.245 363.275 131.022 363.333 130.813C363.391 130.604 363.512 130.417 363.68 130.28C363.868 130.13 364.101 130.048 364.341 130.047C364.534 130.046 364.724 130.1 364.887 130.203L411.345 158.706L410.249 160.493L366.337 133.545Z" fill="#8770B8"/>
</g>
</g>
<g opacity="0.7">
<path opacity="0.7" d="M316.121 211.941L314.219 207.224L360.856 188.426V132.066H365.941V190.141C365.941 190.648 365.789 191.144 365.506 191.564C365.222 191.984 364.82 192.31 364.35 192.5L316.121 211.941Z" fill="#8770B8"/>
<g style="mix-blend-mode:screen" opacity="0.5">
<path d="M315.867 207.455L362.053 188.838V132.964H364.145V189.543C364.145 189.753 364.083 189.957 363.966 190.131C363.849 190.305 363.683 190.439 363.488 190.517L316.647 209.398L315.867 207.455Z" fill="#8770B8"/>
</g>
</g>
<g opacity="0.7">
<path opacity="0.7" d="M317 159.216L313.341 162.745L337.018 187.295L340.677 183.766L317 159.216Z" fill="#8770B8"/>
<g style="mix-blend-mode:screen" opacity="0.5">
<path d="M316.67 160.725L315.163 162.178L336.758 184.582L338.265 183.129L316.67 160.725Z" fill="#8770B8"/>
</g>
</g>
<g opacity="0.7">
<path opacity="0.7" d="M351.719 213.551L347.413 210.848L361.246 188.79C361.57 188.273 362.07 187.889 362.654 187.71C363.238 187.531 363.867 187.568 364.425 187.815L386.483 197.535L384.433 202.187L364.386 193.353L351.719 213.551Z" fill="#8770B8"/>
<g style="mix-blend-mode:screen" opacity="0.5">
<path d="M349.174 209.78L362.215 188.987C362.349 188.774 362.554 188.617 362.795 188.543C363.035 188.469 363.294 188.485 363.524 188.586L384.213 197.703L383.37 199.62L363.507 190.867L350.949 210.892L349.174 209.78Z" fill="#8770B8"/>
</g>
</g>
<g opacity="0.7">
<path opacity="0.7" d="M363.399 240.914H363.355C362.9 240.906 362.456 240.776 362.068 240.537C361.68 240.298 361.364 239.96 361.151 239.557L347.973 214.628L314.978 212.119C314.499 212.083 314.04 211.912 313.655 211.626C313.269 211.34 312.972 210.951 312.798 210.503C312.625 210.056 312.581 209.568 312.673 209.097C312.765 208.626 312.988 208.19 313.317 207.841L337.246 182.417L340.949 185.902L320.667 207.453L349.759 209.668C350.187 209.701 350.6 209.842 350.959 210.077C351.318 210.313 351.612 210.635 351.813 211.015L363.488 233.1L383.251 198.6C383.543 198.092 384 197.7 384.547 197.491C385.093 197.281 385.696 197.265 386.252 197.447L409.834 205.198V163.15H374.992V158.063H412.378C413.051 158.065 413.696 158.334 414.171 158.81C414.646 159.285 414.914 159.93 414.915 160.603V208.708C414.915 209.11 414.82 209.506 414.637 209.864C414.454 210.222 414.189 210.532 413.864 210.768C413.538 211.003 413.161 211.159 412.764 211.221C412.367 211.283 411.961 211.25 411.579 211.125L386.633 202.926L365.605 239.635C365.382 240.023 365.061 240.346 364.674 240.57C364.286 240.795 363.847 240.913 363.399 240.914Z" fill="#8770B8"/>
<g style="mix-blend-mode:screen" opacity="0.5">
<path d="M363.057 238.82C362.874 238.813 362.696 238.758 362.541 238.66C362.386 238.561 362.26 238.424 362.175 238.261L348.611 212.602L314.792 210.03C314.595 210.015 314.405 209.945 314.246 209.828C314.087 209.71 313.965 209.55 313.893 209.365C313.821 209.181 313.804 208.98 313.842 208.785C313.88 208.591 313.972 208.412 314.108 208.268L337.011 183.933L338.535 185.368L317.134 208.108L349.345 210.558C349.521 210.57 349.691 210.628 349.839 210.725C349.987 210.822 350.108 210.955 350.19 211.111L363.135 235.601L384.247 198.745C384.34 198.585 384.473 198.452 384.633 198.359C384.793 198.267 384.975 198.218 385.159 198.218C385.271 198.219 385.382 198.236 385.489 198.271L411.028 206.664V161.056H376.186V158.961H412.077C412.354 158.962 412.619 159.072 412.815 159.268C413.011 159.464 413.122 159.73 413.123 160.007V208.112C413.123 208.278 413.084 208.442 413.008 208.59C412.932 208.738 412.822 208.866 412.688 208.963C412.553 209.06 412.396 209.123 412.232 209.148C412.068 209.173 411.9 209.158 411.742 209.105L385.641 200.525L364.007 238.296C363.915 238.456 363.783 238.589 363.624 238.681C363.464 238.774 363.283 238.823 363.099 238.823L363.057 238.82Z" fill="#8770B8"/>
</g>
</g>
<path d="M322.771 209.584C322.771 211.088 322.325 212.557 321.489 213.807C320.653 215.057 319.466 216.031 318.077 216.606C316.687 217.181 315.159 217.331 313.684 217.037C312.21 216.743 310.856 216.019 309.793 214.955C308.73 213.892 308.007 212.537 307.714 211.063C307.421 209.588 307.572 208.06 308.148 206.671C308.724 205.282 309.698 204.095 310.949 203.26C312.199 202.425 313.669 201.98 315.172 201.98C317.188 201.981 319.121 202.783 320.546 204.209C321.972 205.635 322.772 207.568 322.771 209.584Z" fill="url(#paint72_radial)"/>
<path d="M322.771 160.982C322.771 162.485 322.325 163.955 321.489 165.205C320.653 166.454 319.466 167.428 318.077 168.003C316.687 168.578 315.159 168.728 313.684 168.434C312.21 168.141 310.856 167.416 309.793 166.353C308.73 165.289 308.007 163.935 307.714 162.46C307.421 160.985 307.572 159.457 308.148 158.068C308.724 156.679 309.698 155.492 310.949 154.658C312.199 153.823 313.669 153.377 315.172 153.378C317.188 153.379 319.121 154.18 320.546 155.606C321.972 157.032 322.772 158.966 322.771 160.982Z" fill="url(#paint73_radial)"/>
<path d="M370.998 190.143C370.998 191.647 370.552 193.117 369.717 194.367C368.882 195.617 367.694 196.591 366.305 197.166C364.916 197.742 363.388 197.892 361.913 197.599C360.439 197.306 359.084 196.582 358.021 195.519C356.958 194.455 356.234 193.101 355.941 191.626C355.648 190.152 355.798 188.623 356.374 187.235C356.949 185.846 357.923 184.658 359.173 183.823C360.423 182.988 361.893 182.542 363.396 182.542C365.412 182.542 367.346 183.343 368.771 184.769C370.197 186.194 370.998 188.127 370.998 190.143Z" fill="url(#paint74_radial)"/>
<path d="M357.167 212.199C357.167 213.703 356.721 215.172 355.886 216.423C355.05 217.673 353.863 218.647 352.474 219.222C351.085 219.797 349.556 219.948 348.081 219.654C346.607 219.361 345.252 218.637 344.189 217.573C343.126 216.51 342.403 215.155 342.11 213.681C341.817 212.206 341.967 210.677 342.543 209.288C343.119 207.9 344.094 206.713 345.344 205.878C346.594 205.043 348.064 204.597 349.568 204.598C351.583 204.598 353.516 205.4 354.941 206.825C356.366 208.251 357.167 210.184 357.167 212.199Z" fill="url(#paint75_radial)"/>
<path d="M419.977 160.982C419.977 162.485 419.531 163.955 418.695 165.205C417.859 166.454 416.672 167.428 415.283 168.003C413.893 168.578 412.365 168.728 410.891 168.434C409.416 168.141 408.062 167.416 406.999 166.353C405.936 165.289 405.213 163.935 404.92 162.46C404.627 160.985 404.778 159.457 405.354 158.068C405.93 156.679 406.904 155.492 408.155 154.658C409.405 153.823 410.875 153.377 412.378 153.378C414.394 153.379 416.327 154.18 417.753 155.606C419.178 157.032 419.978 158.966 419.977 160.982Z" fill="url(#paint76_radial)"/>
<path d="M419.977 208.837C419.977 210.341 419.531 211.81 418.695 213.06C417.859 214.31 416.672 215.284 415.283 215.859C413.893 216.434 412.365 216.584 410.891 216.29C409.416 215.996 408.062 215.272 406.999 214.208C405.936 213.145 405.213 211.79 404.92 210.315C404.627 208.841 404.778 207.312 405.354 205.924C405.93 204.535 406.904 203.348 408.155 202.513C409.405 201.678 410.875 201.233 412.378 201.233C414.394 201.234 416.327 202.036 417.753 203.462C419.178 204.888 419.978 206.821 419.977 208.837Z" fill="url(#paint77_radial)"/>
<path d="M370.998 238.37C370.998 239.873 370.552 241.343 369.717 242.593C368.882 243.843 367.694 244.818 366.305 245.393C364.916 245.968 363.388 246.119 361.913 245.825C360.439 245.532 359.084 244.808 358.021 243.745C356.958 242.682 356.234 241.328 355.941 239.853C355.648 238.378 355.798 236.85 356.374 235.461C356.949 234.072 357.923 232.885 359.173 232.05C360.423 231.214 361.893 230.769 363.396 230.769C365.412 230.769 367.346 231.57 368.771 232.995C370.197 234.421 370.998 236.354 370.998 238.37Z" fill="url(#paint78_radial)"/>
<path d="M370.998 131.82C370.998 133.324 370.552 134.793 369.717 136.043C368.882 137.293 367.694 138.268 366.305 138.843C364.916 139.418 363.388 139.569 361.913 139.276C360.439 138.982 359.084 138.258 358.021 137.195C356.958 136.132 356.234 134.778 355.941 133.303C355.648 131.829 355.798 130.3 356.374 128.911C356.949 127.522 357.923 126.335 359.173 125.5C360.423 124.665 361.893 124.219 363.396 124.219C365.412 124.219 367.346 125.02 368.771 126.445C370.197 127.871 370.998 129.804 370.998 131.82Z" fill="url(#paint79_radial)"/>
<path d="M382.591 160.605C382.591 162.109 382.145 163.579 381.309 164.829C380.474 166.079 379.287 167.053 377.898 167.628C376.508 168.204 374.98 168.354 373.505 168.061C372.031 167.767 370.676 167.043 369.613 165.98C368.55 164.916 367.826 163.562 367.533 162.087C367.24 160.612 367.391 159.084 367.967 157.695C368.543 156.306 369.517 155.119 370.768 154.284C372.018 153.449 373.488 153.003 374.992 153.004C377.007 153.005 378.94 153.806 380.365 155.231C381.79 156.657 382.59 158.59 382.591 160.605Z" fill="url(#paint80_radial)"/>
<path d="M399.04 177.804C399.04 179.307 398.594 180.777 397.759 182.027C396.923 183.277 395.736 184.251 394.347 184.827C392.958 185.402 391.429 185.552 389.955 185.259C388.48 184.965 387.125 184.241 386.062 183.178C384.999 182.114 384.276 180.76 383.983 179.285C383.69 177.81 383.841 176.282 384.416 174.893C384.992 173.504 385.967 172.317 387.217 171.482C388.467 170.647 389.937 170.202 391.441 170.202C393.456 170.203 395.389 171.004 396.814 172.43C398.239 173.855 399.04 175.788 399.04 177.804Z" fill="url(#paint81_radial)"/>
<path d="M389.881 205.847C389.881 207.35 389.435 208.82 388.6 210.07C387.764 211.32 386.577 212.294 385.188 212.869C383.799 213.445 382.271 213.595 380.796 213.302C379.322 213.009 377.967 212.285 376.904 211.222C375.841 210.159 375.117 208.804 374.824 207.33C374.53 205.855 374.681 204.327 375.256 202.938C375.832 201.549 376.806 200.361 378.056 199.526C379.306 198.691 380.776 198.245 382.279 198.245C384.295 198.245 386.229 199.046 387.654 200.472C389.08 201.897 389.881 203.831 389.881 205.847Z" fill="url(#paint82_radial)"/>
<path d="M346.699 184.162C346.699 185.665 346.252 187.135 345.417 188.384C344.581 189.634 343.393 190.608 342.004 191.183C340.615 191.758 339.087 191.908 337.612 191.614C336.138 191.32 334.784 190.596 333.721 189.532C332.658 188.469 331.935 187.114 331.642 185.64C331.349 184.165 331.5 182.637 332.076 181.248C332.651 179.859 333.626 178.672 334.876 177.837C336.127 177.002 337.597 176.557 339.1 176.558C341.116 176.558 343.049 177.36 344.474 178.786C345.899 180.212 346.7 182.146 346.699 184.162Z" fill="url(#paint83_radial)"/>
<path d="M356.42 158.362C356.42 159.866 355.974 161.336 355.139 162.586C354.303 163.836 353.116 164.81 351.727 165.385C350.338 165.961 348.809 166.111 347.334 165.817C345.86 165.524 344.505 164.8 343.442 163.736C342.379 162.673 341.656 161.318 341.363 159.844C341.07 158.369 341.22 156.84 341.796 155.452C342.372 154.063 343.347 152.876 344.597 152.041C345.847 151.206 347.317 150.76 348.821 150.761C350.836 150.762 352.769 151.563 354.194 152.988C355.619 154.414 356.42 156.347 356.42 158.362Z" fill="url(#paint84_radial)"/>
<path d="M170.726 152.684V210.033L227.131 176.914V119.565L170.726 152.684Z" fill="url(#paint85_linear)"/>
<path d="M170.757 152.686V210.035L114.37 177.164V119.85L170.757 152.686Z" fill="#330A66"/>
<path d="M114.369 119.847L170.756 152.684L227.13 119.565L170.682 86.6934L114.369 119.847Z" fill="#45108A"/>
<path style="mix-blend-mode:screen" d="M170.756 151.787L115.136 119.397L114.37 119.847L170.756 152.684L227.131 119.566L226.364 119.119L170.756 151.787Z" fill="url(#paint86_radial)"/>
<path d="M232.946 190.103V247.452L289.352 214.333V156.983L232.946 190.103Z" fill="url(#paint87_linear)"/>
<path d="M232.978 190.104V247.453L176.591 214.581V157.267L232.978 190.104Z" fill="#330A66"/>
<path d="M176.59 157.267L232.977 190.104L289.351 156.985L232.904 124.112L176.59 157.267Z" fill="#45108A"/>
<path style="mix-blend-mode:screen" d="M232.977 189.206L177.356 156.814L176.59 157.265L232.977 190.102L289.351 156.983L288.585 156.536L232.977 189.206Z" fill="url(#paint88_radial)"/>
<path d="M298.357 227.522V284.871L354.763 251.753V194.403L298.357 227.522Z" fill="url(#paint89_linear)"/>
<path d="M298.388 227.522V284.871L242.001 251.999V194.685L298.388 227.522Z" fill="#330A66"/>
<path d="M242.001 194.685L298.388 227.522L354.762 194.404L298.314 161.532L242.001 194.685Z" fill="#45108A"/>
<path style="mix-blend-mode:screen" d="M298.388 226.625L242.767 194.234L242.001 194.685L298.389 227.522L354.762 194.404L353.995 193.957L298.388 226.625Z" fill="url(#paint90_radial)"/>
<path style="mix-blend-mode:lighten" opacity="0.2" d="M298.919 227.194L298.357 227.524V232.384L338.485 255.752L298.357 279.312V284.873L347.956 255.751L298.919 227.194Z" fill="url(#paint91_radial)"/>
<path style="mix-blend-mode:lighten" opacity="0.2" d="M298.356 270.842L324.04 256.017C324.135 255.983 324.218 255.921 324.277 255.838C324.335 255.755 324.366 255.656 324.366 255.554C324.365 255.453 324.333 255.354 324.274 255.272C324.215 255.189 324.131 255.127 324.035 255.094L320.672 253.154L323.893 251.293C323.99 251.26 324.074 251.198 324.133 251.115C324.192 251.031 324.223 250.932 324.222 250.83C324.222 250.728 324.189 250.629 324.129 250.546C324.069 250.464 323.984 250.402 323.887 250.371L320.983 248.693C320.735 248.567 320.461 248.502 320.183 248.502C319.906 248.502 319.632 248.567 319.384 248.693L316.163 250.553L314.748 249.736C313.696 249.129 312.739 248.584 311.876 248.102L315.119 246.229C315.559 245.975 315.556 245.563 315.113 245.307L312.209 243.629C311.961 243.503 311.687 243.438 311.409 243.438C311.131 243.438 310.857 243.503 310.609 243.629L307.188 245.604C305.527 244.843 303.754 244.358 301.937 244.166C300.747 244.049 299.548 244.046 298.357 244.157V249.417C299.108 249.117 299.905 248.95 300.712 248.924C301.857 248.881 302.998 249.078 304.063 249.501C305.536 250.167 306.967 250.923 308.347 251.766L313.888 254.965L306.014 259.512L301.181 256.722C300.047 256.067 299.116 255.499 298.36 255.007V260.756L301.112 262.344L298.36 263.932L298.356 270.842Z" fill="url(#paint92_radial)"/>
<path d="M105.313 190.683V248.029L161.719 214.911V157.563L105.313 190.683Z" fill="url(#paint93_linear)"/>
<path d="M105.345 190.683V248.032L48.958 215.162V157.848L105.345 190.683Z" fill="#330A66"/>
<path d="M48.958 157.847L105.345 190.684L161.719 157.565L105.271 124.693L48.958 157.847Z" fill="#FFC100"/>
<path style="mix-blend-mode:screen" d="M105.345 189.785L49.7248 157.395L48.959 157.846L105.345 190.683L161.719 157.564L160.953 157.117L105.345 189.785Z" fill="url(#paint94_radial)"/>
<path d="M169.13 228.103V285.452L225.535 252.334V194.983L169.13 228.103Z" fill="url(#paint95_linear)"/>
<path d="M169.161 228.102V285.451L112.774 252.579V195.265L169.161 228.102Z" fill="#330A66"/>
<path d="M112.773 195.265L169.16 228.102L225.534 194.983L169.087 162.111L112.773 195.265Z" fill="#45108A"/>
<path d="M169.197 257.644V285.257L225.498 252.419V224.805L169.197 257.644Z" fill="url(#paint96_linear)"/>
<path d="M172.641 279.26V259.621L222.054 230.801V250.441L172.641 279.26ZM175.299 261.148V274.633L219.396 248.914V235.428L175.299 261.148Z" fill="url(#paint97_linear)"/>
<path d="M169.229 257.643V285.256L112.74 252.325V224.747L169.229 257.643Z" fill="url(#paint98_linear)"/>
<path d="M117.513 249.583V233.05L164.456 260.387V276.949L117.513 249.583Z" fill="#25054D"/>
<path d="M165.784 279.263L116.183 250.346V230.739L165.784 259.623V279.263ZM118.842 248.818L163.127 274.635V261.149L118.842 235.362V248.818Z" fill="url(#paint99_linear)"/>
<path d="M158.04 262.06L159.857 263.109V261.024L158.04 259.976V262.06Z" fill="#2AF6FF"/>
<path d="M154.628 260.09L156.445 261.139V259.054L154.628 258.004V260.09Z" fill="#2AF6FF"/>
<path d="M151.215 258.119L153.032 259.168V257.083L151.215 256.034V258.119Z" fill="#4B61B8"/>
<path d="M147.801 256.148L149.618 257.197V255.112L147.801 254.063V256.148Z" fill="#25054D"/>
<path d="M144.388 254.178L146.205 255.226V253.142L144.388 252.093V254.178Z" fill="#25054D"/>
<path d="M140.975 252.207L142.792 253.256V251.171L140.975 250.122V252.207Z" fill="#4B61B8"/>
<path d="M137.562 250.235L139.379 251.284V249.199L137.562 248.15V250.235Z" fill="#4B61B8"/>
<path d="M134.148 248.266L135.966 249.315V247.23L134.148 246.181V248.266Z" fill="#4B61B8"/>
<path d="M130.735 246.296L132.553 247.345V245.26L130.735 244.211V246.296Z" fill="#25054D"/>
<path d="M127.321 244.324L129.138 245.373V243.288L127.321 242.239V244.324Z" fill="#4B61B8"/>
<path d="M123.908 242.353L125.725 243.402V241.317L123.908 240.269V242.353Z" fill="#2AF6FF"/>
<path d="M120.495 240.384L122.312 241.432V239.348L120.495 238.299V240.384Z" fill="#2AF6FF"/>
<path d="M158.04 265.766L159.857 266.815V264.729L158.04 263.68V265.766Z" fill="#4B61B8"/>
<path d="M154.628 263.796L156.445 264.845V262.76L154.628 261.711V263.796Z" fill="#2AF6FF"/>
<path d="M151.215 261.826L153.032 262.874V260.789L151.215 259.74V261.826Z" fill="#2AF6FF"/>
<path d="M147.801 259.854L149.618 260.903V258.818L147.801 257.77V259.854Z" fill="#25054D"/>
<path d="M144.388 257.884L146.205 258.932V256.848L144.388 255.799V257.884Z" fill="#2AF6FF"/>
<path d="M140.975 255.914L142.792 256.963V254.878L140.975 253.829V255.914Z" fill="#2AF6FF"/>
<path d="M137.562 253.943L139.379 254.991V252.909L137.562 251.86V253.943Z" fill="#2AF6FF"/>
<path d="M134.148 251.972L135.966 253.021V250.937L134.148 249.888V251.972Z" fill="#4B61B8"/>
<path d="M130.735 250.002L132.553 251.051V248.966L130.735 247.917V250.002Z" fill="#4B61B8"/>
<path d="M127.321 248.031L129.138 249.08V246.994L127.321 245.945V248.031Z" fill="#4B61B8"/>
<path d="M123.908 246.06L125.725 247.109V245.024L123.908 243.976V246.06Z" fill="#4B61B8"/>
<path d="M120.495 244.09L122.312 245.14V243.056L120.495 242.007V244.09Z" fill="#4B61B8"/>
<path d="M158.04 269.443L159.857 270.492V268.406L158.04 267.357V269.443Z" fill="#2AF6FF"/>
<path d="M154.628 267.472L156.445 268.521V266.437L154.628 265.388V267.472Z" fill="#4B61B8"/>
<path d="M151.215 265.502L153.032 266.551V264.466L151.215 263.417V265.502Z" fill="#4B61B8"/>
<path d="M147.801 263.531L149.618 264.58V262.495L147.801 261.446V263.531Z" fill="#4B61B8"/>
<path d="M144.388 261.559L146.205 262.608V260.523L144.388 259.475V261.559Z" fill="#4B61B8"/>
<path d="M140.975 259.59L142.792 260.638V258.554L140.975 257.505V259.59Z" fill="#4B61B8"/>
<path d="M137.562 257.619L139.379 258.668V256.583L137.562 255.534V257.619Z" fill="#25054D"/>
<path d="M134.148 255.648L135.966 256.697V254.612L134.148 253.563V255.648Z" fill="#2AF6FF"/>
<path d="M130.735 253.676L132.553 254.724V252.64L130.735 251.591V253.676Z" fill="#4B61B8"/>
<path d="M127.321 251.707L129.138 252.756V250.67L127.321 249.621V251.707Z" fill="#4B61B8"/>
<path d="M123.908 249.736L125.725 250.785V248.7L123.908 247.651V249.736Z" fill="#2AF6FF"/>
<path d="M120.495 247.765L122.312 248.814V246.73L120.495 245.681V247.765Z" fill="#2AF6FF"/>
<path d="M179.92 262.06L178.103 263.109V261.024L179.92 259.976V262.06Z" fill="#2AF6FF"/>
<path d="M183.331 260.09L181.514 261.139V259.054L183.331 258.004V260.09Z" fill="#25054D"/>
<path d="M186.746 258.119L184.929 259.168V257.083L186.746 256.034V258.119Z" fill="#4B61B8"/>
<path d="M190.16 256.148L188.343 257.197V255.112L190.16 254.063V256.148Z" fill="#25054D"/>
<path d="M193.572 254.178L191.755 255.226V253.142L193.572 252.093V254.178Z" fill="#25054D"/>
<path d="M196.985 252.207L195.168 253.256V251.171L196.985 250.122V252.207Z" fill="#4B61B8"/>
<path d="M200.399 250.235L198.582 251.284V249.199L200.399 248.15V250.235Z" fill="#4B61B8"/>
<path d="M203.814 248.266L201.997 249.315V247.229L203.814 246.184V248.266Z" fill="#4B61B8"/>
<path d="M207.225 246.296L205.408 247.345V245.26L207.225 244.211V246.296Z" fill="#25054D"/>
<path d="M210.638 244.324L208.821 245.373V243.288L210.638 242.239V244.324Z" fill="#25054D"/>
<path d="M214.053 242.353L212.235 243.402V241.317L214.053 240.269V242.353Z" fill="#2AF6FF"/>
<path d="M217.465 240.384L215.647 241.432V239.348L217.465 238.299V240.384Z" fill="#2AF6FF"/>
<path d="M179.92 265.766L178.103 266.815V264.729L179.92 263.68V265.766Z" fill="#4B61B8"/>
<path d="M183.331 263.796L181.514 264.845V262.76L183.331 261.711V263.796Z" fill="#25054D"/>
<path d="M186.746 261.826L184.929 262.874V260.789L186.746 259.74V261.826Z" fill="#2AF6FF"/>
<path d="M190.16 259.854L188.343 260.903V258.818L190.16 257.77V259.854Z" fill="#25054D"/>
<path d="M193.572 257.884L191.755 258.932V256.848L193.572 255.799V257.884Z" fill="#2AF6FF"/>
<path d="M196.985 255.914L195.168 256.963V254.878L196.985 253.829V255.914Z" fill="#2AF6FF"/>
<path d="M200.399 253.943L198.582 254.991V252.909L200.399 251.86V253.943Z" fill="#2AF6FF"/>
<path d="M203.814 251.972L201.997 253.021V250.937L203.814 249.888V251.972Z" fill="#4B61B8"/>
<path d="M207.225 250.001L205.408 251.05V248.965L207.225 247.916V250.001Z" fill="#4B61B8"/>
<path d="M210.638 248.031L208.821 249.08V246.994L210.638 245.945V248.031Z" fill="#4B61B8"/>
<path d="M214.053 246.06L212.235 247.109V245.024L214.053 243.976V246.06Z" fill="#4B61B8"/>
<path d="M217.465 244.09L215.647 245.138V243.054L217.465 242.005V244.09Z" fill="#4B61B8"/>
<path d="M179.92 269.443L178.103 270.492V268.406L179.92 267.357V269.443Z" fill="#2AF6FF"/>
<path d="M183.331 267.472L181.514 268.521V266.436L183.331 265.387V267.472Z" fill="#4B61B8"/>
<path d="M186.746 265.502L184.929 266.551V264.466L186.746 263.417V265.502Z" fill="#4B61B8"/>
<path d="M190.16 263.531L188.343 264.58V262.495L190.16 261.446V263.531Z" fill="#4B61B8"/>
<path d="M193.573 261.559L191.758 262.609V260.523L193.575 259.475L193.573 261.559Z" fill="#4B61B8"/>
<path d="M196.985 259.59L195.168 260.638V258.554L196.985 257.505V259.59Z" fill="#4B61B8"/>
<path d="M200.399 257.619L198.582 258.668V256.583L200.399 255.534V257.619Z" fill="#25054D"/>
<path d="M203.814 255.648L201.997 256.697V254.612L203.814 253.563V255.648Z" fill="#2AF6FF"/>
<path d="M207.225 253.676L205.408 254.724V252.64L207.225 251.591V253.676Z" fill="#4B61B8"/>
<path d="M210.638 251.707L208.821 252.756V250.67L210.638 249.621V251.707Z" fill="#4B61B8"/>
<path d="M214.053 249.736L212.235 250.785V248.7L214.053 247.651V249.736Z" fill="#4B61B8"/>
<path d="M217.465 247.765L215.647 248.814V246.73L217.465 245.681V247.765Z" fill="#2AF6FF"/>
<path d="M112.74 224.747L169.229 257.646L225.498 224.808L168.949 191.877L112.74 224.747Z" fill="url(#paint100_linear)"/>
<path d="M169.192 247.143V256.348L221.505 225.837V216.631L169.192 247.143Z" fill="url(#paint101_linear)"/>
<path d="M169.22 247.142V256.35L116.733 225.752V216.577L169.22 247.142Z" fill="url(#paint102_linear)"/>
<path d="M169.197 228.108V255.721L225.498 222.884V195.271L169.197 228.108Z" fill="url(#paint103_linear)"/>
<path d="M169.229 228.108V255.721L112.74 222.79V195.212L169.229 228.108Z" fill="url(#paint104_linear)"/>
<path d="M117.513 220.048V203.515L164.456 230.849V247.412L117.513 220.048Z" fill="#25054D"/>
<path d="M165.784 249.727L116.183 220.811V201.203L165.784 230.088V249.727ZM118.842 219.283L163.127 245.1V231.615L118.842 205.827V219.283Z" fill="url(#paint105_linear)"/>
<path d="M158.04 232.524L159.857 233.573V231.488L158.04 230.439V232.524Z" fill="#2AF6FF"/>
<path d="M154.628 230.554L156.445 231.602V229.518L154.628 228.469V230.554Z" fill="#2AF6FF"/>
<path d="M151.215 228.583L153.032 229.632V227.547L151.215 226.498V228.583Z" fill="#4B61B8"/>
<path d="M147.801 226.613L149.618 227.662V225.577L147.801 224.528V226.613Z" fill="#25054D"/>
<path d="M144.388 224.642L146.205 225.691V223.604L144.388 222.555V224.642Z" fill="#25054D"/>
<path d="M140.975 222.671L142.792 223.72V221.635L140.975 220.586V222.671Z" fill="#4B61B8"/>
<path d="M137.562 220.7L139.379 221.749V219.664L137.562 218.615V220.7Z" fill="#4B61B8"/>
<path d="M134.148 218.729L135.966 219.778V217.693L134.148 216.645V218.729Z" fill="#4B61B8"/>
<path d="M130.735 216.76L132.553 217.808V215.724L130.735 214.675V216.76Z" fill="#25054D"/>
<path d="M127.321 214.789L129.138 215.838V213.753L127.321 212.704V214.789Z" fill="#4B61B8"/>
<path d="M123.908 212.817L125.725 213.866V211.783L123.908 210.734V212.817Z" fill="#2AF6FF"/>
<path d="M120.495 210.847L122.312 211.896V209.812L120.495 208.763V210.847Z" fill="#2AF6FF"/>
<path d="M158.04 236.23L159.857 237.279V235.194L158.04 234.146V236.23Z" fill="#4B61B8"/>
<path d="M154.628 234.26L156.445 235.308V233.224L154.628 232.175V234.26Z" fill="#2AF6FF"/>
<path d="M151.215 232.289L153.032 233.337V231.252L151.215 230.203V232.289Z" fill="#2AF6FF"/>
<path d="M147.801 230.318L149.618 231.366V229.282L147.801 228.233V230.318Z" fill="#25054D"/>
<path d="M144.388 228.347L146.205 229.396V227.312L144.388 226.263V228.347Z" fill="#2AF6FF"/>
<path d="M140.975 226.377L142.792 227.426V225.341L140.975 224.292V226.377Z" fill="#2AF6FF"/>
<path d="M137.562 224.406L139.379 225.455V223.37L137.562 222.321V224.406Z" fill="#2AF6FF"/>
<path d="M134.148 222.435L135.966 223.484V221.399L134.148 220.351V222.435Z" fill="#4B61B8"/>
<path d="M130.735 220.465L132.553 221.513V219.429L130.735 218.38V220.465Z" fill="#4B61B8"/>
<path d="M127.321 218.494L129.138 219.542V217.457L127.321 216.408V218.494Z" fill="#4B61B8"/>
<path d="M123.908 216.523L125.725 217.572V215.487L123.908 214.438V216.523Z" fill="#4B61B8"/>
<path d="M120.495 214.553L122.312 215.601V213.517L120.495 212.468V214.553Z" fill="#4B61B8"/>
<path d="M158.04 239.91L159.857 240.958V238.873L158.04 237.824V239.91Z" fill="#2AF6FF"/>
<path d="M154.628 237.936L156.445 238.985V236.9L154.628 235.852V237.936Z" fill="#4B61B8"/>
<path d="M151.215 235.966L153.032 237.014V234.93L151.215 233.881V235.966Z" fill="#4B61B8"/>
<path d="M147.801 233.994L149.618 235.043V232.958L147.801 231.909V233.994Z" fill="#4B61B8"/>
<path d="M144.388 232.023L146.205 233.072V230.987L144.388 229.938V232.023Z" fill="#4B61B8"/>
<path d="M140.975 230.054L142.792 231.102V229.018L140.975 227.969V230.054Z" fill="#4B61B8"/>
<path d="M137.562 228.083L139.379 229.132V227.044L137.562 225.995V228.083Z" fill="#25054D"/>
<path d="M134.148 226.112L135.966 227.161V225.076L134.148 224.027V226.112Z" fill="#2AF6FF"/>
<path d="M130.735 224.14L132.553 225.189V223.105L130.735 222.056V224.14Z" fill="#4B61B8"/>
<path d="M127.321 222.171L129.138 223.22V221.135L127.321 220.086V222.171Z" fill="#4B61B8"/>
<path d="M123.908 220.2L125.725 221.249V219.164L123.908 218.115V220.2Z" fill="#2AF6FF"/>
<path d="M120.495 218.229L122.312 219.278V217.193L120.495 216.145V218.229Z" fill="#2AF6FF"/>
<path style="mix-blend-mode:screen" d="M169.229 227.211L113.509 194.763L112.74 195.212L169.229 228.108L225.498 195.27L224.729 194.822L169.229 227.211Z" fill="url(#paint106_radial)"/>
<path d="M127.44 195.7L168.823 219.799L210.767 195.667L169.339 171.544L127.44 195.7Z" fill="url(#paint107_linear)"/>
<g style="mix-blend-mode:color-dodge">
<path style="mix-blend-mode:color-dodge" d="M148.378 207.811L168.963 219.8L189.829 207.796L169.221 195.795L148.378 207.811Z" fill="url(#paint108_radial)"/>
</g>
<path style="mix-blend-mode:screen" d="M210.767 108.533L168.978 84.1973L127.44 108.49V195.701L168.823 219.798L210.767 195.669V108.533Z" fill="url(#paint109_linear)"/>
<path d="M232.946 265.521V322.87L289.352 289.751V232.402L232.946 265.521Z" fill="url(#paint110_linear)"/>
<path d="M232.977 265.522V322.871L176.59 289.999V232.685L232.977 265.522Z" fill="#330A66"/>
<path d="M176.59 232.687L232.977 265.524L289.351 232.405L232.904 199.53L176.59 232.687Z" fill="#FFC100"/>
<path style="mix-blend-mode:screen" d="M232.977 264.625L177.356 232.234L176.59 232.685L232.977 265.522L289.351 232.404L288.585 231.957L232.977 264.625Z" fill="url(#paint111_radial)"/>
<defs>
<linearGradient id="paint0_linear" x1="295.13" y1="139.47" x2="302.801" y2="167.562" gradientUnits="userSpaceOnUse">
<stop offset="0.035" stop-color="#FFA98C"/>
<stop offset="0.317" stop-color="#FEB892"/>
<stop offset="0.86" stop-color="#FEE0A3"/>
<stop offset="1" stop-color="#FEECA8"/>
</linearGradient>
<linearGradient id="paint1_linear" x1="175.893" y1="60.1137" x2="254.491" y2="218.557" gradientUnits="userSpaceOnUse">
<stop offset="0.035" stop-color="#FFA98C"/>
<stop offset="0.317" stop-color="#FEB892"/>
<stop offset="0.86" stop-color="#FEE0A3"/>
<stop offset="1" stop-color="#FEECA8"/>
</linearGradient>
<linearGradient id="paint2_linear" x1="292.267" y1="-14.3558" x2="279.807" y2="147.489" gradientUnits="userSpaceOnUse">
<stop offset="0.035" stop-color="#FFA98C"/>
<stop offset="0.317" stop-color="#FEB892"/>
<stop offset="0.86" stop-color="#FEE0A3"/>
<stop offset="1" stop-color="#FEECA8"/>
</linearGradient>
<radialGradient id="paint3_radial" cx="0" cy="0" r="1" gradientUnits="userSpaceOnUse" gradientTransform="translate(35.7589 127.312) scale(41.6341 41.5882)">
<stop offset="0.096" stop-color="#FFE4A7"/>
<stop offset="0.421" stop-color="#F4BE4C"/>
<stop offset="0.672" stop-color="#ECA30A"/>
<stop offset="1"/>
</radialGradient>
<linearGradient id="paint4_linear" x1="295.13" y1="124.017" x2="302.801" y2="152.109" gradientUnits="userSpaceOnUse">
<stop offset="0.035" stop-color="#FFA98C"/>
<stop offset="0.317" stop-color="#FEB892"/>
<stop offset="0.86" stop-color="#FEE0A3"/>
<stop offset="1" stop-color="#FEECA8"/>
</linearGradient>
<linearGradient id="paint5_linear" x1="175.893" y1="44.6599" x2="254.493" y2="203.105" gradientUnits="userSpaceOnUse">
<stop offset="0.035" stop-color="#FFA98C"/>
<stop offset="0.317" stop-color="#FEB892"/>
<stop offset="0.86" stop-color="#FEE0A3"/>
<stop offset="1" stop-color="#FEECA8"/>
</linearGradient>
<linearGradient id="paint6_linear" x1="292.267" y1="-29.8026" x2="279.808" y2="132.037" gradientUnits="userSpaceOnUse">
<stop offset="0.035" stop-color="#FFA98C"/>
<stop offset="0.317" stop-color="#FEB892"/>
<stop offset="0.86" stop-color="#FEE0A3"/>
<stop offset="1" stop-color="#FEECA8"/>
</linearGradient>
<radialGradient id="paint7_radial" cx="0" cy="0" r="1" gradientUnits="userSpaceOnUse" gradientTransform="translate(264.075 111.86) scale(139.712 41.5874)">
<stop offset="0.096" stop-color="#FFE4A7"/>
<stop offset="0.421" stop-color="#F4BE4C"/>
<stop offset="0.672" stop-color="#ECA30A"/>
<stop offset="1"/>
</radialGradient>
<linearGradient id="paint8_linear" x1="295.13" y1="108.565" x2="302.801" y2="136.657" gradientUnits="userSpaceOnUse">
<stop offset="0.035" stop-color="#FFA98C"/>
<stop offset="0.317" stop-color="#FEB892"/>
<stop offset="0.86" stop-color="#FEE0A3"/>
<stop offset="1" stop-color="#FEECA8"/>
</linearGradient>
<linearGradient id="paint9_linear" x1="175.893" y1="29.2092" x2="254.489" y2="187.651" gradientUnits="userSpaceOnUse">
<stop offset="0.035" stop-color="#FFA98C"/>
<stop offset="0.317" stop-color="#FEB892"/>
<stop offset="0.86" stop-color="#FEE0A3"/>
<stop offset="1" stop-color="#FEECA8"/>
</linearGradient>
<linearGradient id="paint10_linear" x1="292.267" y1="-45.2539" x2="279.808" y2="116.584" gradientUnits="userSpaceOnUse">
<stop offset="0.035" stop-color="#FFA98C"/>
<stop offset="0.317" stop-color="#FEB892"/>
<stop offset="0.86" stop-color="#FEE0A3"/>
<stop offset="1" stop-color="#FEECA8"/>
</linearGradient>
<radialGradient id="paint11_radial" cx="0" cy="0" r="1" gradientUnits="userSpaceOnUse" gradientTransform="translate(264.075 96.4077) scale(139.712 41.5874)">
<stop offset="0.096" stop-color="#FFE4A7"/>
<stop offset="0.421" stop-color="#F4BE4C"/>
<stop offset="0.672" stop-color="#ECA30A"/>
<stop offset="1"/>
</radialGradient>
<linearGradient id="paint12_linear" x1="295.13" y1="93.1122" x2="302.801" y2="121.204" gradientUnits="userSpaceOnUse">
<stop offset="0.035" stop-color="#FFA98C"/>
<stop offset="0.317" stop-color="#FEB892"/>
<stop offset="0.86" stop-color="#FEE0A3"/>
<stop offset="1" stop-color="#FEECA8"/>
</linearGradient>
<linearGradient id="paint13_linear" x1="175.893" y1="13.7546" x2="254.493" y2="172.2" gradientUnits="userSpaceOnUse">
<stop offset="0.035" stop-color="#FFA98C"/>
<stop offset="0.317" stop-color="#FEB892"/>
<stop offset="0.86" stop-color="#FEE0A3"/>
<stop offset="1" stop-color="#FEECA8"/>
</linearGradient>
<linearGradient id="paint14_linear" x1="300.95" y1="-99.7826" x2="288.529" y2="61.986" gradientUnits="userSpaceOnUse">
<stop offset="0.035" stop-color="#FFA98C"/>
<stop offset="0.317" stop-color="#FEB892"/>
<stop offset="0.86" stop-color="#FEE0A3"/>
<stop offset="1" stop-color="#FEECA8"/>
</linearGradient>
<linearGradient id="paint15_linear" x1="254.192" y1="50.8898" x2="257.452" y2="99.8954" gradientUnits="userSpaceOnUse">
<stop stop-color="#25054D"/>
<stop offset="1" stop-color="#45108A"/>
</linearGradient>
<radialGradient id="paint16_radial" cx="0" cy="0" r="1" gradientUnits="userSpaceOnUse" gradientTransform="translate(35.7589 80.9539) scale(41.6341 41.5882)">
<stop offset="0.096" stop-color="#FFE4A7"/>
<stop offset="0.421" stop-color="#F4BE4C"/>
<stop offset="0.672" stop-color="#ECA30A"/>
<stop offset="1"/>
</radialGradient>
<radialGradient id="paint17_radial" cx="0" cy="0" r="1" gradientUnits="userSpaceOnUse" gradientTransform="translate(106.247 79.5603) scale(26.1037 26.089)">
<stop stop-color="white"/>
<stop offset="1"/>
</radialGradient>
<linearGradient id="paint18_linear" x1="269.328" y1="68.4701" x2="269.328" y2="2.06097" gradientUnits="userSpaceOnUse">
<stop stop-color="#1BB0D4"/>
<stop offset="0.054" stop-color="#189CBC"/>
<stop offset="0.183" stop-color="#11738B"/>
<stop offset="0.315" stop-color="#0C5060"/>
<stop offset="0.448" stop-color="#07333D"/>
<stop offset="0.581" stop-color="#041C22"/>
<stop offset="0.717" stop-color="#010C0F"/>
<stop offset="0.855" stop-color="#000303"/>
<stop offset="1"/>
</linearGradient>
<linearGradient id="paint19_linear" x1="338.026" y1="315.991" x2="407.397" y2="376.555" gradientUnits="userSpaceOnUse">
<stop stop-color="#25054D"/>
<stop offset="1" stop-color="#45108A"/>
</linearGradient>
<radialGradient id="paint20_radial" cx="0" cy="0" r="1" gradientUnits="userSpaceOnUse" gradientTransform="translate(61.2935 264.928) scale(57.8637 57.8005)">
<stop offset="0.096" stop-color="#45108A"/>
<stop offset="0.672" stop-color="#25054D"/>
<stop offset="1"/>
</radialGradient>
<linearGradient id="paint21_linear" x1="271.02" y1="353.99" x2="340.391" y2="414.554" gradientUnits="userSpaceOnUse">
<stop stop-color="#25054D"/>
<stop offset="1" stop-color="#45108A"/>
</linearGradient>
<radialGradient id="paint22_radial" cx="0" cy="0" r="1" gradientUnits="userSpaceOnUse" gradientTransform="translate(232.971 302.928) scale(194.175 57.7995)">
<stop offset="0.096" stop-color="#45108A"/>
<stop offset="0.672" stop-color="#25054D"/>
<stop offset="1"/>
</radialGradient>
<linearGradient id="paint23_linear" x1="250.589" y1="79.1594" x2="197.049" y2="125.471" gradientUnits="userSpaceOnUse">
<stop stop-color="#972A74"/>
<stop offset="0.041" stop-color="#8A266A"/>
<stop offset="0.194" stop-color="#601A49"/>
<stop offset="0.35" stop-color="#3D112F"/>
<stop offset="0.507" stop-color="#22091A"/>
<stop offset="0.667" stop-color="#0F040B"/>
<stop offset="0.829" stop-color="#030102"/>
<stop offset="1"/>
</linearGradient>
<linearGradient id="paint24_linear" x1="401.841" y1="354.63" x2="471.212" y2="415.194" gradientUnits="userSpaceOnUse">
<stop stop-color="#25054D"/>
<stop offset="1" stop-color="#45108A"/>
</linearGradient>
<linearGradient id="paint25_linear" x1="336.431" y1="392.628" x2="405.802" y2="453.192" gradientUnits="userSpaceOnUse">
<stop stop-color="#25054D"/>
<stop offset="1" stop-color="#45108A"/>
</linearGradient>
<linearGradient id="paint26_linear" x1="73.26" y1="335.639" x2="124.101" y2="318.767" gradientUnits="userSpaceOnUse">
<stop stop-color="#972A74"/>
<stop offset="0.041" stop-color="#8A266A"/>
<stop offset="0.194" stop-color="#601A49"/>
<stop offset="0.35" stop-color="#3D112F"/>
<stop offset="0.507" stop-color="#22091A"/>
<stop offset="0.667" stop-color="#0F040B"/>
<stop offset="0.829" stop-color="#030102"/>
<stop offset="1"/>
</linearGradient>
<linearGradient id="paint27_linear" x1="103.885" y1="377.588" x2="161.065" y2="392.564" gradientUnits="userSpaceOnUse">
<stop offset="0.035" stop-color="#FFA98C"/>
<stop offset="0.317" stop-color="#FEB892"/>
<stop offset="0.86" stop-color="#FEE0A3"/>
<stop offset="1" stop-color="#FEECA8"/>
</linearGradient>
<linearGradient id="paint28_linear" x1="-65.2622" y1="202.164" x2="200.614" y2="328.757" gradientUnits="userSpaceOnUse">
<stop offset="0.035" stop-color="#FFA98C"/>
<stop offset="0.317" stop-color="#FEB892"/>
<stop offset="0.86" stop-color="#FEE0A3"/>
<stop offset="1" stop-color="#FEECA8"/>
</linearGradient>
<linearGradient id="paint29_linear" x1="33.7853" y1="347.722" x2="53.4628" y2="347.722" gradientUnits="userSpaceOnUse">
<stop stop-color="#25054D"/>
<stop offset="1" stop-color="#45108A"/>
</linearGradient>
<linearGradient id="paint30_linear" x1="85.5681" y1="226.679" x2="77.9975" y2="325.245" gradientUnits="userSpaceOnUse">
<stop offset="0.035" stop-color="#FFA98C"/>
<stop offset="0.317" stop-color="#FEB892"/>
<stop offset="0.86" stop-color="#FEE0A3"/>
<stop offset="1" stop-color="#FEECA8"/>
</linearGradient>
<radialGradient id="paint31_radial" cx="0" cy="0" r="1" gradientUnits="userSpaceOnUse" gradientTransform="translate(-71.455 318.825) scale(53.7282 53.664)">
<stop offset="0.096" stop-color="#FFE4A7"/>
<stop offset="0.421" stop-color="#F4BE4C"/>
<stop offset="0.672" stop-color="#ECA30A"/>
<stop offset="1"/>
</radialGradient>
<radialGradient id="paint32_radial" cx="0" cy="0" r="1" gradientUnits="userSpaceOnUse" gradientTransform="translate(341.556 343.428) scale(26.1014 26.1032)">
<stop stop-color="white"/>
<stop offset="1"/>
</radialGradient>
<linearGradient id="paint33_linear" x1="59.6117" y1="347.201" x2="-0.0441452" y2="376.593" gradientUnits="userSpaceOnUse">
<stop stop-color="#1BB0D4"/>
<stop offset="0.054" stop-color="#189CBC"/>
<stop offset="0.183" stop-color="#11738B"/>
<stop offset="0.315" stop-color="#0C5060"/>
<stop offset="0.448" stop-color="#07333D"/>
<stop offset="0.581" stop-color="#041C22"/>
<stop offset="0.717" stop-color="#010C0F"/>
<stop offset="0.855" stop-color="#000303"/>
<stop offset="1"/>
</linearGradient>
<linearGradient id="paint34_linear" x1="207.204" y1="393.208" x2="276.574" y2="453.772" gradientUnits="userSpaceOnUse">
<stop stop-color="#25054D"/>
<stop offset="1" stop-color="#45108A"/>
</linearGradient>
<radialGradient id="paint35_radial" cx="0" cy="0" r="1" gradientUnits="userSpaceOnUse" gradientTransform="translate(511.224 361.147) scale(71.2798 71.2802)">
<stop stop-color="#FDD65B"/>
<stop offset="0.206" stop-color="#B0953F"/>
<stop offset="0.474" stop-color="#52451D"/>
<stop offset="0.663" stop-color="#171308"/>
<stop offset="0.753"/>
</radialGradient>
<radialGradient id="paint36_radial" cx="0" cy="0" r="1" gradientUnits="userSpaceOnUse" gradientTransform="translate(169.155 342.15) scale(192.934 57.4303)">
<stop offset="0.096" stop-color="#45108A"/>
<stop offset="0.672" stop-color="#25054D"/>
<stop offset="1"/>
</radialGradient>
<linearGradient id="paint37_linear" x1="143.387" y1="290.376" x2="212.758" y2="350.941" gradientUnits="userSpaceOnUse">
<stop stop-color="#25054D"/>
<stop offset="1" stop-color="#45108A"/>
</linearGradient>
<radialGradient id="paint38_radial" cx="0" cy="0" r="1" gradientUnits="userSpaceOnUse" gradientTransform="translate(105.339 239.315) scale(194.173 57.7995)">
<stop offset="0.096" stop-color="#45108A"/>
<stop offset="0.672" stop-color="#25054D"/>
<stop offset="1"/>
</radialGradient>
<radialGradient id="paint39_radial" cx="0" cy="0" r="1" gradientUnits="userSpaceOnUse" gradientTransform="translate(34.3738 309.72) scale(68.5424 68.5665)">
<stop stop-color="#FDD65B"/>
<stop offset="0.206" stop-color="#B0953F"/>
<stop offset="0.474" stop-color="#52451D"/>
<stop offset="0.663" stop-color="#171308"/>
<stop offset="0.753"/>
</radialGradient>
<linearGradient id="paint40_linear" x1="271.02" y1="430.627" x2="340.39" y2="491.191" gradientUnits="userSpaceOnUse">
<stop stop-color="#25054D"/>
<stop offset="1" stop-color="#45108A"/>
</linearGradient>
<radialGradient id="paint41_radial" cx="0" cy="0" r="1" gradientUnits="userSpaceOnUse" gradientTransform="translate(232.971 379.566) scale(194.175 57.7995)">
<stop offset="0.096" stop-color="#45108A"/>
<stop offset="0.672" stop-color="#25054D"/>
<stop offset="1"/>
</radialGradient>
<linearGradient id="paint42_linear" x1="207.204" y1="327.795" x2="276.575" y2="388.36" gradientUnits="userSpaceOnUse">
<stop stop-color="#25054D"/>
<stop offset="1" stop-color="#45108A"/>
</linearGradient>
<radialGradient id="paint43_radial" cx="0" cy="0" r="1" gradientUnits="userSpaceOnUse" gradientTransform="translate(169.155 276.734) scale(194.175 57.7995)">
<stop offset="0.096" stop-color="#45108A"/>
<stop offset="0.672" stop-color="#25054D"/>
<stop offset="1"/>
</radialGradient>
<linearGradient id="paint44_linear" x1="264.026" y1="372.67" x2="271.696" y2="400.762" gradientUnits="userSpaceOnUse">
<stop stop-color="#25054D"/>
<stop offset="1" stop-color="#45108A"/>
</linearGradient>
<linearGradient id="paint45_linear" x1="263.8" y1="325.046" x2="270.398" y2="350.98" gradientUnits="userSpaceOnUse">
<stop stop-color="#25054D"/>
<stop offset="1" stop-color="#45108A"/>
</linearGradient>
<radialGradient id="paint46_radial" cx="0" cy="0" r="1" gradientUnits="userSpaceOnUse" gradientTransform="translate(232.97 314.152) scale(192.032 57.1628)">
<stop offset="0.096" stop-color="#45108A"/>
<stop offset="0.672" stop-color="#25054D"/>
<stop offset="1"/>
</radialGradient>
<radialGradient id="paint47_radial" cx="0" cy="0" r="1" gradientUnits="userSpaceOnUse" gradientTransform="translate(196.065 322.623) scale(57.8604 57.8379)">
<stop stop-color="#FDD65B"/>
<stop offset="0.206" stop-color="#B0953F"/>
<stop offset="0.474" stop-color="#52451D"/>
<stop offset="0.663" stop-color="#171308"/>
<stop offset="0.753"/>
</radialGradient>
<linearGradient id="paint48_linear" x1="271.02" y1="365.215" x2="340.391" y2="425.779" gradientUnits="userSpaceOnUse">
<stop stop-color="#25054D"/>
<stop offset="1" stop-color="#45108A"/>
</linearGradient>
<linearGradient id="paint49_linear" x1="401.841" y1="289.216" x2="471.214" y2="349.78" gradientUnits="userSpaceOnUse">
<stop stop-color="#FFC100"/>
<stop offset="1" stop-color="#9F7D10"/>
</linearGradient>
<radialGradient id="paint50_radial" cx="0" cy="0" r="1" gradientUnits="userSpaceOnUse" gradientTransform="translate(363.792 238.152) scale(194.173 57.8048)">
<stop offset="0.096" stop-color="#45108A"/>
<stop offset="0.672" stop-color="#25054D"/>
<stop offset="1"/>
</radialGradient>
<linearGradient id="paint51_linear" x1="382.721" y1="335.142" x2="262.425" y2="280.367" gradientUnits="userSpaceOnUse">
<stop stop-color="#972A74"/>
<stop offset="0.041" stop-color="#8A266A"/>
<stop offset="0.194" stop-color="#601A49"/>
<stop offset="0.35" stop-color="#3D112F"/>
<stop offset="0.507" stop-color="#22091A"/>
<stop offset="0.667" stop-color="#0F040B"/>
<stop offset="0.829" stop-color="#030102"/>
<stop offset="1"/>
</linearGradient>
<linearGradient id="paint52_linear" x1="385.765" y1="367.571" x2="393.436" y2="395.663" gradientUnits="userSpaceOnUse">
<stop offset="0.035" stop-color="#FFA98C"/>
<stop offset="0.317" stop-color="#FEB892"/>
<stop offset="0.86" stop-color="#FEE0A3"/>
<stop offset="1" stop-color="#FEECA8"/>
</linearGradient>
<linearGradient id="paint53_linear" x1="266.527" y1="288.212" x2="345.128" y2="446.658" gradientUnits="userSpaceOnUse">
<stop offset="0.035" stop-color="#FFA98C"/>
<stop offset="0.317" stop-color="#FEB892"/>
<stop offset="0.86" stop-color="#FEE0A3"/>
<stop offset="1" stop-color="#FEECA8"/>
</linearGradient>
<linearGradient id="paint54_linear" x1="382.9" y1="213.753" x2="370.441" y2="375.591" gradientUnits="userSpaceOnUse">
<stop offset="0.035" stop-color="#FFA98C"/>
<stop offset="0.317" stop-color="#FEB892"/>
<stop offset="0.86" stop-color="#FEE0A3"/>
<stop offset="1" stop-color="#FEECA8"/>
</linearGradient>
<radialGradient id="paint55_radial" cx="0" cy="0" r="1" gradientUnits="userSpaceOnUse" gradientTransform="translate(354.711 355.414) scale(139.712 41.5874)">
<stop offset="0.096" stop-color="#FFE4A7"/>
<stop offset="0.421" stop-color="#F4BE4C"/>
<stop offset="0.672" stop-color="#ECA30A"/>
<stop offset="1"/>
</radialGradient>
<linearGradient id="paint56_linear" x1="385.765" y1="352.118" x2="393.436" y2="380.21" gradientUnits="userSpaceOnUse">
<stop offset="0.035" stop-color="#FFA98C"/>
<stop offset="0.317" stop-color="#FEB892"/>
<stop offset="0.86" stop-color="#FEE0A3"/>
<stop offset="1" stop-color="#FEECA8"/>
</linearGradient>
<linearGradient id="paint57_linear" x1="266.527" y1="272.761" x2="345.125" y2="431.205" gradientUnits="userSpaceOnUse">
<stop offset="0.035" stop-color="#FFA98C"/>
<stop offset="0.317" stop-color="#FEB892"/>
<stop offset="0.86" stop-color="#FEE0A3"/>
<stop offset="1" stop-color="#FEECA8"/>
</linearGradient>
<linearGradient id="paint58_linear" x1="382.9" y1="198.301" x2="370.442" y2="360.137" gradientUnits="userSpaceOnUse">
<stop offset="0.035" stop-color="#FFA98C"/>
<stop offset="0.317" stop-color="#FEB892"/>
<stop offset="0.86" stop-color="#FEE0A3"/>
<stop offset="1" stop-color="#FEECA8"/>
</linearGradient>
<radialGradient id="paint59_radial" cx="0" cy="0" r="1" gradientUnits="userSpaceOnUse" gradientTransform="translate(354.711 339.96) scale(139.712 41.5882)">
<stop offset="0.096" stop-color="#FFE4A7"/>
<stop offset="0.421" stop-color="#F4BE4C"/>
<stop offset="0.672" stop-color="#ECA30A"/>
<stop offset="1"/>
</radialGradient>
<linearGradient id="paint60_linear" x1="385.765" y1="336.665" x2="393.436" y2="364.757" gradientUnits="userSpaceOnUse">
<stop offset="0.035" stop-color="#FFA98C"/>
<stop offset="0.317" stop-color="#FEB892"/>
<stop offset="0.86" stop-color="#FEE0A3"/>
<stop offset="1" stop-color="#FEECA8"/>
</linearGradient>
<linearGradient id="paint61_linear" x1="266.527" y1="257.306" x2="345.127" y2="415.751" gradientUnits="userSpaceOnUse">
<stop offset="0.035" stop-color="#FFA98C"/>
<stop offset="0.317" stop-color="#FEB892"/>
<stop offset="0.86" stop-color="#FEE0A3"/>
<stop offset="1" stop-color="#FEECA8"/>
</linearGradient>
<linearGradient id="paint62_linear" x1="382.9" y1="182.847" x2="370.442" y2="344.683" gradientUnits="userSpaceOnUse">
<stop offset="0.035" stop-color="#FFA98C"/>
<stop offset="0.317" stop-color="#FEB892"/>
<stop offset="0.86" stop-color="#FEE0A3"/>
<stop offset="1" stop-color="#FEECA8"/>
</linearGradient>
<radialGradient id="paint63_radial" cx="0" cy="0" r="1" gradientUnits="userSpaceOnUse" gradientTransform="translate(354.71 324.508) scale(139.712 41.5882)">
<stop offset="0.096" stop-color="#FFE4A7"/>
<stop offset="0.421" stop-color="#F4BE4C"/>
<stop offset="0.672" stop-color="#ECA30A"/>
<stop offset="1"/>
</radialGradient>
<linearGradient id="paint64_linear" x1="385.765" y1="321.21" x2="393.435" y2="349.302" gradientUnits="userSpaceOnUse">
<stop offset="0.035" stop-color="#FFA98C"/>
<stop offset="0.317" stop-color="#FEB892"/>
<stop offset="0.86" stop-color="#FEE0A3"/>
<stop offset="1" stop-color="#FEECA8"/>
</linearGradient>
<linearGradient id="paint65_linear" x1="266.527" y1="241.852" x2="345.127" y2="400.297" gradientUnits="userSpaceOnUse">
<stop offset="0.035" stop-color="#FFA98C"/>
<stop offset="0.317" stop-color="#FEB892"/>
<stop offset="0.86" stop-color="#FEE0A3"/>
<stop offset="1" stop-color="#FEECA8"/>
</linearGradient>
<linearGradient id="paint66_linear" x1="391.583" y1="128.326" x2="379.164" y2="290.087" gradientUnits="userSpaceOnUse">
<stop offset="0.035" stop-color="#FFA98C"/>
<stop offset="0.317" stop-color="#FEB892"/>
<stop offset="0.86" stop-color="#FEE0A3"/>
<stop offset="1" stop-color="#FEECA8"/>
</linearGradient>
<linearGradient id="paint67_linear" x1="344.828" y1="278.99" x2="348.088" y2="327.995" gradientUnits="userSpaceOnUse">
<stop stop-color="#25054D"/>
<stop offset="1" stop-color="#45108A"/>
</linearGradient>
<radialGradient id="paint68_radial" cx="0" cy="0" r="1" gradientUnits="userSpaceOnUse" gradientTransform="translate(354.711 309.054) scale(139.712 41.5874)">
<stop offset="0.096" stop-color="#FFE4A7"/>
<stop offset="0.421" stop-color="#F4BE4C"/>
<stop offset="0.672" stop-color="#ECA30A"/>
<stop offset="1"/>
</radialGradient>
<radialGradient id="paint69_radial" cx="0" cy="0" r="1" gradientUnits="userSpaceOnUse" gradientTransform="translate(192.14 310.225) scale(31.106 31.0878)">
<stop stop-color="white"/>
<stop offset="1"/>
</radialGradient>
<linearGradient id="paint70_linear" x1="338.026" y1="186.384" x2="407.397" y2="246.948" gradientUnits="userSpaceOnUse">
<stop stop-color="#25054D"/>
<stop offset="1" stop-color="#45108A"/>
</linearGradient>
<radialGradient id="paint71_radial" cx="0" cy="0" r="1" gradientUnits="userSpaceOnUse" gradientTransform="translate(299.977 135.322) scale(194.173 57.7995)">
<stop offset="0.096" stop-color="#45108A"/>
<stop offset="0.672" stop-color="#25054D"/>
<stop offset="1"/>
</radialGradient>
<radialGradient id="paint72_radial" cx="0" cy="0" r="1" gradientUnits="userSpaceOnUse" gradientTransform="translate(312.631 207.043) scale(10.5508)">
<stop offset="0.152" stop-color="#5213A6"/>
<stop offset="0.254" stop-color="#45108A"/>
<stop offset="0.796" stop-color="#25054D"/>
<stop offset="0.969" stop-color="#2D085C"/>
</radialGradient>
<radialGradient id="paint73_radial" cx="0" cy="0" r="1" gradientUnits="userSpaceOnUse" gradientTransform="translate(312.631 158.441) scale(10.5508)">
<stop offset="0.152" stop-color="#5213A6"/>
<stop offset="0.254" stop-color="#45108A"/>
<stop offset="0.796" stop-color="#25054D"/>
<stop offset="0.969" stop-color="#2D085C"/>
</radialGradient>
<radialGradient id="paint74_radial" cx="0" cy="0" r="1" gradientUnits="userSpaceOnUse" gradientTransform="translate(360.858 187.605) scale(10.5508)">
<stop offset="0.152" stop-color="#5213A6"/>
<stop offset="0.254" stop-color="#45108A"/>
<stop offset="0.796" stop-color="#25054D"/>
<stop offset="0.969" stop-color="#2D085C"/>
</radialGradient>
<radialGradient id="paint75_radial" cx="0" cy="0" r="1" gradientUnits="userSpaceOnUse" gradientTransform="translate(347.026 209.66) scale(10.5508)">
<stop offset="0.152" stop-color="#5213A6"/>
<stop offset="0.254" stop-color="#45108A"/>
<stop offset="0.796" stop-color="#25054D"/>
<stop offset="0.969" stop-color="#2D085C"/>
</radialGradient>
<radialGradient id="paint76_radial" cx="0" cy="0" r="1" gradientUnits="userSpaceOnUse" gradientTransform="translate(409.837 158.441) scale(10.5508)">
<stop offset="0.152" stop-color="#5213A6"/>
<stop offset="0.254" stop-color="#45108A"/>
<stop offset="0.796" stop-color="#25054D"/>
<stop offset="0.969" stop-color="#2D085C"/>
</radialGradient>
<radialGradient id="paint77_radial" cx="0" cy="0" r="1" gradientUnits="userSpaceOnUse" gradientTransform="translate(409.837 206.296) scale(10.5508)">
<stop offset="0.152" stop-color="#5213A6"/>
<stop offset="0.254" stop-color="#45108A"/>
<stop offset="0.796" stop-color="#25054D"/>
<stop offset="0.969" stop-color="#2D085C"/>
</radialGradient>
<radialGradient id="paint78_radial" cx="0" cy="0" r="1" gradientUnits="userSpaceOnUse" gradientTransform="translate(360.858 235.831) scale(10.5508)">
<stop offset="0.152" stop-color="#5213A6"/>
<stop offset="0.254" stop-color="#45108A"/>
<stop offset="0.796" stop-color="#25054D"/>
<stop offset="0.969" stop-color="#2D085C"/>
</radialGradient>
<radialGradient id="paint79_radial" cx="0" cy="0" r="1" gradientUnits="userSpaceOnUse" gradientTransform="translate(360.858 129.281) scale(10.5508)">
<stop offset="0.152" stop-color="#5213A6"/>
<stop offset="0.254" stop-color="#45108A"/>
<stop offset="0.796" stop-color="#25054D"/>
<stop offset="0.969" stop-color="#2D085C"/>
</radialGradient>
<radialGradient id="paint80_radial" cx="0" cy="0" r="1" gradientUnits="userSpaceOnUse" gradientTransform="translate(372.45 158.066) scale(10.5508)">
<stop offset="0.152" stop-color="#5213A6"/>
<stop offset="0.254" stop-color="#45108A"/>
<stop offset="0.796" stop-color="#25054D"/>
<stop offset="0.969" stop-color="#2D085C"/>
</radialGradient>
<radialGradient id="paint81_radial" cx="0" cy="0" r="1" gradientUnits="userSpaceOnUse" gradientTransform="translate(388.899 175.265) scale(10.5508)">
<stop offset="0.152" stop-color="#5213A6"/>
<stop offset="0.254" stop-color="#45108A"/>
<stop offset="0.796" stop-color="#25054D"/>
<stop offset="0.969" stop-color="#2D085C"/>
</radialGradient>
<radialGradient id="paint82_radial" cx="0" cy="0" r="1" gradientUnits="userSpaceOnUse" gradientTransform="translate(379.74 203.308) scale(10.5508)">
<stop offset="0.152" stop-color="#5213A6"/>
<stop offset="0.254" stop-color="#45108A"/>
<stop offset="0.796" stop-color="#25054D"/>
<stop offset="0.969" stop-color="#2D085C"/>
</radialGradient>
<radialGradient id="paint83_radial" cx="0" cy="0" r="1" gradientUnits="userSpaceOnUse" gradientTransform="translate(336.559 181.62) scale(10.5508)">
<stop offset="0.152" stop-color="#5213A6"/>
<stop offset="0.254" stop-color="#45108A"/>
<stop offset="0.796" stop-color="#25054D"/>
<stop offset="0.969" stop-color="#2D085C"/>
</radialGradient>
<radialGradient id="paint84_radial" cx="0" cy="0" r="1" gradientUnits="userSpaceOnUse" gradientTransform="translate(346.279 155.823) scale(10.5508)">
<stop offset="0.152" stop-color="#5213A6"/>
<stop offset="0.254" stop-color="#45108A"/>
<stop offset="0.796" stop-color="#25054D"/>
<stop offset="0.969" stop-color="#2D085C"/>
</radialGradient>
<linearGradient id="paint85_linear" x1="208.799" y1="186.964" x2="278.17" y2="247.528" gradientUnits="userSpaceOnUse">
<stop stop-color="#25054D"/>
<stop offset="1" stop-color="#45108A"/>
</linearGradient>
<radialGradient id="paint86_radial" cx="0" cy="0" r="1" gradientUnits="userSpaceOnUse" gradientTransform="translate(170.75 135.902) scale(194.173 57.7995)">
<stop offset="0.096" stop-color="#45108A"/>
<stop offset="0.672" stop-color="#25054D"/>
<stop offset="1"/>
</radialGradient>
<linearGradient id="paint87_linear" x1="271.02" y1="224.382" x2="340.391" y2="284.946" gradientUnits="userSpaceOnUse">
<stop stop-color="#25054D"/>
<stop offset="1" stop-color="#45108A"/>
</linearGradient>
<radialGradient id="paint88_radial" cx="0" cy="0" r="1" gradientUnits="userSpaceOnUse" gradientTransform="translate(232.971 173.319) scale(194.175 57.8006)">
<stop offset="0.096" stop-color="#45108A"/>
<stop offset="0.672" stop-color="#25054D"/>
<stop offset="1"/>
</radialGradient>
<linearGradient id="paint89_linear" x1="336.431" y1="261.802" x2="405.802" y2="322.366" gradientUnits="userSpaceOnUse">
<stop stop-color="#25054D"/>
<stop offset="1" stop-color="#45108A"/>
</linearGradient>
<radialGradient id="paint90_radial" cx="0" cy="0" r="1" gradientUnits="userSpaceOnUse" gradientTransform="translate(298.381 210.74) scale(208.495 62.0623)">
<stop offset="0.096" stop-color="#45108A"/>
<stop offset="0.672" stop-color="#25054D"/>
<stop offset="1"/>
</radialGradient>
<radialGradient id="paint91_radial" cx="0" cy="0" r="1" gradientUnits="userSpaceOnUse" gradientTransform="translate(365.623 310.656) scale(138.498 138.487)">
<stop stop-color="#FDD65B"/>
<stop offset="0.206" stop-color="#B0953F"/>
<stop offset="0.474" stop-color="#52451D"/>
<stop offset="0.663" stop-color="#171308"/>
<stop offset="0.753"/>
</radialGradient>
<radialGradient id="paint92_radial" cx="0" cy="0" r="1" gradientUnits="userSpaceOnUse" gradientTransform="translate(309.625 285.477) scale(95.3179 95.2868)">
<stop stop-color="#43E8E1"/>
<stop offset="0.162" stop-color="#32B0AB"/>
<stop offset="0.452" stop-color="#17524F"/>
<stop offset="0.656" stop-color="#061716"/>
<stop offset="0.753"/>
</radialGradient>
<linearGradient id="paint93_linear" x1="143.387" y1="224.961" x2="212.757" y2="285.525" gradientUnits="userSpaceOnUse">
<stop stop-color="#25054D"/>
<stop offset="1" stop-color="#45108A"/>
</linearGradient>
<radialGradient id="paint94_radial" cx="0" cy="0" r="1" gradientUnits="userSpaceOnUse" gradientTransform="translate(105.339 173.9) scale(194.173 57.8006)">
<stop offset="0.096" stop-color="#45108A"/>
<stop offset="0.672" stop-color="#25054D"/>
<stop offset="1"/>
</radialGradient>
<linearGradient id="paint95_linear" x1="207.204" y1="262.383" x2="276.575" y2="322.947" gradientUnits="userSpaceOnUse">
<stop stop-color="#25054D"/>
<stop offset="1" stop-color="#45108A"/>
</linearGradient>
<linearGradient id="paint96_linear" x1="187.382" y1="257.993" x2="319.716" y2="223.634" gradientUnits="userSpaceOnUse">
<stop stop-color="#25054D"/>
<stop offset="1" stop-color="#45108A"/>
</linearGradient>
<linearGradient id="paint97_linear" x1="172.641" y1="255.03" x2="222.054" y2="255.03" gradientUnits="userSpaceOnUse">
<stop stop-color="#25054D"/>
<stop offset="1" stop-color="#45108A"/>
</linearGradient>
<linearGradient id="paint98_linear" x1="56.6472" y1="273.88" x2="229.982" y2="240.054" gradientUnits="userSpaceOnUse">
<stop stop-color="#25054D"/>
<stop offset="1" stop-color="#45108A"/>
</linearGradient>
<linearGradient id="paint99_linear" x1="116.183" y1="255.001" x2="165.784" y2="255.001" gradientUnits="userSpaceOnUse">
<stop stop-color="#25054D"/>
<stop offset="1" stop-color="#45108A"/>
</linearGradient>
<linearGradient id="paint100_linear" x1="227.866" y1="112.889" x2="205.098" y2="240.452" gradientUnits="userSpaceOnUse">
<stop stop-color="#25054D"/>
<stop offset="1" stop-color="#45108A"/>
</linearGradient>
<linearGradient id="paint101_linear" x1="159.881" y1="247.094" x2="262.814" y2="193.667" gradientUnits="userSpaceOnUse">
<stop offset="0.03" stop-color="#7C1DC9"/>
<stop offset="0.214" stop-color="#6E41D1"/>
<stop offset="0.618" stop-color="#4C9BE8"/>
<stop offset="1" stop-color="#2AF6FF"/>
</linearGradient>
<linearGradient id="paint102_linear" x1="70.23" y1="252.77" x2="210.608" y2="197.992" gradientUnits="userSpaceOnUse">
<stop offset="0.035" stop-color="#138BBD"/>
<stop offset="0.226" stop-color="#169AC6"/>
<stop offset="0.595" stop-color="#1EC2DF"/>
<stop offset="1" stop-color="#2AF6FF"/>
</linearGradient>
<linearGradient id="paint103_linear" x1="187.382" y1="228.458" x2="319.716" y2="194.099" gradientUnits="userSpaceOnUse">
<stop stop-color="#25054D"/>
<stop offset="1" stop-color="#45108A"/>
</linearGradient>
<linearGradient id="paint104_linear" x1="56.6472" y1="244.345" x2="229.982" y2="210.518" gradientUnits="userSpaceOnUse">
<stop stop-color="#25054D"/>
<stop offset="1" stop-color="#45108A"/>
</linearGradient>
<linearGradient id="paint105_linear" x1="116.183" y1="225.465" x2="165.784" y2="225.465" gradientUnits="userSpaceOnUse">
<stop stop-color="#25054D"/>
<stop offset="1" stop-color="#45108A"/>
</linearGradient>
<radialGradient id="paint106_radial" cx="0" cy="0" r="1" gradientUnits="userSpaceOnUse" gradientTransform="translate(-32.3489 211.435) scale(57.7745 57.7204)">
<stop offset="0.096" stop-color="#45108A"/>
<stop offset="0.672" stop-color="#25054D"/>
<stop offset="1"/>
</radialGradient>
<linearGradient id="paint107_linear" x1="169.104" y1="164.74" x2="169.104" y2="213.14" gradientUnits="userSpaceOnUse">
<stop offset="0.03" stop-color="#7C1DC9"/>
<stop offset="0.214" stop-color="#6E41D1"/>
<stop offset="0.618" stop-color="#4C9BE8"/>
<stop offset="1" stop-color="#2AF6FF"/>
</linearGradient>
<radialGradient id="paint108_radial" cx="0" cy="0" r="1" gradientUnits="userSpaceOnUse" gradientTransform="translate(57.3172 219.271) scale(23.7601 23.7645)">
<stop stop-color="white"/>
<stop offset="1"/>
</radialGradient>
<linearGradient id="paint109_linear" x1="169.104" y1="219.798" x2="169.104" y2="86.7737" gradientUnits="userSpaceOnUse">
<stop stop-color="#1BB0D4"/>
<stop offset="0.054" stop-color="#189CBC"/>
<stop offset="0.183" stop-color="#11738B"/>
<stop offset="0.315" stop-color="#0C5060"/>
<stop offset="0.448" stop-color="#07333D"/>
<stop offset="0.581" stop-color="#041C22"/>
<stop offset="0.717" stop-color="#010C0F"/>
<stop offset="0.855" stop-color="#000303"/>
<stop offset="1"/>
</linearGradient>
<linearGradient id="paint110_linear" x1="271.02" y1="299.801" x2="340.391" y2="360.365" gradientUnits="userSpaceOnUse">
<stop stop-color="#25054D"/>
<stop offset="1" stop-color="#45108A"/>
</linearGradient>
<radialGradient id="paint111_radial" cx="0" cy="0" r="1" gradientUnits="userSpaceOnUse" gradientTransform="translate(232.971 248.74) scale(194.175 57.7995)">
<stop offset="0.096" stop-color="#45108A"/>
<stop offset="0.672" stop-color="#25054D"/>
<stop offset="1"/>
</radialGradient>
</defs>
</svg>
