<svg width="535" height="500" viewBox="0 0 535 500" fill="none" xmlns="http://www.w3.org/2000/svg">
<path d="M534.004 82.9512H209.016V396.336H534.004V82.9512Z" fill="#E0E0E0"/>
<path d="M534.004 88.7227H214.247V390.967H534.004V88.7227Z" fill="#F5F5F5"/>
<path d="M216.661 317.688V226.827H226.05V214.882L247.376 204.816V192.603H250.864V226.827H254.351V317.688H259.179V270.58H269.775V245.751H273.263V317.688H281.578V290.578H287.48V283.464H300.49V258.769H307.465V242.127H315.781V217.432H319.268V242.127H327.584V258.769H334.692V283.464H347.569V290.578H353.47V317.688H360.579V283.464H373.589V207.903H377.076V199.716H405.511V207.903H411.413V262.259H434.885V268.164H443.201V271.654H434.885V292.993H459.698V222.13H464.393V207.903H476.196V153.682H479.817V207.903H487.999V222.13H534.004V390.968H214.247V317.688H216.661Z" fill="#E6E6E6"/>
<path d="M509.459 225.752H506.105V229.107H509.459V225.752Z" fill="#F0F0F0"/>
<path d="M509.459 231.389H506.105V234.744H509.459V231.389Z" fill="#F0F0F0"/>
<path d="M509.459 253.803H506.105V257.158H509.459V253.803Z" fill="#F0F0F0"/>
<path d="M509.459 259.439H506.105V262.795H509.459V259.439Z" fill="#F0F0F0"/>
<path d="M509.459 265.076H506.105V268.431H509.459V265.076Z" fill="#F0F0F0"/>
<path d="M509.459 281.854H506.105V285.209H509.459V281.854Z" fill="#F0F0F0"/>
<path d="M509.459 287.49H506.105V290.846H509.459V287.49Z" fill="#F0F0F0"/>
<path d="M504.093 248.301H500.74V251.656H504.093V248.301Z" fill="#F0F0F0"/>
<path d="M504.093 253.803H500.74V257.158H504.093V253.803Z" fill="#F0F0F0"/>
<path d="M504.093 259.439H500.74V262.795H504.093V259.439Z" fill="#F0F0F0"/>
<path d="M504.093 265.076H500.74V268.431H504.093V265.076Z" fill="#F0F0F0"/>
<path d="M504.093 270.713H500.74V274.068H504.093V270.713Z" fill="#F0F0F0"/>
<path d="M504.093 281.854H500.74V285.209H504.093V281.854Z" fill="#F0F0F0"/>
<path d="M504.093 287.49H500.74V290.846H504.093V287.49Z" fill="#F0F0F0"/>
<path d="M498.863 225.752H495.51V229.107H498.863V225.752Z" fill="#F0F0F0"/>
<path d="M498.863 231.389H495.51V234.744H498.863V231.389Z" fill="#F0F0F0"/>
<path d="M498.863 237.027H495.51V240.383H498.863V237.027Z" fill="#F0F0F0"/>
<path d="M498.863 242.664H495.51V246.019H498.863V242.664Z" fill="#F0F0F0"/>
<path d="M498.863 248.301H495.51V251.656H498.863V248.301Z" fill="#F0F0F0"/>
<path d="M498.863 253.803H495.51V257.158H498.863V253.803Z" fill="#F0F0F0"/>
<path d="M498.863 259.439H495.51V262.795H498.863V259.439Z" fill="#F0F0F0"/>
<path d="M498.863 265.076H495.51V268.431H498.863V265.076Z" fill="#F0F0F0"/>
<path d="M498.863 270.713H495.51V274.068H498.863V270.713Z" fill="#F0F0F0"/>
<path d="M498.863 276.217H495.51V279.572H498.863V276.217Z" fill="#F0F0F0"/>
<path d="M498.863 287.49H495.51V290.846H498.863V287.49Z" fill="#F0F0F0"/>
<path d="M493.498 225.752H490.145V229.107H493.498V225.752Z" fill="#F0F0F0"/>
<path d="M493.498 231.389H490.145V234.744H493.498V231.389Z" fill="#F0F0F0"/>
<path d="M493.498 237.027H490.145V240.383H493.498V237.027Z" fill="#F0F0F0"/>
<path d="M493.498 242.664H490.145V246.019H493.498V242.664Z" fill="#F0F0F0"/>
<path d="M493.498 248.301H490.145V251.656H493.498V248.301Z" fill="#F0F0F0"/>
<path d="M493.498 253.803H490.145V257.158H493.498V253.803Z" fill="#F0F0F0"/>
<path d="M493.498 259.439H490.145V262.795H493.498V259.439Z" fill="#F0F0F0"/>
<path d="M493.498 309.904H490.145V313.26H493.498V309.904Z" fill="#F0F0F0"/>
<path d="M488.267 225.752H484.914V229.107H488.267V225.752Z" fill="#F0F0F0"/>
<path d="M488.267 231.389H484.914V234.744H488.267V231.389Z" fill="#F0F0F0"/>
<path d="M488.267 237.027H484.914V240.383H488.267V237.027Z" fill="#F0F0F0"/>
<path d="M488.267 242.664H484.914V246.019H488.267V242.664Z" fill="#F0F0F0"/>
<path d="M488.267 248.301H484.914V251.656H488.267V248.301Z" fill="#F0F0F0"/>
<path d="M488.267 253.803H484.914V257.158H488.267V253.803Z" fill="#F0F0F0"/>
<path d="M488.267 259.439H484.914V262.795H488.267V259.439Z" fill="#F0F0F0"/>
<path d="M488.267 265.076H484.914V268.431H488.267V265.076Z" fill="#F0F0F0"/>
<path d="M488.267 298.764H484.914V302.119H488.267V298.764Z" fill="#F0F0F0"/>
<path d="M488.267 304.266H484.914V307.621H488.267V304.266Z" fill="#F0F0F0"/>
<path d="M488.267 309.904H484.914V313.26H488.267V309.904Z" fill="#F0F0F0"/>
<path d="M488.267 315.541H484.914V318.896H488.267V315.541Z" fill="#F0F0F0"/>
<path d="M488.267 337.953H484.914V341.308H488.267V337.953Z" fill="#F0F0F0"/>
<path d="M482.902 225.752H479.548V229.107H482.902V225.752Z" fill="#F0F0F0"/>
<path d="M482.902 231.389H479.548V234.744H482.902V231.389Z" fill="#F0F0F0"/>
<path d="M482.902 237.027H479.548V240.383H482.902V237.027Z" fill="#F0F0F0"/>
<path d="M482.902 242.664H479.548V246.019H482.902V242.664Z" fill="#F0F0F0"/>
<path d="M482.902 248.301H479.548V251.656H482.902V248.301Z" fill="#F0F0F0"/>
<path d="M482.902 253.803H479.548V257.158H482.902V253.803Z" fill="#F0F0F0"/>
<path d="M482.902 259.439H479.548V262.795H482.902V259.439Z" fill="#F0F0F0"/>
<path d="M482.902 265.076H479.548V268.431H482.902V265.076Z" fill="#F0F0F0"/>
<path d="M482.902 270.713H479.548V274.068H482.902V270.713Z" fill="#F0F0F0"/>
<path d="M482.902 276.217H479.548V279.572H482.902V276.217Z" fill="#F0F0F0"/>
<path d="M482.902 293.127H479.548V296.482H482.902V293.127Z" fill="#F0F0F0"/>
<path d="M482.902 298.764H479.548V302.119H482.902V298.764Z" fill="#F0F0F0"/>
<path d="M482.902 304.266H479.548V307.621H482.902V304.266Z" fill="#F0F0F0"/>
<path d="M482.902 309.904H479.548V313.26H482.902V309.904Z" fill="#F0F0F0"/>
<path d="M482.902 315.541H479.548V318.896H482.902V315.541Z" fill="#F0F0F0"/>
<path d="M482.902 337.953H479.548V341.308H482.902V337.953Z" fill="#F0F0F0"/>
<path d="M477.671 225.752H474.318V229.107H477.671V225.752Z" fill="#F0F0F0"/>
<path d="M477.671 231.389H474.318V234.744H477.671V231.389Z" fill="#F0F0F0"/>
<path d="M477.671 237.027H474.318V240.383H477.671V237.027Z" fill="#F0F0F0"/>
<path d="M477.671 242.664H474.318V246.019H477.671V242.664Z" fill="#F0F0F0"/>
<path d="M477.671 248.301H474.318V251.656H477.671V248.301Z" fill="#F0F0F0"/>
<path d="M477.671 253.803H474.318V257.158H477.671V253.803Z" fill="#F0F0F0"/>
<path d="M477.671 259.439H474.318V262.795H477.671V259.439Z" fill="#F0F0F0"/>
<path d="M477.671 265.076H474.318V268.431H477.671V265.076Z" fill="#F0F0F0"/>
<path d="M477.671 270.713H474.318V274.068H477.671V270.713Z" fill="#F0F0F0"/>
<path d="M477.671 276.217H474.318V279.572H477.671V276.217Z" fill="#F0F0F0"/>
<path d="M477.671 281.854H474.318V285.209H477.671V281.854Z" fill="#F0F0F0"/>
<path d="M477.671 287.49H474.318V290.846H477.671V287.49Z" fill="#F0F0F0"/>
<path d="M477.671 293.127H474.318V296.482H477.671V293.127Z" fill="#F0F0F0"/>
<path d="M477.671 298.764H474.318V302.119H477.671V298.764Z" fill="#F0F0F0"/>
<path d="M477.671 304.266H474.318V307.621H477.671V304.266Z" fill="#F0F0F0"/>
<path d="M477.671 309.904H474.318V313.26H477.671V309.904Z" fill="#F0F0F0"/>
<path d="M477.671 315.541H474.318V318.896H477.671V315.541Z" fill="#F0F0F0"/>
<path d="M477.671 321.178H474.318V324.533H477.671V321.178Z" fill="#F0F0F0"/>
<path d="M472.306 225.752H468.953V229.107H472.306V225.752Z" fill="#F0F0F0"/>
<path d="M472.306 231.389H468.953V234.744H472.306V231.389Z" fill="#F0F0F0"/>
<path d="M472.306 237.027H468.953V240.383H472.306V237.027Z" fill="#F0F0F0"/>
<path d="M472.306 242.664H468.953V246.019H472.306V242.664Z" fill="#F0F0F0"/>
<path d="M472.306 248.301H468.953V251.656H472.306V248.301Z" fill="#F0F0F0"/>
<path d="M472.306 253.803H468.953V257.158H472.306V253.803Z" fill="#F0F0F0"/>
<path d="M472.306 259.439H468.953V262.795H472.306V259.439Z" fill="#F0F0F0"/>
<path d="M472.306 265.076H468.953V268.431H472.306V265.076Z" fill="#F0F0F0"/>
<path d="M472.306 270.713H468.953V274.068H472.306V270.713Z" fill="#F0F0F0"/>
<path d="M472.306 276.217H468.953V279.572H472.306V276.217Z" fill="#F0F0F0"/>
<path d="M472.306 293.127H468.953V296.482H472.306V293.127Z" fill="#F0F0F0"/>
<path d="M472.306 298.764H468.953V302.119H472.306V298.764Z" fill="#F0F0F0"/>
<path d="M472.306 304.266H468.953V307.621H472.306V304.266Z" fill="#F0F0F0"/>
<path d="M472.306 309.904H468.953V313.26H472.306V309.904Z" fill="#F0F0F0"/>
<path d="M466.942 225.752H463.588V229.107H466.942V225.752Z" fill="#F0F0F0"/>
<path d="M466.942 231.389H463.588V234.744H466.942V231.389Z" fill="#F0F0F0"/>
<path d="M466.942 237.027H463.588V240.383H466.942V237.027Z" fill="#F0F0F0"/>
<path d="M466.942 242.664H463.588V246.019H466.942V242.664Z" fill="#F0F0F0"/>
<path d="M466.942 248.301H463.588V251.656H466.942V248.301Z" fill="#F0F0F0"/>
<path d="M466.942 253.803H463.588V257.158H466.942V253.803Z" fill="#F0F0F0"/>
<path d="M466.942 259.439H463.588V262.795H466.942V259.439Z" fill="#F0F0F0"/>
<path d="M466.942 265.076H463.588V268.431H466.942V265.076Z" fill="#F0F0F0"/>
<path d="M466.942 270.713H463.588V274.068H466.942V270.713Z" fill="#F0F0F0"/>
<path d="M466.942 276.217H463.588V279.572H466.942V276.217Z" fill="#F0F0F0"/>
<path d="M466.942 293.127H463.588V296.482H466.942V293.127Z" fill="#F0F0F0"/>
<path d="M466.942 298.764H463.588V302.119H466.942V298.764Z" fill="#F0F0F0"/>
<path d="M466.942 304.266H463.588V307.621H466.942V304.266Z" fill="#F0F0F0"/>
<path d="M407.255 211.258H403.901V214.613H407.255V211.258Z" fill="#F0F0F0"/>
<path d="M407.255 216.895H403.901V220.25H407.255V216.895Z" fill="#F0F0F0"/>
<path d="M407.255 222.396H403.901V225.752H407.255V222.396Z" fill="#F0F0F0"/>
<path d="M407.255 228.035H403.901V231.39H407.255V228.035Z" fill="#F0F0F0"/>
<path d="M407.255 233.672H403.901V237.027H407.255V233.672Z" fill="#F0F0F0"/>
<path d="M407.255 239.309H403.901V242.664H407.255V239.309Z" fill="#F0F0F0"/>
<path d="M407.255 244.945H403.901V248.301H407.255V244.945Z" fill="#F0F0F0"/>
<path d="M407.255 250.447H403.901V253.803H407.255V250.447Z" fill="#F0F0F0"/>
<path d="M407.255 267.357H403.901V270.713H407.255V267.357Z" fill="#F0F0F0"/>
<path d="M407.255 272.996H403.901V276.351H407.255V272.996Z" fill="#F0F0F0"/>
<path d="M401.89 211.258H398.537V214.613H401.89V211.258Z" fill="#F0F0F0"/>
<path d="M401.89 216.895H398.537V220.25H401.89V216.895Z" fill="#F0F0F0"/>
<path d="M401.89 222.396H398.537V225.752H401.89V222.396Z" fill="#F0F0F0"/>
<path d="M401.89 228.035H398.537V231.39H401.89V228.035Z" fill="#F0F0F0"/>
<path d="M401.89 233.672H398.537V237.027H401.89V233.672Z" fill="#F0F0F0"/>
<path d="M401.89 239.309H398.537V242.664H401.89V239.309Z" fill="#F0F0F0"/>
<path d="M401.89 244.945H398.537V248.301H401.89V244.945Z" fill="#F0F0F0"/>
<path d="M401.89 250.447H398.537V253.803H401.89V250.447Z" fill="#F0F0F0"/>
<path d="M401.89 272.996H398.537V276.351H401.89V272.996Z" fill="#F0F0F0"/>
<path d="M396.525 211.258H393.171V214.613H396.525V211.258Z" fill="#F0F0F0"/>
<path d="M396.525 216.895H393.171V220.25H396.525V216.895Z" fill="#F0F0F0"/>
<path d="M396.525 222.396H393.171V225.752H396.525V222.396Z" fill="#F0F0F0"/>
<path d="M396.525 228.035H393.171V231.39H396.525V228.035Z" fill="#F0F0F0"/>
<path d="M396.525 233.672H393.171V237.027H396.525V233.672Z" fill="#F0F0F0"/>
<path d="M396.525 239.309H393.171V242.664H396.525V239.309Z" fill="#F0F0F0"/>
<path d="M396.525 244.945H393.171V248.301H396.525V244.945Z" fill="#F0F0F0"/>
<path d="M396.525 250.447H393.171V253.803H396.525V250.447Z" fill="#F0F0F0"/>
<path d="M391.294 211.258H387.941V214.613H391.294V211.258Z" fill="#F0F0F0"/>
<path d="M391.294 216.895H387.941V220.25H391.294V216.895Z" fill="#F0F0F0"/>
<path d="M391.294 222.396H387.941V225.752H391.294V222.396Z" fill="#F0F0F0"/>
<path d="M391.294 228.035H387.941V231.39H391.294V228.035Z" fill="#F0F0F0"/>
<path d="M391.294 233.672H387.941V237.027H391.294V233.672Z" fill="#F0F0F0"/>
<path d="M391.294 239.309H387.941V242.664H391.294V239.309Z" fill="#F0F0F0"/>
<path d="M391.294 250.447H387.941V253.803H391.294V250.447Z" fill="#F0F0F0"/>
<path d="M391.294 256.084H387.941V259.439H391.294V256.084Z" fill="#F0F0F0"/>
<path d="M391.294 272.996H387.941V276.351H391.294V272.996Z" fill="#F0F0F0"/>
<path d="M391.294 278.498H387.941V281.853H391.294V278.498Z" fill="#F0F0F0"/>
<path d="M391.294 284.135H387.941V287.49H391.294V284.135Z" fill="#F0F0F0"/>
<path d="M391.294 289.771H387.941V293.127H391.294V289.771Z" fill="#F0F0F0"/>
<path d="M391.294 295.408H387.941V298.763H391.294V295.408Z" fill="#F0F0F0"/>
<path d="M391.294 301.045H387.941V304.4H391.294V301.045Z" fill="#F0F0F0"/>
<path d="M391.294 306.549H387.941V309.904H391.294V306.549Z" fill="#F0F0F0"/>
<path d="M385.929 211.258H382.576V214.613H385.929V211.258Z" fill="#F0F0F0"/>
<path d="M385.929 216.895H382.576V220.25H385.929V216.895Z" fill="#F0F0F0"/>
<path d="M385.929 222.396H382.576V225.752H385.929V222.396Z" fill="#F0F0F0"/>
<path d="M385.929 228.035H382.576V231.39H385.929V228.035Z" fill="#F0F0F0"/>
<path d="M385.929 233.672H382.576V237.027H385.929V233.672Z" fill="#F0F0F0"/>
<path d="M385.929 239.309H382.576V242.664H385.929V239.309Z" fill="#F0F0F0"/>
<path d="M385.929 256.084H382.576V259.439H385.929V256.084Z" fill="#F0F0F0"/>
<path d="M385.929 261.721H382.576V265.076H385.929V261.721Z" fill="#F0F0F0"/>
<path d="M385.929 267.357H382.576V270.713H385.929V267.357Z" fill="#F0F0F0"/>
<path d="M385.929 272.996H382.576V276.351H385.929V272.996Z" fill="#F0F0F0"/>
<path d="M385.929 278.498H382.576V281.853H385.929V278.498Z" fill="#F0F0F0"/>
<path d="M385.929 284.135H382.576V287.49H385.929V284.135Z" fill="#F0F0F0"/>
<path d="M385.929 289.771H382.576V293.127H385.929V289.771Z" fill="#F0F0F0"/>
<path d="M385.929 295.408H382.576V298.763H385.929V295.408Z" fill="#F0F0F0"/>
<path d="M385.929 301.045H382.576V304.4H385.929V301.045Z" fill="#F0F0F0"/>
<path d="M385.929 306.549H382.576V309.904H385.929V306.549Z" fill="#F0F0F0"/>
<path d="M385.929 312.186H382.576V315.541H385.929V312.186Z" fill="#F0F0F0"/>
<path d="M385.929 323.459H382.576V326.814H385.929V323.459Z" fill="#F0F0F0"/>
<path d="M380.698 211.258H377.345V214.613H380.698V211.258Z" fill="#F0F0F0"/>
<path d="M380.698 216.895H377.345V220.25H380.698V216.895Z" fill="#F0F0F0"/>
<path d="M380.698 222.396H377.345V225.752H380.698V222.396Z" fill="#F0F0F0"/>
<path d="M380.698 228.035H377.345V231.39H380.698V228.035Z" fill="#F0F0F0"/>
<path d="M380.698 233.672H377.345V237.027H380.698V233.672Z" fill="#F0F0F0"/>
<path d="M380.698 239.309H377.345V242.664H380.698V239.309Z" fill="#F0F0F0"/>
<path d="M380.698 256.084H377.345V259.439H380.698V256.084Z" fill="#F0F0F0"/>
<path d="M380.698 261.721H377.345V265.076H380.698V261.721Z" fill="#F0F0F0"/>
<path d="M380.698 267.357H377.345V270.713H380.698V267.357Z" fill="#F0F0F0"/>
<path d="M380.698 272.996H377.345V276.351H380.698V272.996Z" fill="#F0F0F0"/>
<path d="M380.698 289.771H377.345V293.127H380.698V289.771Z" fill="#F0F0F0"/>
<path d="M380.698 295.408H377.345V298.763H380.698V295.408Z" fill="#F0F0F0"/>
<path d="M380.698 301.045H377.345V304.4H380.698V301.045Z" fill="#F0F0F0"/>
<path d="M380.698 306.549H377.345V309.904H380.698V306.549Z" fill="#F0F0F0"/>
<path d="M380.698 312.186H377.345V315.541H380.698V312.186Z" fill="#F0F0F0"/>
<path d="M380.698 323.459H377.345V326.814H380.698V323.459Z" fill="#F0F0F0"/>
<path d="M380.698 328.961H377.345V332.316H380.698V328.961Z" fill="#F0F0F0"/>
<path d="M332.412 263.332H329.059V266.687H332.412V263.332Z" fill="#F0F0F0"/>
<path d="M332.412 268.969H329.059V272.324H332.412V268.969Z" fill="#F0F0F0"/>
<path d="M332.412 274.605H329.059V277.961H332.412V274.605Z" fill="#F0F0F0"/>
<path d="M332.412 280.242H329.059V283.597H332.412V280.242Z" fill="#F0F0F0"/>
<path d="M332.412 285.879H329.059V289.234H332.412V285.879Z" fill="#F0F0F0"/>
<path d="M332.412 291.383H329.059V294.738H332.412V291.383Z" fill="#F0F0F0"/>
<path d="M332.412 297.02H329.059V300.375H332.412V297.02Z" fill="#F0F0F0"/>
<path d="M332.412 313.93H329.059V317.285H332.412V313.93Z" fill="#F0F0F0"/>
<path d="M332.412 319.432H329.059V322.787H332.412V319.432Z" fill="#F0F0F0"/>
<path d="M332.412 325.07H329.059V328.426H332.412V325.07Z" fill="#F0F0F0"/>
<path d="M327.182 263.332H323.829V266.687H327.182V263.332Z" fill="#F0F0F0"/>
<path d="M327.182 268.969H323.829V272.324H327.182V268.969Z" fill="#F0F0F0"/>
<path d="M327.182 274.605H323.829V277.961H327.182V274.605Z" fill="#F0F0F0"/>
<path d="M327.182 280.242H323.829V283.597H327.182V280.242Z" fill="#F0F0F0"/>
<path d="M327.182 285.879H323.829V289.234H327.182V285.879Z" fill="#F0F0F0"/>
<path d="M327.182 291.383H323.829V294.738H327.182V291.383Z" fill="#F0F0F0"/>
<path d="M327.182 297.02H323.829V300.375H327.182V297.02Z" fill="#F0F0F0"/>
<path d="M321.817 263.332H318.464V266.687H321.817V263.332Z" fill="#F0F0F0"/>
<path d="M321.817 268.969H318.464V272.324H321.817V268.969Z" fill="#F0F0F0"/>
<path d="M321.817 274.605H318.464V277.961H321.817V274.605Z" fill="#F0F0F0"/>
<path d="M321.817 280.242H318.464V283.597H321.817V280.242Z" fill="#F0F0F0"/>
<path d="M321.817 285.879H318.464V289.234H321.817V285.879Z" fill="#F0F0F0"/>
<path d="M321.817 291.383H318.464V294.738H321.817V291.383Z" fill="#F0F0F0"/>
<path d="M321.817 297.02H318.464V300.375H321.817V297.02Z" fill="#F0F0F0"/>
<path d="M316.586 263.332H313.232V266.687H316.586V263.332Z" fill="#F0F0F0"/>
<path d="M316.586 268.969H313.232V272.324H316.586V268.969Z" fill="#F0F0F0"/>
<path d="M316.586 274.605H313.232V277.961H316.586V274.605Z" fill="#F0F0F0"/>
<path d="M316.586 280.242H313.232V283.597H316.586V280.242Z" fill="#F0F0F0"/>
<path d="M316.586 285.879H313.232V289.234H316.586V285.879Z" fill="#F0F0F0"/>
<path d="M316.586 291.383H313.232V294.738H316.586V291.383Z" fill="#F0F0F0"/>
<path d="M316.586 297.02H313.232V300.375H316.586V297.02Z" fill="#F0F0F0"/>
<path d="M316.586 302.656H313.232V306.012H316.586V302.656Z" fill="#F0F0F0"/>
<path d="M316.586 308.293H313.232V311.648H316.586V308.293Z" fill="#F0F0F0"/>
<path d="M316.586 313.93H313.232V317.285H316.586V313.93Z" fill="#F0F0F0"/>
<path d="M316.586 319.432H313.232V322.787H316.586V319.432Z" fill="#F0F0F0"/>
<path d="M311.22 263.332H307.867V266.687H311.22V263.332Z" fill="#F0F0F0"/>
<path d="M311.22 268.969H307.867V272.324H311.22V268.969Z" fill="#F0F0F0"/>
<path d="M311.22 274.605H307.867V277.961H311.22V274.605Z" fill="#F0F0F0"/>
<path d="M311.22 280.242H307.867V283.597H311.22V280.242Z" fill="#F0F0F0"/>
<path d="M311.22 285.879H307.867V289.234H311.22V285.879Z" fill="#F0F0F0"/>
<path d="M311.22 291.383H307.867V294.738H311.22V291.383Z" fill="#F0F0F0"/>
<path d="M311.22 297.02H307.867V300.375H311.22V297.02Z" fill="#F0F0F0"/>
<path d="M311.22 302.656H307.867V306.012H311.22V302.656Z" fill="#F0F0F0"/>
<path d="M311.22 308.293H307.867V311.648H311.22V308.293Z" fill="#F0F0F0"/>
<path d="M311.22 313.93H307.867V317.285H311.22V313.93Z" fill="#F0F0F0"/>
<path d="M311.22 319.432H307.867V322.787H311.22V319.432Z" fill="#F0F0F0"/>
<path d="M311.22 325.07H307.867V328.426H311.22V325.07Z" fill="#F0F0F0"/>
<path d="M311.22 341.98H307.867V345.336H311.22V341.98Z" fill="#F0F0F0"/>
<path d="M311.22 347.482H307.867V350.838H311.22V347.482Z" fill="#F0F0F0"/>
<path d="M305.855 263.332H302.502V266.687H305.855V263.332Z" fill="#F0F0F0"/>
<path d="M305.855 268.969H302.502V272.324H305.855V268.969Z" fill="#F0F0F0"/>
<path d="M305.855 274.605H302.502V277.961H305.855V274.605Z" fill="#F0F0F0"/>
<path d="M305.855 291.383H302.502V294.738H305.855V291.383Z" fill="#F0F0F0"/>
<path d="M305.855 297.02H302.502V300.375H305.855V297.02Z" fill="#F0F0F0"/>
<path d="M305.855 302.656H302.502V306.012H305.855V302.656Z" fill="#F0F0F0"/>
<path d="M305.855 308.293H302.502V311.648H305.855V308.293Z" fill="#F0F0F0"/>
<path d="M305.855 313.93H302.502V317.285H305.855V313.93Z" fill="#F0F0F0"/>
<path d="M305.855 319.432H302.502V322.787H305.855V319.432Z" fill="#F0F0F0"/>
<path d="M305.855 325.07H302.502V328.426H305.855V325.07Z" fill="#F0F0F0"/>
<path d="M305.855 341.98H302.502V345.336H305.855V341.98Z" fill="#F0F0F0"/>
<path d="M305.855 347.482H302.502V350.838H305.855V347.482Z" fill="#F0F0F0"/>
<path d="M305.855 353.119H302.502V356.474H305.855V353.119Z" fill="#F0F0F0"/>
<path d="M250.194 229.779H246.84V233.135H250.194V229.779Z" fill="#F0F0F0"/>
<path d="M250.194 235.416H246.84V238.771H250.194V235.416Z" fill="#F0F0F0"/>
<path d="M250.194 240.918H246.84V244.273H250.194V240.918Z" fill="#F0F0F0"/>
<path d="M250.194 246.555H246.84V249.91H250.194V246.555Z" fill="#F0F0F0"/>
<path d="M250.194 252.191H246.84V255.547H250.194V252.191Z" fill="#F0F0F0"/>
<path d="M250.194 257.83H246.84V261.185H250.194V257.83Z" fill="#F0F0F0"/>
<path d="M250.194 263.332H246.84V266.687H250.194V263.332Z" fill="#F0F0F0"/>
<path d="M250.194 268.969H246.84V272.324H250.194V268.969Z" fill="#F0F0F0"/>
<path d="M250.194 274.605H246.84V277.961H250.194V274.605Z" fill="#F0F0F0"/>
<path d="M250.194 280.242H246.84V283.597H250.194V280.242Z" fill="#F0F0F0"/>
<path d="M250.194 285.879H246.84V289.234H250.194V285.879Z" fill="#F0F0F0"/>
<path d="M250.194 291.383H246.84V294.738H250.194V291.383Z" fill="#F0F0F0"/>
<path d="M250.194 297.02H246.84V300.375H250.194V297.02Z" fill="#F0F0F0"/>
<path d="M250.194 302.656H246.84V306.012H250.194V302.656Z" fill="#F0F0F0"/>
<path d="M250.194 308.293H246.84V311.648H250.194V308.293Z" fill="#F0F0F0"/>
<path d="M250.194 313.93H246.84V317.285H250.194V313.93Z" fill="#F0F0F0"/>
<path d="M250.194 319.432H246.84V322.787H250.194V319.432Z" fill="#F0F0F0"/>
<path d="M250.194 325.07H246.84V328.426H250.194V325.07Z" fill="#F0F0F0"/>
<path d="M250.194 330.707H246.84V334.062H250.194V330.707Z" fill="#F0F0F0"/>
<path d="M250.194 336.344H246.84V339.699H250.194V336.344Z" fill="#F0F0F0"/>
<path d="M250.194 341.98H246.84V345.336H250.194V341.98Z" fill="#F0F0F0"/>
<path d="M250.194 347.482H246.84V350.838H250.194V347.482Z" fill="#F0F0F0"/>
<path d="M250.194 353.119H246.84V356.474H250.194V353.119Z" fill="#F0F0F0"/>
<path d="M244.962 229.779H241.609V233.135H244.962V229.779Z" fill="#F0F0F0"/>
<path d="M244.962 235.416H241.609V238.771H244.962V235.416Z" fill="#F0F0F0"/>
<path d="M244.962 240.918H241.609V244.273H244.962V240.918Z" fill="#F0F0F0"/>
<path d="M244.962 246.555H241.609V249.91H244.962V246.555Z" fill="#F0F0F0"/>
<path d="M244.962 252.191H241.609V255.547H244.962V252.191Z" fill="#F0F0F0"/>
<path d="M244.962 257.83H241.609V261.185H244.962V257.83Z" fill="#F0F0F0"/>
<path d="M244.962 263.332H241.609V266.687H244.962V263.332Z" fill="#F0F0F0"/>
<path d="M244.962 268.969H241.609V272.324H244.962V268.969Z" fill="#F0F0F0"/>
<path d="M244.962 274.605H241.609V277.961H244.962V274.605Z" fill="#F0F0F0"/>
<path d="M244.962 280.242H241.609V283.597H244.962V280.242Z" fill="#F0F0F0"/>
<path d="M244.962 285.879H241.609V289.234H244.962V285.879Z" fill="#F0F0F0"/>
<path d="M244.962 291.383H241.609V294.738H244.962V291.383Z" fill="#F0F0F0"/>
<path d="M244.962 297.02H241.609V300.375H244.962V297.02Z" fill="#F0F0F0"/>
<path d="M244.962 302.656H241.609V306.012H244.962V302.656Z" fill="#F0F0F0"/>
<path d="M244.962 308.293H241.609V311.648H244.962V308.293Z" fill="#F0F0F0"/>
<path d="M244.962 313.93H241.609V317.285H244.962V313.93Z" fill="#F0F0F0"/>
<path d="M244.962 319.432H241.609V322.787H244.962V319.432Z" fill="#F0F0F0"/>
<path d="M244.962 325.07H241.609V328.426H244.962V325.07Z" fill="#F0F0F0"/>
<path d="M244.962 330.707H241.609V334.062H244.962V330.707Z" fill="#F0F0F0"/>
<path d="M239.597 229.779H236.244V233.135H239.597V229.779Z" fill="#F0F0F0"/>
<path d="M239.597 235.416H236.244V238.771H239.597V235.416Z" fill="#F0F0F0"/>
<path d="M239.597 240.918H236.244V244.273H239.597V240.918Z" fill="#F0F0F0"/>
<path d="M239.597 246.555H236.244V249.91H239.597V246.555Z" fill="#F0F0F0"/>
<path d="M239.597 252.191H236.244V255.547H239.597V252.191Z" fill="#F0F0F0"/>
<path d="M239.597 257.83H236.244V261.185H239.597V257.83Z" fill="#F0F0F0"/>
<path d="M239.597 263.332H236.244V266.687H239.597V263.332Z" fill="#F0F0F0"/>
<path d="M239.597 268.969H236.244V272.324H239.597V268.969Z" fill="#F0F0F0"/>
<path d="M239.597 274.605H236.244V277.961H239.597V274.605Z" fill="#F0F0F0"/>
<path d="M239.597 280.242H236.244V283.597H239.597V280.242Z" fill="#F0F0F0"/>
<path d="M239.597 285.879H236.244V289.234H239.597V285.879Z" fill="#F0F0F0"/>
<path d="M239.597 291.383H236.244V294.738H239.597V291.383Z" fill="#F0F0F0"/>
<path d="M239.597 297.02H236.244V300.375H239.597V297.02Z" fill="#F0F0F0"/>
<path d="M239.597 302.656H236.244V306.012H239.597V302.656Z" fill="#F0F0F0"/>
<path d="M239.597 308.293H236.244V311.648H239.597V308.293Z" fill="#F0F0F0"/>
<path d="M239.597 313.93H236.244V317.285H239.597V313.93Z" fill="#F0F0F0"/>
<path d="M239.597 319.432H236.244V322.787H239.597V319.432Z" fill="#F0F0F0"/>
<path d="M239.597 325.07H236.244V328.426H239.597V325.07Z" fill="#F0F0F0"/>
<path d="M239.597 330.707H236.244V334.062H239.597V330.707Z" fill="#F0F0F0"/>
<path d="M234.367 229.779H231.014V233.135H234.367V229.779Z" fill="#F0F0F0"/>
<path d="M234.367 235.416H231.014V238.771H234.367V235.416Z" fill="#F0F0F0"/>
<path d="M234.367 240.918H231.014V244.273H234.367V240.918Z" fill="#F0F0F0"/>
<path d="M234.367 246.555H231.014V249.91H234.367V246.555Z" fill="#F0F0F0"/>
<path d="M234.367 252.191H231.014V255.547H234.367V252.191Z" fill="#F0F0F0"/>
<path d="M234.367 257.83H231.014V261.185H234.367V257.83Z" fill="#F0F0F0"/>
<path d="M234.367 263.332H231.014V266.687H234.367V263.332Z" fill="#F0F0F0"/>
<path d="M234.367 268.969H231.014V272.324H234.367V268.969Z" fill="#F0F0F0"/>
<path d="M234.367 274.605H231.014V277.961H234.367V274.605Z" fill="#F0F0F0"/>
<path d="M234.367 280.242H231.014V283.597H234.367V280.242Z" fill="#F0F0F0"/>
<path d="M234.367 285.879H231.014V289.234H234.367V285.879Z" fill="#F0F0F0"/>
<path d="M234.367 291.383H231.014V294.738H234.367V291.383Z" fill="#F0F0F0"/>
<path d="M234.367 297.02H231.014V300.375H234.367V297.02Z" fill="#F0F0F0"/>
<path d="M234.367 302.656H231.014V306.012H234.367V302.656Z" fill="#F0F0F0"/>
<path d="M234.367 308.293H231.014V311.648H234.367V308.293Z" fill="#F0F0F0"/>
<path d="M229.002 229.779H225.648V233.135H229.002V229.779Z" fill="#F0F0F0"/>
<path d="M229.002 235.416H225.648V238.771H229.002V235.416Z" fill="#F0F0F0"/>
<path d="M229.002 240.918H225.648V244.273H229.002V240.918Z" fill="#F0F0F0"/>
<path d="M229.002 246.555H225.648V249.91H229.002V246.555Z" fill="#F0F0F0"/>
<path d="M229.002 252.191H225.648V255.547H229.002V252.191Z" fill="#F0F0F0"/>
<path d="M229.002 257.83H225.648V261.185H229.002V257.83Z" fill="#F0F0F0"/>
<path d="M229.002 263.332H225.648V266.687H229.002V263.332Z" fill="#F0F0F0"/>
<path d="M229.002 268.969H225.648V272.324H229.002V268.969Z" fill="#F0F0F0"/>
<path d="M229.002 274.605H225.648V277.961H229.002V274.605Z" fill="#F0F0F0"/>
<path d="M229.002 280.242H225.648V283.597H229.002V280.242Z" fill="#F0F0F0"/>
<path d="M229.002 285.879H225.648V289.234H229.002V285.879Z" fill="#F0F0F0"/>
<path d="M229.002 291.383H225.648V294.738H229.002V291.383Z" fill="#F0F0F0"/>
<path d="M229.002 297.02H225.648V300.375H229.002V297.02Z" fill="#F0F0F0"/>
<path d="M223.77 229.779H220.417V233.135H223.77V229.779Z" fill="#F0F0F0"/>
<path d="M223.77 235.416H220.417V238.771H223.77V235.416Z" fill="#F0F0F0"/>
<path d="M223.77 240.918H220.417V244.273H223.77V240.918Z" fill="#F0F0F0"/>
<path d="M223.77 246.555H220.417V249.91H223.77V246.555Z" fill="#F0F0F0"/>
<path d="M223.77 252.191H220.417V255.547H223.77V252.191Z" fill="#F0F0F0"/>
<path d="M223.77 257.83H220.417V261.185H223.77V257.83Z" fill="#F0F0F0"/>
<path d="M223.77 263.332H220.417V266.687H223.77V263.332Z" fill="#F0F0F0"/>
<path d="M223.77 268.969H220.417V272.324H223.77V268.969Z" fill="#F0F0F0"/>
<path d="M223.77 274.605H220.417V277.961H223.77V274.605Z" fill="#F0F0F0"/>
<path d="M223.77 280.242H220.417V283.597H223.77V280.242Z" fill="#F0F0F0"/>
<path d="M223.77 285.879H220.417V289.234H223.77V285.879Z" fill="#F0F0F0"/>
<path d="M223.77 291.383H220.417V294.738H223.77V291.383Z" fill="#F0F0F0"/>
<path d="M533.602 228.035H530.249V231.39H533.602V228.035Z" fill="#F0F0F0"/>
<path d="M533.602 233.672H530.249V237.027H533.602V233.672Z" fill="#F0F0F0"/>
<path d="M533.602 239.309H530.249V242.664H533.602V239.309Z" fill="#F0F0F0"/>
<path d="M533.602 244.945H530.249V248.301H533.602V244.945Z" fill="#F0F0F0"/>
<path d="M533.602 250.447H530.249V253.803H533.602V250.447Z" fill="#F0F0F0"/>
<path d="M533.602 256.084H530.249V259.439H533.602V256.084Z" fill="#F0F0F0"/>
<path d="M533.602 261.721H530.249V265.076H533.602V261.721Z" fill="#F0F0F0"/>
<path d="M533.602 267.357H530.249V270.713H533.602V267.357Z" fill="#F0F0F0"/>
<path d="M533.602 272.996H530.249V276.351H533.602V272.996Z" fill="#F0F0F0"/>
<path d="M533.602 278.498H530.249V281.853H533.602V278.498Z" fill="#F0F0F0"/>
<path d="M533.602 284.135H530.249V287.49H533.602V284.135Z" fill="#F0F0F0"/>
<path d="M533.602 289.771H530.249V293.127H533.602V289.771Z" fill="#F0F0F0"/>
<path d="M533.602 295.408H530.249V298.763H533.602V295.408Z" fill="#F0F0F0"/>
<path d="M533.602 301.045H530.249V304.4H533.602V301.045Z" fill="#F0F0F0"/>
<path d="M533.602 306.549H530.249V309.904H533.602V306.549Z" fill="#F0F0F0"/>
<path d="M533.602 312.186H530.249V315.541H533.602V312.186Z" fill="#F0F0F0"/>
<path d="M533.602 317.822H530.249V321.178H533.602V317.822Z" fill="#F0F0F0"/>
<path d="M533.602 328.961H530.249V332.316H533.602V328.961Z" fill="#F0F0F0"/>
<path d="M533.602 334.598H530.249V337.953H533.602V334.598Z" fill="#F0F0F0"/>
<path d="M533.602 340.234H530.249V343.59H533.602V340.234Z" fill="#F0F0F0"/>
<path d="M533.602 345.873H530.249V349.228H533.602V345.873Z" fill="#F0F0F0"/>
<path d="M533.602 351.51H530.249V354.865H533.602V351.51Z" fill="#F0F0F0"/>
<path d="M528.371 228.035H525.018V231.39H528.371V228.035Z" fill="#F0F0F0"/>
<path d="M528.371 233.672H525.018V237.027H528.371V233.672Z" fill="#F0F0F0"/>
<path d="M528.371 239.309H525.018V242.664H528.371V239.309Z" fill="#F0F0F0"/>
<path d="M528.371 244.945H525.018V248.301H528.371V244.945Z" fill="#F0F0F0"/>
<path d="M528.371 250.447H525.018V253.803H528.371V250.447Z" fill="#F0F0F0"/>
<path d="M528.371 256.084H525.018V259.439H528.371V256.084Z" fill="#F0F0F0"/>
<path d="M528.371 261.721H525.018V265.076H528.371V261.721Z" fill="#F0F0F0"/>
<path d="M528.371 267.357H525.018V270.713H528.371V267.357Z" fill="#F0F0F0"/>
<path d="M528.371 272.996H525.018V276.351H528.371V272.996Z" fill="#F0F0F0"/>
<path d="M528.371 278.498H525.018V281.853H528.371V278.498Z" fill="#F0F0F0"/>
<path d="M528.371 284.135H525.018V287.49H528.371V284.135Z" fill="#F0F0F0"/>
<path d="M528.371 289.771H525.018V293.127H528.371V289.771Z" fill="#F0F0F0"/>
<path d="M528.371 295.408H525.018V298.763H528.371V295.408Z" fill="#F0F0F0"/>
<path d="M528.371 301.045H525.018V304.4H528.371V301.045Z" fill="#F0F0F0"/>
<path d="M528.371 306.549H525.018V309.904H528.371V306.549Z" fill="#F0F0F0"/>
<path d="M528.371 312.186H525.018V315.541H528.371V312.186Z" fill="#F0F0F0"/>
<path d="M528.371 345.873H525.018V349.228H528.371V345.873Z" fill="#F0F0F0"/>
<path d="M528.371 351.51H525.018V354.865H528.371V351.51Z" fill="#F0F0F0"/>
<path d="M523.005 228.035H519.652V231.39H523.005V228.035Z" fill="#F0F0F0"/>
<path d="M523.005 233.672H519.652V237.027H523.005V233.672Z" fill="#F0F0F0"/>
<path d="M523.005 239.309H519.652V242.664H523.005V239.309Z" fill="#F0F0F0"/>
<path d="M523.005 244.945H519.652V248.301H523.005V244.945Z" fill="#F0F0F0"/>
<path d="M523.005 250.447H519.652V253.803H523.005V250.447Z" fill="#F0F0F0"/>
<path d="M523.005 256.084H519.652V259.439H523.005V256.084Z" fill="#F0F0F0"/>
<path d="M523.005 261.721H519.652V265.076H523.005V261.721Z" fill="#F0F0F0"/>
<path d="M523.005 267.357H519.652V270.713H523.005V267.357Z" fill="#F0F0F0"/>
<path d="M523.005 272.996H519.652V276.351H523.005V272.996Z" fill="#F0F0F0"/>
<path d="M523.005 278.498H519.652V281.853H523.005V278.498Z" fill="#F0F0F0"/>
<path d="M523.005 284.135H519.652V287.49H523.005V284.135Z" fill="#F0F0F0"/>
<path d="M523.005 289.771H519.652V293.127H523.005V289.771Z" fill="#F0F0F0"/>
<path d="M523.005 295.408H519.652V298.763H523.005V295.408Z" fill="#F0F0F0"/>
<path d="M523.005 301.045H519.652V304.4H523.005V301.045Z" fill="#F0F0F0"/>
<path d="M523.005 306.549H519.652V309.904H523.005V306.549Z" fill="#F0F0F0"/>
<path d="M523.005 312.186H519.652V315.541H523.005V312.186Z" fill="#F0F0F0"/>
<path d="M523.005 323.459H519.652V326.814H523.005V323.459Z" fill="#F0F0F0"/>
<path d="M523.005 328.961H519.652V332.316H523.005V328.961Z" fill="#F0F0F0"/>
<path d="M523.005 334.598H519.652V337.953H523.005V334.598Z" fill="#F0F0F0"/>
<path d="M523.005 340.234H519.652V343.59H523.005V340.234Z" fill="#F0F0F0"/>
<path d="M523.005 351.51H519.652V354.865H523.005V351.51Z" fill="#F0F0F0"/>
<path d="M430.459 267.357H427.105V270.713H430.459V267.357Z" fill="#F0F0F0"/>
<path d="M430.459 272.996H427.105V276.351H430.459V272.996Z" fill="#F0F0F0"/>
<path d="M430.459 278.498H427.105V281.853H430.459V278.498Z" fill="#F0F0F0"/>
<path d="M430.459 284.135H427.105V287.49H430.459V284.135Z" fill="#F0F0F0"/>
<path d="M430.459 289.771H427.105V293.127H430.459V289.771Z" fill="#F0F0F0"/>
<path d="M430.459 295.408H427.105V298.763H430.459V295.408Z" fill="#F0F0F0"/>
<path d="M430.459 301.045H427.105V304.4H430.459V301.045Z" fill="#F0F0F0"/>
<path d="M430.459 306.549H427.105V309.904H430.459V306.549Z" fill="#F0F0F0"/>
<path d="M430.459 312.186H427.105V315.541H430.459V312.186Z" fill="#F0F0F0"/>
<path d="M430.459 317.822H427.105V321.178H430.459V317.822Z" fill="#F0F0F0"/>
<path d="M430.459 323.459H427.105V326.814H430.459V323.459Z" fill="#F0F0F0"/>
<path d="M430.459 328.961H427.105V332.316H430.459V328.961Z" fill="#F0F0F0"/>
<path d="M430.459 334.598H427.105V337.953H430.459V334.598Z" fill="#F0F0F0"/>
<path d="M430.459 345.873H427.105V349.228H430.459V345.873Z" fill="#F0F0F0"/>
<path d="M430.459 351.51H427.105V354.865H430.459V351.51Z" fill="#F0F0F0"/>
<path d="M430.459 357.012H427.105V360.367H430.459V357.012Z" fill="#F0F0F0"/>
<path d="M430.459 362.648H427.105V366.004H430.459V362.648Z" fill="#F0F0F0"/>
<path d="M430.459 373.922H427.105V377.277H430.459V373.922Z" fill="#F0F0F0"/>
<path d="M430.459 379.559H427.105V382.914H430.459V379.559Z" fill="#F0F0F0"/>
<path d="M430.459 385.062H427.105V388.418H430.459V385.062Z" fill="#F0F0F0"/>
<path d="M425.094 267.357H421.741V270.713H425.094V267.357Z" fill="#F0F0F0"/>
<path d="M425.094 272.996H421.741V276.351H425.094V272.996Z" fill="#F0F0F0"/>
<path d="M425.094 278.498H421.741V281.853H425.094V278.498Z" fill="#F0F0F0"/>
<path d="M425.094 284.135H421.741V287.49H425.094V284.135Z" fill="#F0F0F0"/>
<path d="M425.094 289.771H421.741V293.127H425.094V289.771Z" fill="#F0F0F0"/>
<path d="M425.094 295.408H421.741V298.763H425.094V295.408Z" fill="#F0F0F0"/>
<path d="M425.094 301.045H421.741V304.4H425.094V301.045Z" fill="#F0F0F0"/>
<path d="M425.094 306.549H421.741V309.904H425.094V306.549Z" fill="#F0F0F0"/>
<path d="M425.094 312.186H421.741V315.541H425.094V312.186Z" fill="#F0F0F0"/>
<path d="M425.094 317.822H421.741V321.178H425.094V317.822Z" fill="#F0F0F0"/>
<path d="M425.094 323.459H421.741V326.814H425.094V323.459Z" fill="#F0F0F0"/>
<path d="M425.094 328.961H421.741V332.316H425.094V328.961Z" fill="#F0F0F0"/>
<path d="M425.094 334.598H421.741V337.953H425.094V334.598Z" fill="#F0F0F0"/>
<path d="M425.094 351.51H421.741V354.865H425.094V351.51Z" fill="#F0F0F0"/>
<path d="M425.094 357.012H421.741V360.367H425.094V357.012Z" fill="#F0F0F0"/>
<path d="M425.094 368.285H421.741V371.64H425.094V368.285Z" fill="#F0F0F0"/>
<path d="M425.094 373.922H421.741V377.277H425.094V373.922Z" fill="#F0F0F0"/>
<path d="M425.094 379.559H421.741V382.914H425.094V379.559Z" fill="#F0F0F0"/>
<path d="M425.094 385.062H421.741V388.418H425.094V385.062Z" fill="#F0F0F0"/>
<path d="M419.729 267.357H416.375V270.713H419.729V267.357Z" fill="#F0F0F0"/>
<path d="M419.729 272.996H416.375V276.351H419.729V272.996Z" fill="#F0F0F0"/>
<path d="M419.729 278.498H416.375V281.853H419.729V278.498Z" fill="#F0F0F0"/>
<path d="M419.729 284.135H416.375V287.49H419.729V284.135Z" fill="#F0F0F0"/>
<path d="M419.729 289.771H416.375V293.127H419.729V289.771Z" fill="#F0F0F0"/>
<path d="M419.729 295.408H416.375V298.763H419.729V295.408Z" fill="#F0F0F0"/>
<path d="M419.729 301.045H416.375V304.4H419.729V301.045Z" fill="#F0F0F0"/>
<path d="M419.729 306.549H416.375V309.904H419.729V306.549Z" fill="#F0F0F0"/>
<path d="M419.729 312.186H416.375V315.541H419.729V312.186Z" fill="#F0F0F0"/>
<path d="M419.729 317.822H416.375V321.178H419.729V317.822Z" fill="#F0F0F0"/>
<path d="M419.729 323.459H416.375V326.814H419.729V323.459Z" fill="#F0F0F0"/>
<path d="M419.729 328.961H416.375V332.316H419.729V328.961Z" fill="#F0F0F0"/>
<path d="M419.729 334.598H416.375V337.953H419.729V334.598Z" fill="#F0F0F0"/>
<path d="M419.729 340.234H416.375V343.59H419.729V340.234Z" fill="#F0F0F0"/>
<path d="M419.729 351.51H416.375V354.865H419.729V351.51Z" fill="#F0F0F0"/>
<path d="M419.729 362.648H416.375V366.004H419.729V362.648Z" fill="#F0F0F0"/>
<path d="M419.729 368.285H416.375V371.64H419.729V368.285Z" fill="#F0F0F0"/>
<path d="M419.729 373.922H416.375V377.277H419.729V373.922Z" fill="#F0F0F0"/>
<path d="M419.729 379.559H416.375V382.914H419.729V379.559Z" fill="#F0F0F0"/>
<path d="M419.729 385.062H416.375V388.418H419.729V385.062Z" fill="#F0F0F0"/>
<path d="M452.053 299.301H448.7V302.656H452.053V299.301Z" fill="#F0F0F0"/>
<path d="M452.053 304.938H448.7V308.293H452.053V304.938Z" fill="#F0F0F0"/>
<path d="M452.053 310.574H448.7V313.93H452.053V310.574Z" fill="#F0F0F0"/>
<path d="M452.053 316.076H448.7V319.432H452.053V316.076Z" fill="#F0F0F0"/>
<path d="M452.053 321.715H448.7V325.07H452.053V321.715Z" fill="#F0F0F0"/>
<path d="M452.053 327.352H448.7V330.707H452.053V327.352Z" fill="#F0F0F0"/>
<path d="M452.053 344.127H448.7V347.482H452.053V344.127Z" fill="#F0F0F0"/>
<path d="M452.053 349.764H448.7V353.119H452.053V349.764Z" fill="#F0F0F0"/>
<path d="M452.053 355.4H448.7V358.756H452.053V355.4Z" fill="#F0F0F0"/>
<path d="M452.053 361.037H448.7V364.392H452.053V361.037Z" fill="#F0F0F0"/>
<path d="M452.053 366.676H448.7V370.031H452.053V366.676Z" fill="#F0F0F0"/>
<path d="M452.053 372.178H448.7V375.533H452.053V372.178Z" fill="#F0F0F0"/>
<path d="M452.053 377.814H448.7V381.17H452.053V377.814Z" fill="#F0F0F0"/>
<path d="M446.688 299.301H443.334V302.656H446.688V299.301Z" fill="#F0F0F0"/>
<path d="M446.688 304.938H443.334V308.293H446.688V304.938Z" fill="#F0F0F0"/>
<path d="M446.688 310.574H443.334V313.93H446.688V310.574Z" fill="#F0F0F0"/>
<path d="M446.688 316.076H443.334V319.432H446.688V316.076Z" fill="#F0F0F0"/>
<path d="M446.688 321.715H443.334V325.07H446.688V321.715Z" fill="#F0F0F0"/>
<path d="M446.688 327.352H443.334V330.707H446.688V327.352Z" fill="#F0F0F0"/>
<path d="M446.688 344.127H443.334V347.482H446.688V344.127Z" fill="#F0F0F0"/>
<path d="M446.688 349.764H443.334V353.119H446.688V349.764Z" fill="#F0F0F0"/>
<path d="M446.688 355.4H443.334V358.756H446.688V355.4Z" fill="#F0F0F0"/>
<path d="M446.688 361.037H443.334V364.392H446.688V361.037Z" fill="#F0F0F0"/>
<path d="M446.688 366.676H443.334V370.031H446.688V366.676Z" fill="#F0F0F0"/>
<path d="M446.688 372.178H443.334V375.533H446.688V372.178Z" fill="#F0F0F0"/>
<path d="M446.688 383.451H443.334V386.806H446.688V383.451Z" fill="#F0F0F0"/>
<path d="M270.312 274.605H266.959V277.961H270.312V274.605Z" fill="#F0F0F0"/>
<path d="M270.312 280.242H266.959V283.597H270.312V280.242Z" fill="#F0F0F0"/>
<path d="M270.312 285.879H266.959V289.234H270.312V285.879Z" fill="#F0F0F0"/>
<path d="M270.312 291.383H266.959V294.738H270.312V291.383Z" fill="#F0F0F0"/>
<path d="M270.312 297.02H266.959V300.375H270.312V297.02Z" fill="#F0F0F0"/>
<path d="M270.312 302.656H266.959V306.012H270.312V302.656Z" fill="#F0F0F0"/>
<path d="M270.312 308.293H266.959V311.648H270.312V308.293Z" fill="#F0F0F0"/>
<path d="M270.312 313.93H266.959V317.285H270.312V313.93Z" fill="#F0F0F0"/>
<path d="M270.312 319.432H266.959V322.787H270.312V319.432Z" fill="#F0F0F0"/>
<path d="M270.312 325.07H266.959V328.426H270.312V325.07Z" fill="#F0F0F0"/>
<path d="M270.312 330.707H266.959V334.062H270.312V330.707Z" fill="#F0F0F0"/>
<path d="M270.312 341.98H266.959V345.336H270.312V341.98Z" fill="#F0F0F0"/>
<path d="M270.312 347.482H266.959V350.838H270.312V347.482Z" fill="#F0F0F0"/>
<path d="M270.312 353.119H266.959V356.474H270.312V353.119Z" fill="#F0F0F0"/>
<path d="M270.312 358.756H266.959V362.111H270.312V358.756Z" fill="#F0F0F0"/>
<path d="M270.312 364.393H266.959V367.748H270.312V364.393Z" fill="#F0F0F0"/>
<path d="M270.312 369.896H266.959V373.252H270.312V369.896Z" fill="#F0F0F0"/>
<path d="M270.312 375.533H266.959V378.889H270.312V375.533Z" fill="#F0F0F0"/>
<path d="M270.312 381.17H266.959V384.525H270.312V381.17Z" fill="#F0F0F0"/>
<path d="M264.947 274.605H261.594V277.961H264.947V274.605Z" fill="#F0F0F0"/>
<path d="M264.947 280.242H261.594V283.597H264.947V280.242Z" fill="#F0F0F0"/>
<path d="M264.947 285.879H261.594V289.234H264.947V285.879Z" fill="#F0F0F0"/>
<path d="M264.947 291.383H261.594V294.738H264.947V291.383Z" fill="#F0F0F0"/>
<path d="M264.947 297.02H261.594V300.375H264.947V297.02Z" fill="#F0F0F0"/>
<path d="M264.947 302.656H261.594V306.012H264.947V302.656Z" fill="#F0F0F0"/>
<path d="M264.947 308.293H261.594V311.648H264.947V308.293Z" fill="#F0F0F0"/>
<path d="M264.947 313.93H261.594V317.285H264.947V313.93Z" fill="#F0F0F0"/>
<path d="M264.947 319.432H261.594V322.787H264.947V319.432Z" fill="#F0F0F0"/>
<path d="M264.947 325.07H261.594V328.426H264.947V325.07Z" fill="#F0F0F0"/>
<path d="M264.947 330.707H261.594V334.062H264.947V330.707Z" fill="#F0F0F0"/>
<path d="M264.947 336.344H261.594V339.699H264.947V336.344Z" fill="#F0F0F0"/>
<path d="M264.947 341.98H261.594V345.336H264.947V341.98Z" fill="#F0F0F0"/>
<path d="M264.947 347.482H261.594V350.838H264.947V347.482Z" fill="#F0F0F0"/>
<path d="M264.947 353.119H261.594V356.474H264.947V353.119Z" fill="#F0F0F0"/>
<path d="M264.947 358.756H261.594V362.111H264.947V358.756Z" fill="#F0F0F0"/>
<path d="M264.947 364.393H261.594V367.748H264.947V364.393Z" fill="#F0F0F0"/>
<path d="M264.947 369.896H261.594V373.252H264.947V369.896Z" fill="#F0F0F0"/>
<path d="M264.947 375.533H261.594V378.889H264.947V375.533Z" fill="#F0F0F0"/>
<path d="M264.947 381.17H261.594V384.525H264.947V381.17Z" fill="#F0F0F0"/>
<path d="M296.466 296.482H293.113V299.838H296.466V296.482Z" fill="#F0F0F0"/>
<path d="M296.466 302.119H293.113V305.474H296.466V302.119Z" fill="#F0F0F0"/>
<path d="M296.466 307.621H293.113V310.976H296.466V307.621Z" fill="#F0F0F0"/>
<path d="M296.466 313.258H293.113V316.613H296.466V313.258Z" fill="#F0F0F0"/>
<path d="M296.466 318.896H293.113V322.252H296.466V318.896Z" fill="#F0F0F0"/>
<path d="M296.466 324.533H293.113V327.888H296.466V324.533Z" fill="#F0F0F0"/>
<path d="M296.466 330.17H293.113V333.525H296.466V330.17Z" fill="#F0F0F0"/>
<path d="M296.466 335.672H293.113V339.027H296.466V335.672Z" fill="#F0F0F0"/>
<path d="M296.466 341.309H293.113V344.664H296.466V341.309Z" fill="#F0F0F0"/>
<path d="M296.466 346.945H293.113V350.301H296.466V346.945Z" fill="#F0F0F0"/>
<path d="M291.102 296.482H287.749V299.838H291.102V296.482Z" fill="#F0F0F0"/>
<path d="M291.102 302.119H287.749V305.474H291.102V302.119Z" fill="#F0F0F0"/>
<path d="M291.102 307.621H287.749V310.976H291.102V307.621Z" fill="#F0F0F0"/>
<path d="M291.102 313.258H287.749V316.613H291.102V313.258Z" fill="#F0F0F0"/>
<path d="M291.102 318.896H287.749V322.252H291.102V318.896Z" fill="#F0F0F0"/>
<path d="M291.102 324.533H287.749V327.888H291.102V324.533Z" fill="#F0F0F0"/>
<path d="M291.102 330.17H287.749V333.525H291.102V330.17Z" fill="#F0F0F0"/>
<path d="M291.102 335.672H287.749V339.027H291.102V335.672Z" fill="#F0F0F0"/>
<path d="M291.102 341.309H287.749V344.664H291.102V341.309Z" fill="#F0F0F0"/>
<path d="M322.755 83.623H317.122V396.471H322.755V83.623Z" fill="#E0E0E0"/>
<path d="M428.313 83.623H422.68V396.471H428.313V83.623Z" fill="#E0E0E0"/>
<path d="M533.87 83.623H528.236V396.471H533.87V83.623Z" fill="#E0E0E0"/>
<path d="M175.351 438.747H128.943V371.909C128.943 368.688 131.625 366.004 134.844 366.004H169.449C172.668 366.004 175.351 368.688 175.351 371.909V438.747Z" fill="#F0F0F0"/>
<path d="M175.351 375.801H128.943V381.035H175.351V375.801Z" fill="#E6E6E6"/>
<path d="M166.901 430.023H155.366C153.622 430.023 152.147 431.5 152.147 433.245V438.881H170.12V433.245C170.12 431.366 168.644 430.023 166.901 430.023Z" fill="#E0E0E0"/>
<path d="M170.119 438.747H157.243C156.17 438.747 155.231 437.808 155.231 436.734C155.231 435.66 156.17 434.721 157.243 434.721H170.119C171.192 434.721 172.131 435.66 172.131 436.734C172.265 437.808 171.326 438.747 170.119 438.747Z" fill="#E6E6E6"/>
<path d="M376.146 68.9282C393.159 64.9083 403.694 47.8486 399.677 30.8244C395.66 13.8002 378.611 3.25807 361.597 7.27797C344.584 11.2979 334.049 28.3575 338.066 45.3817C342.083 62.406 359.132 72.9481 376.146 68.9282Z" fill="#E0E0E0"/>
<path d="M373.196 64.6139C387.82 62.239 397.751 48.451 395.377 33.8177C393.004 19.1843 379.225 9.24683 364.601 11.6217C349.977 13.9966 340.046 27.7846 342.419 42.418C344.792 57.0513 358.572 66.9888 373.196 64.6139Z" fill="#F0F0F0"/>
<path d="M370.103 19.7383V38.5279L382.576 31.4147" fill="#F0F0F0"/>
<path d="M370.103 19.7383V38.5279L382.576 31.4147" stroke="#E0E0E0" stroke-width="2" stroke-miterlimit="10" stroke-linecap="round" stroke-linejoin="round"/>
<path d="M66.574 346.678C64.1598 342.652 60.136 346.141 60.136 346.141C60.6725 338.491 53.6979 333.257 53.6979 333.257C53.6979 333.257 61.8796 333.257 62.9526 325.473C64.0256 317.688 60.136 321.312 56.3805 321.312C52.6249 321.312 48.7353 332.183 53.6979 338.357C58.6606 344.531 57.3193 354.999 45.9186 365.065C43.1019 367.481 41.2242 370.836 40.017 374.326C40.8218 365.065 41.3583 352.046 38.6758 343.323C34.1155 328.559 42.8337 324.533 45.3821 317.151C47.9305 309.77 38.6758 303.462 38.6758 303.462C38.6758 303.462 47.394 299.435 43.1019 294.872C38.8099 290.309 30.0917 290.98 30.0917 296.885C30.0917 302.791 35.9933 305.072 35.9933 305.072C35.9933 305.072 42.8337 312.186 42.8337 315.809C42.8337 319.567 35.9933 327.486 35.9933 327.486C35.9933 327.486 39.0782 320.641 32.9084 320.373C26.6044 320.104 24.7266 328.291 27.275 332.049C29.8234 335.807 34.1155 332.586 34.1155 332.586C34.1155 332.586 34.652 340.504 36.1274 345.336C36.798 347.483 36.5298 355.804 35.9933 364.528C34.7861 361.441 32.9083 358.489 30.4941 356.341C19.0933 346.275 17.7521 335.807 22.7147 329.633C27.6774 323.459 23.7878 312.588 20.0322 312.588C16.2767 312.588 12.387 308.965 13.46 316.749C14.533 324.533 22.7147 324.533 22.7147 324.533C22.7147 324.533 15.7402 329.767 16.2767 337.417C16.2767 337.417 12.2529 333.928 9.83863 337.954C5.54659 345.067 15.4719 349.496 17.2156 346.007C17.2156 346.007 38.4075 361.039 33.3107 382.647L34.5179 384.391C34.3837 386.136 34.2496 387.21 34.2496 387.21L35.8591 386.539L37.7369 389.357C37.6028 394.726 38.2734 398.752 38.2734 398.752L43.3702 391.236C38.2734 369.628 59.4654 354.597 59.4654 354.597C60.9407 358.22 70.8661 353.791 66.574 346.678Z" fill="#E0E0E0"/>
<path opacity="0.2" d="M66.574 346.678C64.1598 342.652 60.136 346.141 60.136 346.141C60.6725 338.491 53.6979 333.257 53.6979 333.257C53.6979 333.257 61.8796 333.257 62.9526 325.473C64.0256 317.688 60.136 321.312 56.3805 321.312C52.6249 321.312 48.7353 332.183 53.6979 338.357C58.6606 344.531 57.3193 354.999 45.9186 365.065C43.1019 367.481 41.2242 370.836 40.017 374.326C40.8218 365.065 41.3583 352.046 38.6758 343.323C34.1155 328.559 42.8337 324.533 45.3821 317.151C47.9305 309.77 38.6758 303.462 38.6758 303.462C38.6758 303.462 47.394 299.435 43.1019 294.872C38.8099 290.309 30.0917 290.98 30.0917 296.885C30.0917 302.791 35.9933 305.072 35.9933 305.072C35.9933 305.072 42.8337 312.186 42.8337 315.809C42.8337 319.567 35.9933 327.486 35.9933 327.486C35.9933 327.486 39.0782 320.641 32.9084 320.373C26.6044 320.104 24.7266 328.291 27.275 332.049C29.8234 335.807 34.1155 332.586 34.1155 332.586C34.1155 332.586 34.652 340.504 36.1274 345.336C36.798 347.483 36.5298 355.804 35.9933 364.528C34.7861 361.441 32.9083 358.489 30.4941 356.341C19.0933 346.275 17.7521 335.807 22.7147 329.633C27.6774 323.459 23.7878 312.588 20.0322 312.588C16.2767 312.588 12.387 308.965 13.46 316.749C14.533 324.533 22.7147 324.533 22.7147 324.533C22.7147 324.533 15.7402 329.767 16.2767 337.417C16.2767 337.417 12.2529 333.928 9.83863 337.954C5.54659 345.067 15.4719 349.496 17.2156 346.007C17.2156 346.007 38.4075 361.039 33.3107 382.647L34.5179 384.391C34.3837 386.136 34.2496 387.21 34.2496 387.21L35.8591 386.539L37.7369 389.357C37.6028 394.726 38.2734 398.752 38.2734 398.752L43.3702 391.236C38.2734 369.628 59.4654 354.597 59.4654 354.597C60.9407 358.22 70.8661 353.791 66.574 346.678Z" fill="#E0E0E0"/>
<path d="M62.4157 438.747H13.9961L8.76514 385.6H67.6466L62.4157 438.747Z" fill="#E6E6E6"/>
<path d="M70.1954 379.828H6.08301V391.505H70.1954V379.828Z" fill="#F0F0F0"/>
<path d="M271.921 499.545C415.554 499.545 531.992 492.755 531.992 484.379C531.992 476.003 415.554 469.213 271.921 469.213C128.288 469.213 11.8501 476.003 11.8501 484.379C11.8501 492.755 128.288 499.545 271.921 499.545Z" fill="#F5F5F5"/>
<path d="M487.059 442.101C487.327 440.759 492.022 408.28 482.499 397.14C480.353 394.724 477.804 393.382 474.719 393.248C455.673 392.845 453.125 408.011 453.125 408.28L455.405 408.682C455.539 408.146 457.685 395.261 474.719 395.664C477.134 395.664 479.145 396.738 480.889 398.751C489.607 409.219 484.913 441.564 484.913 441.967L487.059 442.101Z" fill="#407BFF"/>
<path d="M488.267 440.626L490.547 440.491C490.547 440.223 489.742 410.696 504.362 404.523C518.58 398.483 525.018 410.831 525.286 411.368L527.298 410.294C527.164 410.16 519.653 395.531 503.423 402.375C487.462 409.22 488.267 439.284 488.267 440.626Z" fill="#407BFF"/>
<path d="M488.266 442.907C488.266 442.371 488.401 395.665 497.521 381.975C506.239 368.823 520.323 374.996 520.993 375.265L521.932 373.252C521.798 373.117 505.435 366.004 495.643 380.767C486.12 394.994 485.986 441.028 485.986 442.907H488.266Z" fill="#407BFF"/>
<path d="M472.038 394.323C472.038 394.323 480.353 397.41 477.805 404.657C475.257 411.905 449.102 423.715 449.102 423.715C449.102 423.715 438.104 413.65 448.163 397.276C458.491 380.902 471.904 389.223 472.038 394.323Z" fill="#407BFF"/>
<path d="M497.923 379.559C497.923 379.559 492.022 378.888 492.558 375.399C493.095 371.775 515.494 362.649 528.638 377.546C528.638 377.546 520.188 392.041 507.983 392.309C495.643 392.309 497.923 379.559 497.923 379.559Z" fill="#407BFF"/>
<path d="M503.96 403.448C503.96 403.448 499.936 400.227 504.228 398.617C508.654 397.006 530.115 397.409 530.383 418.748C530.383 418.748 505.301 422.909 502.216 414.856C499.132 406.669 503.96 403.448 503.96 403.448Z" fill="#407BFF"/>
<path opacity="0.2" d="M472.038 394.323C472.038 394.323 480.353 397.41 477.805 404.657C475.257 411.905 449.102 423.715 449.102 423.715C449.102 423.715 438.104 413.65 448.163 397.276C458.491 380.902 471.904 389.223 472.038 394.323Z" fill="black"/>
<path opacity="0.2" d="M497.923 379.559C497.923 379.559 492.022 378.888 492.558 375.399C493.095 371.775 515.494 362.649 528.638 377.546C528.638 377.546 520.188 392.041 507.983 392.309C495.643 392.309 497.923 379.559 497.923 379.559Z" fill="black"/>
<path opacity="0.2" d="M503.96 403.448C503.96 403.448 499.936 400.227 504.228 398.617C508.654 397.006 530.115 397.409 530.383 418.748C530.383 418.748 505.301 422.909 502.216 414.856C499.132 406.669 503.96 403.448 503.96 403.448Z" fill="black"/>
<path d="M467.612 485.451H506.509L510.667 442.906H463.454L467.612 485.451Z" fill="#407BFF"/>
<path opacity="0.5" d="M467.612 485.451H506.509L510.667 442.906H463.454L467.612 485.451Z" fill="white"/>
<path d="M461.469 447.586H512.839V438.191H461.469V447.586Z" fill="#407BFF"/>
<path opacity="0.2" d="M461.469 447.586H512.839V438.191H461.469V447.586Z" fill="white"/>
<path d="M423.619 454.989L384.99 451.231V396.875H369.7V451.231L330.938 454.989C327.048 455.391 324.097 458.612 324.097 462.504V468.276H375.87H378.687H430.459V462.504C430.459 458.612 427.509 455.391 423.619 454.989Z" fill="#263238"/>
<path opacity="0.2" d="M423.619 454.989L384.99 451.231V396.875H369.7V451.231L330.938 454.989C327.048 455.391 324.097 458.612 324.097 462.504V468.276H375.87H378.687H430.459V462.504C430.459 458.612 427.509 455.391 423.619 454.989Z" fill="white"/>
<path d="M328.254 485.589C333.81 485.589 338.314 481.082 338.314 475.523C338.314 469.964 333.81 465.457 328.254 465.457C322.699 465.457 318.195 469.964 318.195 475.523C318.195 481.082 322.699 485.589 328.254 485.589Z" fill="#263238"/>
<path d="M426.301 485.589C431.857 485.589 436.361 481.082 436.361 475.523C436.361 469.964 431.857 465.457 426.301 465.457C420.745 465.457 416.242 469.964 416.242 475.523C416.242 481.082 420.745 485.589 426.301 485.589Z" fill="#263238"/>
<path d="M382.039 408.551H372.516C369.431 408.551 367.017 406.001 367.017 403.048V360.234H387.672V403.048C387.672 406.001 385.124 408.551 382.039 408.551Z" fill="#263238"/>
<path opacity="0.3" d="M382.039 408.551H372.516C369.431 408.551 367.017 406.001 367.017 403.048V360.234H387.672V403.048C387.672 406.001 385.124 408.551 382.039 408.551Z" fill="white"/>
<path d="M413.961 275.145C413.961 275.145 416.912 347.619 396.659 360.101H419.728C419.728 360.101 437.567 335.406 432.47 275.145H413.961Z" fill="#263238"/>
<path opacity="0.3" d="M413.961 275.145C413.961 275.145 416.912 347.619 396.659 360.101H419.728C419.728 360.101 437.567 335.406 432.47 275.145H413.961Z" fill="white"/>
<path d="M331.071 349.9H420.801C424.557 349.9 427.507 352.853 427.507 356.611V365.603H324.364V356.611C324.364 352.987 327.449 349.9 331.071 349.9Z" fill="#263238"/>
<path d="M322.755 357.818H429.117C430.592 357.818 431.799 359.026 431.799 360.503V362.918C431.799 364.395 430.592 365.603 429.117 365.603H322.755C321.279 365.603 320.072 364.395 320.072 362.918V360.503C320.072 359.026 321.279 357.818 322.755 357.818Z" fill="#263238"/>
<path opacity="0.6" d="M322.755 357.818H429.117C430.592 357.818 431.799 359.026 431.799 360.503V362.918C431.799 364.395 430.592 365.603 429.117 365.603H322.755C321.279 365.603 320.072 364.395 320.072 362.918V360.503C320.072 359.026 321.279 357.818 322.755 357.818Z" fill="white"/>
<path d="M438.239 289.907H401.354C390.49 289.907 381.771 281.184 381.771 270.312V255.818C381.771 244.946 390.49 236.223 401.354 236.223H438.239C449.103 236.223 457.821 244.946 457.821 255.818V270.312C457.687 281.049 448.969 289.907 438.239 289.907Z" fill="#263238"/>
<path d="M289.492 177.035L282.115 157.574C282.115 157.574 285.334 154.621 283.054 151.669C280.908 148.716 267.361 140.395 264.813 141.871C262.398 143.348 256.899 148.85 259.85 151.937C262.801 155.024 275.945 160.124 275.945 160.124L282.517 185.624L289.492 177.035Z" fill="#E4897B"/>
<path d="M340.863 213.943C340.863 213.943 307.331 207.098 303.71 205.353C300.088 203.743 286.542 164.15 286.542 164.15L276.214 168.982C276.214 168.982 284.53 208.574 292.98 218.104C301.43 227.498 337.778 235.551 337.778 235.551L340.863 213.943Z" fill="#FFC100"/>
<path opacity="0.2" d="M337.911 235.551C337.911 235.551 337.643 235.551 337.241 235.417C335.363 235.014 329.729 233.672 322.889 231.659C311.891 228.438 297.941 223.606 293.113 218.104C284.663 208.709 276.347 168.982 276.347 168.982L286.675 164.15C286.675 164.15 300.222 203.609 303.843 205.353C307.464 206.964 340.996 213.943 340.996 213.943L337.911 235.551Z" fill="black"/>
<path d="M286.809 163.479L288.955 167.639L275.676 172.202L276.079 167.236L286.809 163.479Z" fill="#FFC100"/>
<path opacity="0.2" d="M338.18 235.015C336.302 234.746 330.535 233.807 323.56 232.33C327.584 225.486 339.119 221.996 339.119 221.996L338.18 235.015Z" fill="black"/>
<path d="M388.074 186.699C388.074 186.699 390.086 205.22 383.111 209.783C376.271 214.346 342.471 208.978 338.581 201.596C334.692 194.08 349.177 173.814 349.177 173.814L388.074 186.699Z" fill="#263238"/>
<path d="M251.266 430.829L260.118 432.976L264.544 420.763L268.568 409.758L258.508 405.463L254.619 418.884L251.266 430.829Z" fill="#E4897B"/>
<path opacity="0.2" d="M254.62 418.884L264.545 420.763L268.569 409.758L258.509 405.463L254.62 418.884Z" fill="black"/>
<path d="M255.557 412.442L267.762 417.005C267.762 417.005 300.355 335.404 307.061 335.136C313.767 334.867 382.038 366.273 399.206 348.825C416.374 331.378 391.561 289.504 391.561 289.504C391.561 289.504 350.384 283.598 347.299 292.993C346.628 294.738 346.092 298.362 345.555 301.314C345.019 304.133 344.751 306.549 344.751 306.549C343.543 306.28 302.098 295.543 285.869 306.549C269.372 317.688 255.557 412.442 255.557 412.442Z" fill="#407BFF"/>
<path opacity="0.6" d="M255.557 412.442L267.762 417.005C267.762 417.005 300.355 335.404 307.061 335.136C313.767 334.867 382.038 366.273 399.206 348.825C416.374 331.378 391.561 289.504 391.561 289.504C391.561 289.504 350.384 283.598 347.299 292.993C346.628 294.738 346.092 298.362 345.555 301.314C345.019 304.133 344.751 306.549 344.751 306.549C343.543 306.28 302.098 295.543 285.869 306.549C269.372 317.688 255.557 412.442 255.557 412.442Z" fill="white"/>
<path d="M325.974 465.725L334.693 463.443L333.083 450.827L331.474 439.285L320.609 440.225L323.426 453.78L325.974 465.725Z" fill="#E4897B"/>
<path opacity="0.2" d="M323.426 454.047L333.083 451.094L331.474 439.418L320.609 440.357L323.426 454.047Z" fill="black"/>
<path d="M272.86 412.442L255.021 406.402L254.216 413.784L267.763 418.481L272.86 412.442Z" fill="#FFC100"/>
<path d="M369.699 352.986C369.699 352.986 366.882 352.986 323.693 350.973C323.693 350.973 330.132 404.926 333.619 445.458L320.743 447.606C320.743 447.606 289.894 361.039 290.162 347.215C290.43 333.392 306.257 329.365 306.257 329.365C306.257 329.365 337.106 347.35 369.699 352.986Z" fill="#407BFF"/>
<path opacity="0.6" d="M369.699 352.986C369.699 352.986 366.882 352.986 323.693 350.973C323.693 350.973 330.132 404.926 333.619 445.458L320.743 447.606C320.743 447.606 289.894 361.039 290.162 347.215C290.43 333.392 306.257 329.365 306.257 329.365C306.257 329.365 337.106 347.35 369.699 352.986Z" fill="white"/>
<path opacity="0.1" d="M369.699 352.986C369.699 352.986 366.882 352.986 323.693 350.973C323.693 350.973 330.132 404.926 333.619 445.458L320.743 447.606C320.743 447.606 289.894 361.039 290.162 347.215C290.43 333.392 306.257 329.365 306.257 329.365C306.257 329.365 337.106 347.35 369.699 352.986Z" fill="black"/>
<path d="M335.631 441.566L317.792 443.58L321.28 450.559L335.631 448.68V441.566Z" fill="#FFC100"/>
<path opacity="0.1" d="M344.751 306.414L368.894 311.38C368.894 311.38 355.616 303.998 345.556 301.18C345.154 303.998 344.751 306.414 344.751 306.414Z" fill="black"/>
<path d="M390.623 283.062L391.562 289.37L347.3 292.86L346.227 285.21L390.623 283.062Z" fill="#263238"/>
<path opacity="0.2" d="M390.623 283.062L391.562 289.37L347.3 292.86L346.227 285.21L390.623 283.062Z" fill="black"/>
<path d="M376.634 293.694L378.769 293.475L377.63 282.393L375.495 282.613L376.634 293.694Z" fill="#407BFF"/>
<path d="M357.024 292.647L366.661 292.027L366.188 284.661L356.551 285.281L357.024 292.647Z" fill="white"/>
<path d="M349.581 295.011L351.716 294.791L350.577 283.71L348.442 283.93L349.581 295.011Z" fill="#407BFF"/>
<path opacity="0.6" d="M376.634 293.694L378.769 293.475L377.63 282.393L375.495 282.613L376.634 293.694Z" fill="white"/>
<path opacity="0.6" d="M349.581 295.011L351.716 294.791L350.577 283.71L348.442 283.93L349.581 295.011Z" fill="white"/>
<path d="M340.057 213.406C340.057 213.406 351.324 216.896 365.541 216.225C379.758 215.554 396.658 222.398 396.658 222.398L390.623 283.062L346.227 285.344C346.227 285.21 331.205 234.612 340.057 213.406Z" fill="#FFC100"/>
<path d="M347.166 179.182C347.166 179.182 349.714 149.79 374.259 160.392C405.109 173.814 380.563 209.648 365.541 202.401C350.385 195.019 347.166 179.182 347.166 179.182Z" fill="#263238"/>
<path opacity="0.2" d="M354.006 217.836L354.677 234.478L360.176 226.694C360.176 226.694 358.164 245.081 359.371 255.147C359.371 255.147 360.444 237.162 362.859 226.694L368.76 234.478L377.21 217.97C377.344 217.97 363.663 213.004 354.006 217.836Z" fill="black"/>
<path d="M361.651 220.923L374.393 217.299C366.614 211.931 370.504 199.852 370.504 199.852L357.896 204.281C358.567 206.428 358.969 208.173 359.237 209.649C360.578 217.567 356.957 218.104 356.957 218.104L361.651 220.923Z" fill="#E4897B"/>
<path opacity="0.2" d="M357.896 204.281C358.567 206.428 358.969 208.173 359.238 209.649C365.273 207.233 370.504 199.852 370.504 199.852L357.896 204.281Z" fill="black"/>
<path d="M366.212 166.566C355.08 164.15 350.117 169.25 346.764 180.658C342.606 194.75 343.545 205.756 358.164 205.756C378.015 205.756 384.721 170.727 366.212 166.566Z" fill="#E4897B"/>
<path d="M354.007 181.598C354.007 181.598 351.861 184.148 349.715 185.49C349.715 185.49 350.385 187.235 352.397 187.369L354.007 181.598Z" fill="#DE5753"/>
<path d="M361.115 182.135C360.846 183.074 361.249 183.879 361.785 184.014C362.456 184.148 363.127 183.611 363.261 182.672C363.529 181.732 363.127 180.927 362.59 180.793C362.054 180.658 361.383 181.329 361.115 182.135Z" fill="#263238"/>
<path d="M362.858 180.927L361.114 179.719C361.114 179.585 361.651 181.598 362.858 180.927Z" fill="#263238"/>
<path d="M349.849 179.183C349.581 180.122 349.983 180.928 350.52 181.062C351.19 181.196 351.861 180.659 351.995 179.72C352.263 178.78 351.861 177.975 351.324 177.841C350.654 177.707 349.983 178.243 349.849 179.183Z" fill="#263238"/>
<path d="M351.593 177.975L349.715 176.633C349.715 176.633 350.385 178.512 351.593 177.975Z" fill="#263238"/>
<path d="M362.859 174.484C362.859 174.484 366.078 174.753 367.286 177.303" stroke="#263238" stroke-width="0.7247" stroke-miterlimit="10" stroke-linecap="round" stroke-linejoin="round"/>
<path d="M354.946 172.203C354.946 172.203 353.203 170.995 350.252 172.203" stroke="#263238" stroke-width="0.7247" stroke-miterlimit="10" stroke-linecap="round" stroke-linejoin="round"/>
<path d="M374.126 188.04C374.126 188.04 370.907 177.706 373.321 170.861C373.321 170.861 353.202 156.903 347.167 179.182C347.167 179.182 349.447 158.782 368.761 162.54C388.075 166.298 381.771 194.483 369.968 200.656C369.968 200.522 376.138 194.483 374.126 188.04Z" fill="#263238"/>
<path d="M371.845 190.052C372.382 188.308 374.796 185.624 378.149 186.697C381.502 187.905 381.636 195.287 372.65 195.153C371.309 195.153 370.906 193.81 371.845 190.052Z" fill="#E4897B"/>
<path d="M350.518 191.663C350.92 193.14 351.055 195.824 351.055 195.824C351.323 195.824 351.591 195.824 351.725 195.958C355.078 196.226 356.688 195.287 357.493 194.079C357.895 193.408 358.163 192.737 358.163 192.2C358.297 191.529 358.163 190.992 358.163 190.992C356.285 191.932 353.201 191.932 351.457 191.797C350.92 191.663 350.518 191.663 350.518 191.663Z" fill="#263238"/>
<path d="M351.591 191.663L351.86 192.871C354.944 193.139 357.225 192.871 358.298 192.065C358.432 191.394 358.298 190.857 358.298 190.857C356.42 191.797 353.201 191.797 351.591 191.663Z" fill="white"/>
<path d="M351.725 195.822C355.078 196.091 356.687 195.151 357.492 193.943C356.419 193.943 354.944 193.943 353.736 194.346C352.798 194.749 352.261 195.285 351.725 195.822Z" fill="#DE5753"/>
<path d="M366.212 167.505C366.212 167.505 366.614 186.832 378.283 189.248C389.952 191.529 377.21 164.284 377.21 164.284C377.21 164.284 359.908 153.011 348.373 160.929C336.838 168.848 347.166 179.182 347.166 179.182C347.166 179.182 349.58 164.687 366.212 167.505Z" fill="#263238"/>
<path d="M366.615 166.164C366.615 166.164 362.457 178.377 370.639 184.82" stroke="#263238" stroke-width="0.5" stroke-miterlimit="10" stroke-linecap="round" stroke-linejoin="round"/>
<path d="M381.637 193.139C380.162 197.032 376.406 199.313 373.187 198.105C369.968 196.897 368.627 192.737 370.102 188.845C371.577 184.952 375.333 182.671 378.552 183.879C381.771 185.087 383.112 189.247 381.637 193.139Z" fill="#FFC100"/>
<path d="M377.881 186.698C377.881 186.698 382.709 165.09 371.845 159.453C371.845 159.453 374.125 159.722 375.467 160.124C376.808 160.527 385.526 169.251 381.1 188.711L377.881 186.698Z" fill="#FFC100"/>
<path d="M357.628 199.045C357.36 199.045 357.091 198.911 356.823 198.911L357.092 197.569C366.749 199.18 373.991 193.945 374.126 193.945L374.93 195.019C374.662 195.287 367.553 200.387 357.628 199.045Z" fill="#FFC100"/>
<g opacity="0.2">
<path opacity="0.2" d="M357.628 199.045C357.36 199.045 357.091 198.911 356.823 198.911L357.092 197.569C366.749 199.18 373.991 193.945 374.126 193.945L374.93 195.019C374.662 195.287 367.553 200.387 357.628 199.045Z" fill="#FFC100"/>
</g>
<path d="M381.235 192.603C380.296 195.153 377.747 196.629 375.601 195.824C373.455 195.019 372.516 192.335 373.589 189.65C374.528 187.1 377.077 185.624 379.223 186.429C381.235 187.235 382.174 190.053 381.235 192.603Z" fill="#FFEC38"/>
<path d="M356.555 199.448L355.482 199.314C354.677 199.179 354.141 198.508 354.275 197.703C354.409 196.898 355.08 196.361 355.884 196.495L356.957 196.629C357.762 196.764 358.299 197.435 358.165 198.24C358.03 199.045 357.36 199.582 356.555 199.448Z" fill="#FFC100"/>
<path opacity="0.4" d="M356.555 199.448L355.482 199.314C354.677 199.179 354.141 198.508 354.275 197.703C354.409 196.898 355.08 196.361 355.884 196.495L356.957 196.629C357.762 196.764 358.299 197.435 358.165 198.24C358.03 199.045 357.36 199.582 356.555 199.448Z" fill="black"/>
<path d="M371.04 212.734L362.993 220.519L366.212 230.182L377.344 217.969L371.04 212.734Z" fill="#FFC100"/>
<path d="M359.505 214.346L360.713 220.385L356.689 228.975L354.006 217.835L359.505 214.346Z" fill="#FFC100"/>
<path d="M369.297 219.58L373.992 202.67C373.992 202.67 371.712 198.509 372.248 197.57C372.785 196.63 375.199 185.356 376.808 184.014C378.552 182.806 385.527 184.954 386.331 186.028C387.002 187.235 379.625 202.67 379.625 202.67L376.943 221.057L369.297 219.58Z" fill="#E4897B"/>
<path d="M396.659 222.397C409.401 235.416 383.917 264.942 369.297 263.734C354.677 262.526 369.699 208.842 369.699 208.842L379.088 210.318C379.088 210.318 375.735 233.537 376.808 235.281C377.881 237.295 392.501 217.968 396.659 222.397Z" fill="#CC9A00"/>
<path d="M368.894 207.098L367.553 211.527L380.564 212.735V208.842L368.894 207.098Z" fill="#FFC100"/>
<path opacity="0.6" d="M349.178 254.341H343.947C343.411 254.341 342.874 253.804 342.874 253.267V243.335C342.874 242.799 343.411 242.262 343.947 242.262H349.178C349.714 242.262 350.251 242.799 350.251 243.335V253.267C350.117 253.804 349.714 254.341 349.178 254.341Z" fill="white"/>
<path opacity="0.2" d="M349.312 242.932H343.276V251.119H349.312V242.932Z" fill="black"/>
<path d="M347.032 239.309H345.691V244.14H347.032V239.309Z" fill="#263238"/>
<path d="M236.646 448.007C237.987 447.336 239.463 447.068 240.938 446.934C240.938 446.934 246.035 443.981 251.132 432.305H256.765C258.777 432.305 260.521 433.513 261.191 435.392C261.325 435.66 261.325 435.928 261.325 436.197C261.325 437.539 261.057 438.881 260.923 440.357C260.386 444.652 257.57 453.779 257.57 453.779L256.631 453.51L258.375 445.055C258.911 442.236 255.96 444.921 254.485 447.873C253.144 450.826 250.863 453.644 244.694 452.302C237.317 450.423 234.366 449.35 236.646 448.007Z" fill="#FFC100"/>
<path d="M252.07 429.219C252.07 429.219 244.961 444.117 240.938 446.935C240.938 446.935 246.437 450.156 252.07 442.909C259.447 433.514 261.191 436.198 261.191 436.198C261.191 436.198 260.922 432.977 260.252 431.367C259.313 428.414 252.07 429.219 252.07 429.219Z" fill="#E4897B"/>
<path d="M314.707 483.44C315.914 482.501 317.121 481.829 318.597 481.427C318.597 481.427 322.889 477.266 325.035 464.785L330.534 463.442C332.412 463.04 334.424 463.845 335.497 465.456C335.631 465.724 335.765 465.858 335.899 466.127C336.167 467.469 336.301 468.811 336.436 470.153C336.972 474.448 336.436 483.977 336.436 483.977H335.497L335.228 475.387C335.094 472.435 332.814 475.924 332.143 479.011C331.473 482.232 330.132 485.453 323.694 485.587C315.914 485.587 312.829 485.185 314.707 483.44Z" fill="#FFC100"/>
<path d="M325.303 461.429C325.303 461.429 321.95 477.534 318.597 481.292C318.597 481.292 324.633 483.171 328.523 474.716C333.485 463.844 335.765 465.992 335.765 465.992C335.765 465.992 334.692 462.905 333.753 461.563C332.01 458.879 325.303 461.429 325.303 461.429Z" fill="#E4897B"/>
<path d="M450.04 170.324H403.23C399.475 170.324 396.39 167.237 396.39 163.479V143.482C396.39 139.724 399.475 136.637 403.23 136.637H450.04C453.796 136.637 456.881 139.724 456.881 143.482V163.479C456.746 167.237 453.796 170.324 450.04 170.324Z" fill="#FFC100"/>
<path d="M412.62 166.432L398.402 185.624L421.204 167.774L412.62 166.432Z" fill="#FFC100"/>
<path d="M413.021 153.414C413.021 154.487 412.082 155.427 411.009 155.427C409.936 155.427 408.998 154.487 408.998 153.414C408.998 152.34 409.936 151.4 411.009 151.4C412.217 151.535 413.021 152.34 413.021 153.414Z" fill="white"/>
<path d="M423.349 153.414C423.349 154.487 422.411 155.427 421.338 155.427C420.265 155.427 419.326 154.487 419.326 153.414C419.326 152.34 420.265 151.4 421.338 151.4C422.411 151.4 423.349 152.34 423.349 153.414Z" fill="white"/>
<path d="M433.678 153.414C433.678 154.487 432.739 155.427 431.666 155.427C430.593 155.427 429.654 154.487 429.654 153.414C429.654 152.34 430.593 151.4 431.666 151.4C432.873 151.535 433.678 152.34 433.678 153.414Z" fill="white"/>
<path d="M444.004 153.414C444.004 154.487 443.065 155.427 441.992 155.427C440.919 155.427 439.98 154.487 439.98 153.414C439.98 152.34 440.919 151.4 441.992 151.4C443.199 151.535 444.004 152.34 444.004 153.414Z" fill="white"/>
<path d="M261.728 143.885L228.331 125.9C227.392 125.364 227.124 124.29 227.526 123.35L238.122 103.621C238.659 102.682 239.732 102.413 240.671 102.816L274.068 120.8C275.007 121.337 275.275 122.411 274.873 123.35L264.277 143.079C263.74 144.019 262.667 144.287 261.728 143.885Z" fill="#407BFF"/>
<path opacity="0.7" d="M261.728 143.885L228.331 125.9C227.392 125.364 227.124 124.29 227.526 123.35L238.122 103.621C238.659 102.682 239.732 102.413 240.671 102.816L274.068 120.8C275.007 121.337 275.275 122.411 274.873 123.35L264.277 143.079C263.74 144.019 262.667 144.287 261.728 143.885Z" fill="white"/>
<path opacity="0.2" d="M237.453 105.098L247.914 124.558C248.719 126.035 250.329 126.974 252.072 126.84L273.801 124.693L251.67 127.914C249.658 128.182 247.78 127.108 246.841 125.364L237.453 105.098Z" fill="black"/>
<path d="M211.967 101.472C212.369 93.9565 217.868 78.9247 224.575 74.3615C231.281 69.7983 226.855 76.1063 226.855 76.1063C226.855 76.1063 233.159 69.9326 236.646 70.0668C239.999 70.201 236.646 74.0931 236.646 74.0931C236.646 74.0931 243.487 69.7983 246.706 70.0668C249.925 70.201 246.706 73.9589 246.706 73.9589C246.706 73.9589 252.339 69.9326 254.619 71.8115C256.899 73.8247 225.245 94.6275 221.758 103.083C218.271 111.807 211.699 109.122 211.967 101.472Z" fill="#407BFF"/>
<path opacity="0.4" d="M211.967 101.472C212.369 93.9565 217.868 78.9247 224.575 74.3615C231.281 69.7983 226.855 76.1063 226.855 76.1063C226.855 76.1063 233.159 69.9326 236.646 70.0668C239.999 70.201 236.646 74.0931 236.646 74.0931C236.646 74.0931 243.487 69.7983 246.706 70.0668C249.925 70.201 246.706 73.9589 246.706 73.9589C246.706 73.9589 252.339 69.9326 254.619 71.8115C256.899 73.8247 225.245 94.6275 221.758 103.083C218.271 111.807 211.699 109.122 211.967 101.472Z" fill="white"/>
<path d="M239.195 100.398L243.487 103.083C243.755 103.217 243.621 103.754 243.218 103.754L238.792 103.351L239.195 106.706C239.195 107.109 238.792 107.243 238.524 106.975L235.976 104.022L239.195 100.398Z" fill="#407BFF"/>
<path opacity="0.3" d="M239.195 100.398L243.487 103.083C243.755 103.217 243.621 103.754 243.218 103.754L238.792 103.351L239.195 106.706C239.195 107.109 238.792 107.243 238.524 106.975L235.976 104.022L239.195 100.398Z" fill="white"/>
<path d="M179.91 83.6233C179.91 83.6233 185.812 79.597 194.53 82.147C194.53 82.147 197.078 93.8234 204.053 97.7155C207.808 99.8629 217.197 99.7287 224.574 97.3129C233.427 94.4945 237.719 94.4945 239.194 97.7155C240.669 100.802 239.06 104.426 232.354 106.037C225.647 107.647 220.282 119.324 208.077 119.458C195.871 119.592 189.433 107.379 192.518 96.6418C192.652 96.6418 188.897 88.7234 179.91 83.6233Z" fill="#407BFF"/>
<path opacity="0.5" d="M179.91 83.6233C179.91 83.6233 185.812 79.597 194.53 82.147C194.53 82.147 197.078 93.8234 204.053 97.7155C207.808 99.8629 217.197 99.7287 224.574 97.3129C233.427 94.4945 237.719 94.4945 239.194 97.7155C240.669 100.802 239.06 104.426 232.354 106.037C225.647 107.647 220.282 119.324 208.077 119.458C195.871 119.592 189.433 107.379 192.518 96.6418C192.652 96.6418 188.897 88.7234 179.91 83.6233Z" fill="white"/>
<path d="M235.976 99.9956C235.976 100.264 235.708 100.532 235.439 100.532C235.171 100.532 234.903 100.264 234.903 99.9956C234.903 99.7272 235.171 99.4587 235.439 99.4587C235.708 99.3245 235.976 99.593 235.976 99.9956Z" fill="#263238"/>
<path d="M205.395 109.794C198.152 111.807 182.191 111.136 175.753 106.17C169.315 101.204 176.692 103.486 176.692 103.486C176.692 103.486 168.778 99.3255 167.973 96.1044C167.169 92.8833 171.863 94.8965 171.863 94.8965C171.863 94.8965 165.693 89.6622 164.889 86.5754C164.084 83.4885 168.644 85.3675 168.644 85.3675C168.644 85.3675 163.011 81.2069 164.218 78.3885C165.425 75.57 194.933 99.3255 204.188 99.9965C213.174 100.668 212.637 107.781 205.395 109.794Z" fill="#407BFF"/>
<path opacity="0.4" d="M205.395 109.794C198.152 111.807 182.191 111.136 175.753 106.17C169.315 101.204 176.692 103.486 176.692 103.486C176.692 103.486 168.778 99.3255 167.973 96.1044C167.169 92.8833 171.863 94.8965 171.863 94.8965C171.863 94.8965 165.693 89.6622 164.889 86.5754C164.084 83.4885 168.644 85.3675 168.644 85.3675C168.644 85.3675 163.011 81.2069 164.218 78.3885C165.425 75.57 194.933 99.3255 204.188 99.9965C213.174 100.668 212.637 107.781 205.395 109.794Z" fill="white"/>
<path d="M158.182 76.6435C156.975 76.2408 155.633 75.8382 154.426 75.4355" stroke="#407BFF" stroke-width="0.75" stroke-linecap="round" stroke-linejoin="round"/>
<path d="M146.513 73.4226C141.819 72.4832 136.991 71.8121 132.296 71.4095C119.286 70.47 98.7645 69.2621 90.8511 82.1464C83.6083 93.957 96.082 114.223 100.508 125.228C106.007 138.65 112.442 156.964 106.004 171.191C-7.70196 199.617 20.1801 56.0351 1 29.0586" stroke="#407BFF" stroke-width="0.75" stroke-linecap="round" stroke-linejoin="round" stroke-dasharray="6.03 6.03"/>
<path d="M177.763 259.977H126.795V270.445H177.763V259.977Z" fill="white"/>
<path opacity="0.1" d="M177.763 259.977H126.795V270.445H177.763V259.977Z" fill="black"/>
<path opacity="0.1" d="M148.256 259.977H126.795V270.445H148.256V259.977Z" fill="black"/>
<path opacity="0.1" d="M126.796 261.453H172.131L126.796 262.795V261.453Z" fill="black"/>
<path opacity="0.1" d="M177.764 263.332L138.465 264.272H177.764V263.332Z" fill="black"/>
<path opacity="0.1" d="M128.942 266.151L148.256 265.346L176.825 266.151L148.256 266.688L128.942 266.151Z" fill="black"/>
<path opacity="0.1" d="M126.796 268.432H160.462L126.796 269.237V268.432Z" fill="black"/>
<path opacity="0.1" d="M177.763 269.236L155.23 269.639H177.763V269.236Z" fill="black"/>
<path d="M170.789 249.508H119.821V259.976H170.789V249.508Z" fill="white"/>
<path opacity="0.1" d="M170.789 249.508H119.821V259.976H170.789V249.508Z" fill="black"/>
<path opacity="0.1" d="M141.281 249.508H119.821V259.976H141.281V249.508Z" fill="black"/>
<path opacity="0.1" d="M119.821 250.984H165.156L119.821 252.326V250.984Z" fill="black"/>
<path opacity="0.1" d="M170.655 252.863L131.356 253.803H170.655V252.863Z" fill="black"/>
<path opacity="0.1" d="M121.834 255.815L141.282 255.01L169.717 255.815L141.282 256.218L121.834 255.815Z" fill="black"/>
<path opacity="0.1" d="M119.821 257.963H153.353L119.821 258.768V257.963Z" fill="black"/>
<path opacity="0.1" d="M170.655 258.768L148.256 259.17H170.655V258.768Z" fill="black"/>
<path d="M176.557 239.039H125.589V249.508H176.557V239.039Z" fill="white"/>
<path opacity="0.1" d="M176.557 239.039H125.589V249.508H176.557V239.039Z" fill="black"/>
<path opacity="0.1" d="M147.049 239.039H125.589V249.508H147.049V239.039Z" fill="black"/>
<path opacity="0.1" d="M125.589 240.516H170.924L125.589 241.858V240.516Z" fill="black"/>
<path opacity="0.1" d="M176.557 242.395L137.258 243.334H176.557V242.395Z" fill="black"/>
<path opacity="0.1" d="M127.601 245.346L147.049 244.541L175.484 245.346L147.049 245.749L127.601 245.346Z" fill="black"/>
<path opacity="0.1" d="M125.589 247.494H159.12L125.589 248.299V247.494Z" fill="black"/>
<path opacity="0.1" d="M176.422 248.299L154.023 248.701H176.556L176.422 248.299Z" fill="black"/>
<path d="M210.357 270.177L211.698 265.211H266.153L291.235 267.627L292.174 270.177H210.357Z" fill="#263238"/>
<path opacity="0.4" d="M266.153 265.211V270.177H210.357L211.698 265.211H266.153Z" fill="black"/>
<path d="M255.155 241.187C255.424 243.872 253.412 246.019 250.863 246.019H167.571C164.889 246.019 162.608 243.872 162.34 241.187L157.377 187.771C157.377 187.234 157.377 186.697 157.512 186.161C157.914 184.282 159.658 182.939 161.669 182.939H245.096C247.779 182.939 250.059 185.087 250.327 187.771L255.155 241.187Z" fill="#263238"/>
<path opacity="0.4" d="M250.595 246.019H167.571C164.888 246.019 162.608 243.871 162.34 241.187L157.377 187.771C157.377 187.234 157.377 186.697 157.511 186.16H240.535C243.218 186.16 245.498 188.308 245.766 190.992L250.729 244.408C250.729 244.945 250.729 245.482 250.595 246.019Z" fill="black"/>
<path d="M193.323 213.271H210.625L205.931 262.661L233.293 266.688V270.177H175.887V266.688L187.556 262.661L193.323 213.271Z" fill="#263238"/>
<path opacity="0.1" d="M210.625 213.271L197.883 269.372L187.555 269.104L193.323 213.271H210.625Z" fill="white"/>
<path d="M210.492 485.452H202.31L187.556 279.84H198.42L210.492 485.452Z" fill="#263238"/>
<path opacity="0.4" d="M210.491 485.451H202.309L188.226 290.039L187.555 280.107H198.419L198.956 290.039L210.491 485.451Z" fill="white"/>
<path opacity="0.2" d="M198.956 289.502H188.226L187.555 280.107H198.419L198.956 289.502Z" fill="black"/>
<path d="M270.849 485.452H262.533L261.192 279.84H272.19L270.849 485.452Z" fill="#263238"/>
<path opacity="0.5" d="M272.19 280.107L271.922 313.258L270.849 485.451H262.533L261.46 313.258L261.191 280.107H272.19Z" fill="white"/>
<path opacity="0.2" d="M272.19 280.107L271.922 313.66H261.46L261.191 280.107H272.19Z" fill="black"/>
<path d="M358.03 485.452H349.848L335.094 279.84H345.958L358.03 485.452Z" fill="#263238"/>
<path opacity="0.5" d="M358.03 485.451H349.848L335.765 290.039L335.094 280.107H345.958L346.495 290.039L358.03 485.451Z" fill="white"/>
<path opacity="0.2" d="M346.495 289.502H335.765L335.094 280.107H345.958L346.495 289.502Z" fill="black"/>
<path d="M116.469 485.452H108.288L120.359 279.84H131.223L116.469 485.452Z" fill="#263238"/>
<path opacity="0.5" d="M131.223 280.107L130.552 290.039L116.469 485.451H108.287L119.822 290.039L120.358 280.107H131.223Z" fill="white"/>
<path opacity="0.2" d="M120.358 280.107H131.223L130.552 289.502H119.822L120.358 280.107Z" fill="black"/>
<path d="M351.725 284.94H114.59C112.98 284.94 111.639 283.598 111.639 281.987V274.605H354.542V281.987C354.676 283.598 353.335 284.94 351.725 284.94Z" fill="#407BFF"/>
<path opacity="0.6" d="M351.725 284.94H114.59C112.98 284.94 111.639 283.598 111.639 281.987V274.605H354.542V281.987C354.676 283.598 353.335 284.94 351.725 284.94Z" fill="white"/>
<path opacity="0.2" d="M354.676 274.605H111.773V279.705H354.676V274.605Z" fill="black"/>
<path d="M359.639 275.948H106.677C105.067 275.948 103.726 274.606 103.726 272.996C103.726 271.385 105.067 270.043 106.677 270.043H359.773C361.383 270.043 362.724 271.385 362.724 272.996C362.59 274.74 361.249 275.948 359.639 275.948Z" fill="#407BFF"/>
<path opacity="0.6" d="M359.639 275.948H106.677C105.067 275.948 103.726 274.606 103.726 272.996C103.726 271.385 105.067 270.043 106.677 270.043H359.773C361.383 270.043 362.724 271.385 362.724 272.996C362.59 274.74 361.249 275.948 359.639 275.948Z" fill="white"/>
<path d="M299.82 261.318L302.905 256.621C303.575 255.681 304.514 255.145 305.721 255.145H309.611C309.879 255.145 310.282 255.145 310.55 255.279L324.633 259.574C325.438 259.842 326.109 260.379 326.511 261.05L328.523 264.405L299.82 261.318Z" fill="#407BFF"/>
<path opacity="0.2" d="M328.657 264.405L308.136 262.123L299.82 261.184L302.905 256.486C303.575 255.547 304.514 255.01 305.721 255.01H309.611C310.013 255.01 310.282 255.01 310.55 255.144L310.818 255.278L324.633 259.439C325.438 259.707 326.109 260.244 326.511 260.915L328.657 264.405Z" fill="black"/>
<path opacity="0.2" d="M328.657 264.406L308.135 262.124L310.952 255.279L324.767 259.44C325.572 259.708 326.242 260.245 326.645 260.916L328.657 264.406Z" fill="black"/>
<path d="M338.314 269.773V270.176H320.475H294.857L296.466 263.868C297.137 261.452 299.283 259.842 301.697 259.842H321.012C321.682 259.842 322.219 259.976 322.889 260.244L325.304 261.184L334.827 264.808C336.973 265.479 338.314 267.492 338.314 269.773Z" fill="#407BFF"/>
<path opacity="0.2" d="M338.313 269.773V270.176H320.475L321.413 263.331C321.682 261.586 323.56 260.378 325.169 261.05L334.692 264.673C336.972 265.479 338.313 267.492 338.313 269.773Z" fill="black"/>
<path d="M323.292 265.613L328.925 248.568C329.193 247.897 329.998 247.494 330.668 247.897C331.205 248.165 331.473 248.702 331.339 249.373L326.511 267.626C326.645 267.492 323.426 268.7 323.292 265.613Z" fill="#263238"/>
<path opacity="0.2" d="M299.82 268.833H297.271L297.808 266.283H300.356L299.82 268.833Z" fill="black"/>
<path opacity="0.2" d="M303.575 268.7H301.026L301.563 266.15H304.111L303.575 268.7Z" fill="black"/>
</svg>
