<svg width="186" height="185" viewBox="0 0 186 185" fill="none" xmlns="http://www.w3.org/2000/svg">
<g clip-path="url(#clip0)">
<path d="M180.549 185H5.44918C2.43978 185 0 182.573 0 179.58C0 176.587 2.43978 174.16 5.44918 174.16H180.549C183.559 174.16 185.999 176.587 185.999 179.58C185.999 182.573 183.559 185 180.549 185Z" fill="#FFC100"/>
<path d="M38.5076 185H16.7109C13.7015 185 11.2617 182.573 11.2617 179.58V139.834C11.2617 134.853 15.3359 130.801 20.3437 130.801H34.8748C39.8826 130.801 43.9568 134.853 43.9568 139.834V179.58C43.9568 182.573 41.517 185 38.5076 185ZM22.1601 174.16H33.0584V141.641H22.1601V174.16ZM34.8748 141.641H34.8785H34.8748Z" fill="#FFC100"/>
<path d="M82.1013 185H60.3046C57.2952 185 54.8555 182.574 54.8555 179.581V126.827C54.8555 121.846 58.9296 117.794 63.9374 117.794H78.4686C83.4764 117.794 87.5505 121.846 87.5505 126.827V179.581C87.5505 182.574 85.1107 185 82.1013 185ZM65.7538 174.161H76.6522V128.634H65.7538V174.161ZM78.4686 128.634H78.4722H78.4686Z" fill="#FFC100"/>
<path d="M125.694 185H103.897C100.888 185 98.4482 182.574 98.4482 179.58V106.954C98.4482 101.973 102.522 97.9209 107.53 97.9209H122.061C127.069 97.9209 131.143 101.973 131.143 106.954V179.58C131.143 182.574 128.704 185 125.694 185ZM109.347 174.161H120.245V108.761H109.347V174.161ZM122.061 108.761H122.065H122.061Z" fill="#FFC100"/>
<path d="M169.288 185H147.491C144.482 185 142.042 182.573 142.042 179.58V70.8212C142.042 65.8403 146.116 61.7881 151.124 61.7881H165.655C170.663 61.7881 174.737 65.8403 174.737 70.8212V179.58C174.737 182.573 172.297 185 169.288 185ZM152.94 174.16H163.839V72.6278H152.94V174.16ZM165.655 72.6278H165.659H165.655Z" fill="#FFC100"/>
<path d="M5.44918 116.458C2.43978 116.458 0 114.031 0 111.038C0 108.045 2.43978 105.618 5.44918 105.618C37.4925 105.618 72.381 94.0123 103.687 72.9387C132.488 53.5518 155.438 28.1362 166.652 3.20868C167.881 0.476336 171.104 -0.747834 173.851 0.475252C176.598 1.69762 177.829 4.90366 176.599 7.636C164.58 34.3549 140.231 61.429 109.796 81.9158C76.7051 104.19 39.6471 116.458 5.44918 116.458Z" fill="#FFC100"/>
<path d="M180.546 43.965C178.14 43.965 175.938 42.368 175.286 39.9464L167.773 12.0589L139.735 19.5315C136.827 20.3069 133.84 18.5906 133.061 15.6993C132.282 12.8079 134.007 9.83604 136.914 9.06136L170.216 0.186123C173.124 -0.58892 176.111 1.12737 176.89 4.01834L185.813 37.141C186.592 40.0324 184.867 43.0043 181.96 43.7789C181.487 43.9047 181.013 43.965 180.546 43.965Z" fill="#FFC100"/>
</g>
<defs>
<clipPath id="clip0">
<rect width="186" height="185" fill="white"/>
</clipPath>
</defs>
</svg>
