<svg width="185" height="185" viewBox="0 0 185 185" fill="none" xmlns="http://www.w3.org/2000/svg">
<path d="M167.445 60.7031C163.682 60.7031 160.502 63.1283 159.305 66.4843H155.883C151.102 66.4843 147.211 70.3751 147.211 75.1562V80.2553C147.211 84.6722 148.228 89.0804 150.101 93.0839V115.625H106.109L104.534 109.321C109.581 106.228 113.344 101.264 114.865 95.3906H115.625C122.002 95.3906 127.188 90.2048 127.188 83.8281C127.188 81.5416 126.5 79.4228 125.352 77.6277C126.552 72.8871 127.188 68.0193 127.188 63.1254V52.0312C127.188 48.3168 125.398 45.0446 122.669 42.9286L123.381 40.7896C124.699 36.8352 127.76 33.8347 131.541 32.5224C130.061 39.3269 132.078 46.5564 137.172 51.6525L138.383 52.8637C140.484 54.9623 141.641 57.7518 141.641 60.7233C141.641 64.9581 139.288 68.765 135.498 70.6613L131.677 72.572L134.264 77.7433L138.085 75.8326C143.846 72.9536 147.422 67.1636 147.422 60.7233C147.422 56.2082 145.664 51.9676 142.473 48.7764L141.262 47.5652C136.677 42.9778 135.544 35.9998 138.444 30.1983L140.536 26.0156H135.859C127.699 26.0156 120.481 31.2187 117.897 38.9627L117.336 40.6422C116.775 40.5583 116.212 40.4687 115.625 40.4687H114.449C115.206 38.6216 115.625 36.6357 115.625 34.6383C115.625 28.2847 111.627 22.515 105.675 20.2777L101.785 18.8179C96.7984 16.9506 94.0147 11.6463 95.3068 6.47785L96.4746 1.80371L85.1173 4.6452C81.2699 5.60488 77.9428 7.95207 75.743 11.2503C73.419 14.7335 72.5576 19.0868 73.3814 23.1943C74.2052 27.3164 72.1558 31.5078 68.3951 33.3867L67.3429 33.9128C63.1168 28.9293 56.9106 26.0156 50.2824 26.0156H44.4636L46.5564 30.1983C49.4557 35.9998 48.3255 42.9778 43.738 47.5652L42.5269 48.7764C39.3356 51.9676 37.5781 56.2082 37.5781 60.7233C37.5781 67.1636 41.1567 72.9507 46.9148 75.8326L50.7363 77.7433L53.3234 72.572L49.502 70.6613C45.7123 68.765 43.3594 64.9581 43.3594 60.7233C43.3594 57.7547 44.5156 54.9623 46.6142 52.8637L47.8254 51.6525C53.0314 46.4465 55.0202 39.0147 53.358 32.0801C57.7027 32.8953 61.5761 35.4217 64.0794 39.1795L65.4958 41.3012L70.9764 38.5609C77.0641 35.52 80.3825 28.7357 79.047 22.0612C78.5238 19.4481 79.0731 16.6789 80.553 14.4589C81.9521 12.3574 84.0709 10.8658 86.5193 10.253L89.2162 9.57949C89.433 16.0025 93.4684 21.8762 99.7526 24.2321L103.643 25.6918C107.352 27.0851 109.844 30.6811 109.844 34.6383C109.844 36.1154 109.494 37.5897 108.835 38.9136L108.057 40.4687H81.293C68.3459 40.4687 57.8125 51.0021 57.8125 63.9493C57.8125 65.8715 58.0495 67.788 58.5149 69.6438L60.2927 76.7576C58.7635 78.7204 57.8125 81.1543 57.8125 83.8281C57.8125 90.2048 62.9983 95.3906 69.375 95.3906H70.1352C71.6384 101.192 75.3268 106.109 80.2842 109.208L78.6799 115.625H34.6875V93.081C36.5606 89.0804 37.5781 84.6693 37.5781 80.2524V75.1562C37.5781 70.3751 33.6873 66.4843 28.9062 66.4843H25.4837C24.287 63.1283 21.1073 60.7031 17.3438 60.7031C9.3743 60.7031 2.89062 67.1868 2.89062 75.1562V80.2553C2.89062 84.6982 3.88789 89.144 5.78125 93.1648V130.078C5.78125 138.048 12.2649 144.531 20.2344 144.531H60.7031V182.109H124.297V144.531H164.555C172.524 144.531 179.008 138.048 179.008 130.078V93.1619C180.901 89.1411 181.898 84.6953 181.898 80.2524V75.1562C181.898 67.1868 175.415 60.7031 167.445 60.7031ZM106.511 121.406L104.707 134.03L97.1626 129.503L105.259 121.406H106.511ZM92.5 174.403L86.9384 166.986L91.9277 144.531H93.0695L98.0587 166.986L92.5 174.403ZM94.1101 138.75H90.887L88.3375 135.946L92.5 133.449L96.6596 135.946L94.1101 138.75ZM115.625 89.6093V78.0468C118.813 78.0468 121.406 80.6397 121.406 83.8281C121.406 87.0164 118.813 89.6093 115.625 89.6093ZM120.406 73.3293C118.943 72.6616 117.333 72.2656 115.625 72.2656V72.0286C117.718 70.8145 119.597 69.2825 121.207 67.4961C121.045 69.453 120.782 71.4013 120.406 73.3293ZM63.5938 83.8281C63.5938 80.6397 66.1866 78.0468 69.375 78.0468V89.6093C66.1866 89.6093 63.5938 87.0164 63.5938 83.8281ZM70.0225 72.2656H69.375C67.9441 72.2656 66.5884 72.5604 65.3223 73.0374L64.1227 68.239C63.773 66.8428 63.5938 65.3975 63.5938 63.9493C63.5938 54.1905 71.5343 46.25 81.293 46.25H115.625C118.813 46.25 121.406 48.8429 121.406 52.0312C121.406 61.5963 113.628 69.375 104.062 69.375H92.5C89.3116 69.375 86.7188 66.7821 86.7188 63.5937C86.7188 60.4054 89.3116 57.8125 92.5 57.8125V52.0312C86.7679 52.0312 82.0331 56.2313 81.1283 61.7119L77.3647 63.5937C73.7543 65.4004 71.1585 68.5482 70.0225 72.2656ZM75.1562 89.6093V76.5206C75.1562 73.2137 76.9918 70.245 79.9489 68.765L81.7729 67.8516C83.4755 72.1239 87.6322 75.1562 92.5 75.1562H104.062C106.063 75.1562 107.991 74.8758 109.844 74.396V89.6093C109.844 99.1744 102.065 106.953 92.5 106.953C82.9349 106.953 75.1562 99.1744 75.1562 89.6093ZM92.5 112.734C94.8212 112.734 97.0614 112.382 99.1802 111.743L100.695 117.799L92.5 125.991L84.1374 117.628L85.6232 111.688C87.797 112.367 90.1066 112.734 92.5 112.734ZM79.7408 121.406L87.8374 129.503L80.2929 134.03L78.4891 121.406H79.7408ZM8.67188 75.1562C8.67188 70.3751 12.5627 66.4843 17.3438 66.4843C18.1502 66.4843 18.8787 66.8196 19.4048 67.3573C16.4881 68.7535 14.4531 71.7106 14.4531 75.1562C14.4531 79.9373 18.3439 83.8281 23.125 83.8281H26.0156V78.0468H23.125C21.5323 78.0468 20.2344 76.7518 20.2344 75.1562C20.2344 73.5606 21.5323 72.2656 23.125 72.2656H28.9062C30.499 72.2656 31.7969 73.5606 31.7969 75.1562V80.2553C31.7969 83.4523 31.158 86.6522 29.9382 89.6093H10.571C9.34828 86.6493 8.67188 83.4581 8.67188 80.2553V75.1562ZM60.2175 131.364L55.4075 134.57L58.1941 138.75H20.2344C15.4533 138.75 11.5625 134.859 11.5625 130.078V95.3906H28.9062V127.187H34.6875V121.406H72.6501L75.8009 143.47L83.2847 138.981L86.4615 142.479L80.7178 168.33L86.7188 176.328H66.4844V140.765L60.2175 131.364ZM164.555 138.75H126.806L129.592 134.573L124.783 131.367L118.516 140.765V176.328H98.2812L104.282 168.327L98.5385 142.476L101.715 138.978L109.199 143.467L112.35 121.406H150.101V127.187H155.883V95.3906H173.226V130.078C173.226 134.859 169.339 138.75 164.555 138.75ZM176.117 80.2553C176.117 83.4581 175.441 86.6493 174.218 89.6093H154.851C153.634 86.6522 152.992 83.4523 152.992 80.2553V75.1562C152.992 73.5606 154.29 72.2656 155.883 72.2656H161.664C163.257 72.2656 164.555 73.5606 164.555 75.1562C164.555 76.7518 163.257 78.0468 161.664 78.0468H158.773V83.8281H161.664C166.445 83.8281 170.336 79.9373 170.336 75.1562C170.336 71.7106 168.301 68.7535 165.384 67.3573C165.91 66.8196 166.639 66.4843 167.445 66.4843C172.226 66.4843 176.117 70.3751 176.117 75.1562V80.2553Z" fill="#FFC100"/>
<path d="M29.7529 159.832L33.8403 163.919L37.5778 160.182V182.11H43.3591V160.182L47.0967 163.919L51.184 159.832L40.4685 149.116L29.7529 159.832Z" fill="#FFC100"/>
<path d="M133.815 159.832L137.903 163.919L141.64 160.182V182.11H147.422V160.182L151.159 163.919L155.247 159.832L144.531 149.116L133.815 159.832Z" fill="#FFC100"/>
<path d="M103.453 94.4021L103.756 93.7922L98.585 91.2051L98.2815 91.8179C97.1802 94.0205 94.9659 95.3907 92.5002 95.3907C90.0345 95.3907 87.8203 94.0205 86.719 91.8179L86.4155 91.208L81.2441 93.7951L81.5477 94.405C83.6347 98.5791 87.8319 101.172 92.5002 101.172C97.1686 101.172 101.366 98.5791 103.453 94.4021Z" fill="#FFC100"/>
</svg>
