<svg width="470" height="231" viewBox="0 0 470 231" fill="none" xmlns="http://www.w3.org/2000/svg">
<path d="M69.3864 33H72.9864L65.5164 12.12H61.5564L54.0864 33H57.6564L59.1564 28.74H67.8864L69.3864 33ZM66.9264 25.95H60.1164L63.5364 16.26L66.9264 25.95ZM75.0944 24.72C75.0944 29.91 78.4544 33.27 83.1944 33.27C87.2444 33.27 89.8844 31.02 90.8144 27.78H87.1244C86.4944 29.49 85.2344 30.39 83.1944 30.39C80.4344 30.39 78.6044 28.35 78.6044 24.72C78.6044 21.12 80.4344 19.08 83.1944 19.08C85.2344 19.08 86.5544 20.1 87.1244 21.69H90.8144C89.8844 18.21 87.2444 16.2 83.1944 16.2C78.4544 16.2 75.0944 19.56 75.0944 24.72ZM93.0827 24.72C93.0827 29.91 96.4427 33.27 101.183 33.27C105.233 33.27 107.873 31.02 108.803 27.78H105.113C104.483 29.49 103.223 30.39 101.183 30.39C98.4227 30.39 96.5927 28.35 96.5927 24.72C96.5927 21.12 98.4227 19.08 101.183 19.08C103.223 19.08 104.543 20.1 105.113 21.69H108.803C107.873 18.21 105.233 16.2 101.183 16.2C96.4427 16.2 93.0827 19.56 93.0827 24.72ZM119.171 19.08C121.721 19.08 123.731 20.7 123.791 23.25H114.641C115.001 20.64 116.861 19.08 119.171 19.08ZM126.911 28.08H123.221C122.591 29.37 121.421 30.39 119.321 30.39C116.801 30.39 114.851 28.74 114.611 26.01H127.241C127.331 25.44 127.361 24.9 127.361 24.33C127.361 19.47 124.031 16.2 119.321 16.2C114.431 16.2 111.071 19.53 111.071 24.72C111.071 29.91 114.581 33.27 119.321 33.27C123.371 33.27 125.981 30.96 126.911 28.08ZM143.057 28.38C142.877 22.41 133.547 24.27 133.547 20.94C133.547 19.83 134.507 19.08 136.337 19.08C138.197 19.08 139.307 20.07 139.427 21.51H142.847C142.667 18.21 140.207 16.2 136.457 16.2C132.557 16.2 130.097 18.33 130.097 20.97C130.097 27.03 139.697 25.17 139.697 28.41C139.697 29.55 138.647 30.39 136.667 30.39C134.777 30.39 133.487 29.28 133.367 27.93H129.827C129.977 30.93 132.767 33.27 136.727 33.27C140.627 33.27 143.057 31.17 143.057 28.38ZM159.082 28.38C158.902 22.41 149.572 24.27 149.572 20.94C149.572 19.83 150.532 19.08 152.362 19.08C154.222 19.08 155.332 20.07 155.452 21.51H158.872C158.692 18.21 156.232 16.2 152.482 16.2C148.582 16.2 146.122 18.33 146.122 20.97C146.122 27.03 155.722 25.17 155.722 28.41C155.722 29.55 154.672 30.39 152.692 30.39C150.802 30.39 149.512 29.28 149.392 27.93H145.852C146.002 30.93 148.792 33.27 152.752 33.27C156.652 33.27 159.082 31.17 159.082 28.38ZM171.11 28.41C171.11 31.77 172.94 33 175.88 33H178.58V30.15H176.48C175.04 30.15 174.56 29.64 174.56 28.41V19.26H178.58V16.47H174.56V12.36H171.11V16.47H169.16V19.26H171.11V28.41ZM197.482 24.72C197.482 19.53 193.762 16.2 189.052 16.2C184.342 16.2 180.622 19.53 180.622 24.72C180.622 29.91 184.192 33.27 188.902 33.27C193.642 33.27 197.482 29.91 197.482 24.72ZM184.102 24.72C184.102 20.97 186.412 19.17 188.992 19.17C191.542 19.17 193.972 20.97 193.972 24.72C193.972 28.47 191.452 30.3 188.902 30.3C186.322 30.3 184.102 28.47 184.102 24.72ZM209.196 28.41C209.196 31.77 211.026 33 213.966 33H216.666V30.15H214.566C213.126 30.15 212.646 29.64 212.646 28.41V19.26H216.666V16.47H212.646V12.36H209.196V16.47H207.246V19.26H209.196V28.41ZM219.818 33H223.238V23.76C223.238 20.73 224.888 19.17 227.408 19.17C229.898 19.17 231.548 20.73 231.548 23.76V33H234.938V23.25C234.938 18.63 232.058 16.2 228.368 16.2C226.238 16.2 224.378 17.01 223.238 18.39V10.8H219.818V33ZM246.261 19.08C248.811 19.08 250.821 20.7 250.881 23.25H241.731C242.091 20.64 243.951 19.08 246.261 19.08ZM254.001 28.08H250.311C249.681 29.37 248.511 30.39 246.411 30.39C243.891 30.39 241.941 28.74 241.701 26.01H254.331C254.421 25.44 254.451 24.9 254.451 24.33C254.451 19.47 251.121 16.2 246.411 16.2C241.521 16.2 238.161 19.53 238.161 24.72C238.161 29.91 241.671 33.27 246.411 33.27C250.461 33.27 253.071 30.96 254.001 28.08ZM264.469 24.72C264.469 29.91 267.829 33.27 272.569 33.27C276.619 33.27 279.259 31.02 280.189 27.78H276.499C275.869 29.49 274.609 30.39 272.569 30.39C269.809 30.39 267.979 28.35 267.979 24.72C267.979 21.12 269.809 19.08 272.569 19.08C274.609 19.08 275.929 20.1 276.499 21.69H280.189C279.259 18.21 276.619 16.2 272.569 16.2C267.829 16.2 264.469 19.56 264.469 24.72ZM299.348 24.72C299.348 19.53 295.628 16.2 290.918 16.2C286.208 16.2 282.488 19.53 282.488 24.72C282.488 29.91 286.058 33.27 290.768 33.27C295.508 33.27 299.348 29.91 299.348 24.72ZM285.968 24.72C285.968 20.97 288.278 19.17 290.858 19.17C293.408 19.17 295.838 20.97 295.838 24.72C295.838 28.47 293.318 30.3 290.768 30.3C288.188 30.3 285.968 28.47 285.968 24.72ZM326.159 33H329.549V23.25C329.549 18.63 326.609 16.2 322.739 16.2C320.339 16.2 317.999 17.46 316.979 19.47C315.839 17.31 313.649 16.2 311.039 16.2C309.059 16.2 307.259 17.01 306.149 18.36V16.47H302.729V33H306.149V23.76C306.149 20.73 307.799 19.17 310.319 19.17C312.809 19.17 314.459 20.73 314.459 23.76V33H317.849V23.76C317.849 20.73 319.499 19.17 322.019 19.17C324.509 19.17 326.159 20.73 326.159 23.76V33ZM357.33 33H360.72V23.25C360.72 18.63 357.78 16.2 353.91 16.2C351.51 16.2 349.17 17.46 348.15 19.47C347.01 17.31 344.82 16.2 342.21 16.2C340.23 16.2 338.43 17.01 337.32 18.36V16.47H333.9V33H337.32V23.76C337.32 20.73 338.97 19.17 341.49 19.17C343.98 19.17 345.63 20.73 345.63 23.76V33H349.02V23.76C349.02 20.73 350.67 19.17 353.19 19.17C355.68 19.17 357.33 20.73 357.33 23.76V33ZM380.042 16.47H376.622V25.68C376.622 28.71 374.972 30.27 372.452 30.27C369.962 30.27 368.312 28.71 368.312 25.68V16.47H364.922V26.19C364.922 30.81 367.862 33.24 371.732 33.24C373.682 33.24 375.542 32.43 376.622 31.02V33H380.042V16.47ZM396.285 33H399.675V23.25C399.675 18.63 396.765 16.2 392.895 16.2C390.915 16.2 389.085 17.01 387.975 18.36V16.47H384.555V33H387.975V23.76C387.975 20.73 389.625 19.17 392.145 19.17C394.635 19.17 396.285 20.73 396.285 23.76V33ZM404.037 33H407.457V16.47H404.037V33ZM405.777 14.28C406.977 14.28 407.937 13.32 407.937 12.09C407.937 10.86 406.977 9.9 405.777 9.9C404.547 9.9 403.587 10.86 403.587 12.09C403.587 13.32 404.547 14.28 405.777 14.28ZM412.487 28.41C412.487 31.77 414.317 33 417.257 33H419.957V30.15H417.857C416.417 30.15 415.937 29.64 415.937 28.41V19.26H419.957V16.47H415.937V12.36H412.487V16.47H410.537V19.26H412.487V28.41ZM429.619 29.07L424.969 16.47H421.159L427.669 32.73L424.309 40.77H427.849L437.989 16.47H434.449L429.619 29.07Z" fill="black"/>
<path d="M7.26667 22.5333L12.6381 27.0095L19.8 18.0571M13.5333 35.0667C11.8874 35.0667 10.2576 34.7425 8.73703 34.1126C7.21642 33.4828 5.83476 32.5596 4.67093 31.3957C3.5071 30.2319 2.5839 28.8502 1.95404 27.3296C1.32418 25.809 1 24.1792 1 22.5333C1 20.8874 1.32418 19.2576 1.95404 17.737C2.5839 16.2164 3.5071 14.8348 4.67093 13.6709C5.83476 12.5071 7.21642 11.5839 8.73703 10.954C10.2576 10.3242 11.8874 10 13.5333 10C16.8574 10 20.0453 11.3205 22.3957 13.6709C24.7462 16.0214 26.0667 19.2093 26.0667 22.5333C26.0667 25.8574 24.7462 29.0453 22.3957 31.3957C20.0453 33.7462 16.8574 35.0667 13.5333 35.0667Z" stroke="#FFC100"/>
<path d="M174.026 136.12V151.66L163.736 136.12H160.316V157H163.736V141.43L174.026 157H177.446V136.12H174.026ZM188.898 143.08C191.448 143.08 193.458 144.7 193.518 147.25H184.368C184.728 144.64 186.588 143.08 188.898 143.08ZM196.637 152.08H192.948C192.318 153.37 191.148 154.39 189.048 154.39C186.528 154.39 184.578 152.74 184.338 150.01H196.968C197.058 149.44 197.088 148.9 197.088 148.33C197.088 143.47 193.758 140.2 189.048 140.2C184.158 140.2 180.798 143.53 180.798 148.72C180.798 153.91 184.308 157.27 189.048 157.27C193.098 157.27 195.708 154.96 196.637 152.08ZM200.993 152.41C200.993 155.77 202.823 157 205.763 157H208.463V154.15H206.363C204.923 154.15 204.443 153.64 204.443 152.41V143.26H208.463V140.47H204.443V136.36H200.993V140.47H199.043V143.26H200.993V152.41ZM214.825 157H218.425L221.755 144.79L225.085 157H228.685L233.815 140.47H230.455L227.035 153.7L223.675 140.47H220.105L216.595 153.76L213.145 140.47H209.665L214.825 157ZM252.121 148.72C252.121 143.53 248.401 140.2 243.691 140.2C238.981 140.2 235.261 143.53 235.261 148.72C235.261 153.91 238.831 157.27 243.541 157.27C248.281 157.27 252.121 153.91 252.121 148.72ZM238.741 148.72C238.741 144.97 241.051 143.17 243.631 143.17C246.181 143.17 248.611 144.97 248.611 148.72C248.611 152.47 246.091 154.3 243.541 154.3C240.961 154.3 238.741 152.47 238.741 148.72ZM258.922 148.3C258.922 144.79 260.482 143.74 263.002 143.74H263.872V140.2C261.532 140.2 259.882 141.22 258.922 142.87V140.47H255.502V157H258.922V148.3ZM267.016 157H270.436V149.89L276.556 157H281.176L273.556 148.75L281.176 140.47H276.436L270.436 147.7V134.8H267.016V157ZM283.627 157H287.047V140.47H283.627V157ZM285.367 138.28C286.567 138.28 287.527 137.32 287.527 136.09C287.527 134.86 286.567 133.9 285.367 133.9C284.137 133.9 283.177 134.86 283.177 136.09C283.177 137.32 284.137 138.28 285.367 138.28ZM303.267 157H306.657V147.25C306.657 142.63 303.747 140.2 299.877 140.2C297.897 140.2 296.067 141.01 294.957 142.36V140.47H291.537V157H294.957V147.76C294.957 144.73 296.607 143.17 299.127 143.17C301.617 143.17 303.267 144.73 303.267 147.76V157ZM309.88 148.66C309.88 153.76 313.33 157.27 317.68 157.27C320.38 157.27 322.36 155.92 323.41 154.51V157.27C323.41 160.57 321.43 162.19 318.79 162.19C316.42 162.19 314.59 161.02 314.08 159.31H310.69C311.11 162.97 314.38 165.16 318.79 165.16C323.95 165.16 326.86 161.77 326.86 157.27V140.47H323.41V142.87C322.39 141.46 320.38 140.2 317.68 140.2C313.33 140.2 309.88 143.56 309.88 148.66ZM323.41 148.72C323.41 152.29 320.98 154.3 318.4 154.3C315.85 154.3 313.39 152.23 313.39 148.66C313.39 145.09 315.85 143.17 318.4 143.17C320.98 143.17 323.41 145.18 323.41 148.72Z" fill="black"/>
<path d="M112.267 146.533L117.638 151.01L124.8 142.057M118.533 159.067C116.887 159.067 115.258 158.742 113.737 158.113C112.216 157.483 110.835 156.56 109.671 155.396C108.507 154.232 107.584 152.85 106.954 151.33C106.324 149.809 106 148.179 106 146.533C106 144.887 106.324 143.258 106.954 141.737C107.584 140.216 108.507 138.835 109.671 137.671C110.835 136.507 112.216 135.584 113.737 134.954C115.258 134.324 116.887 134 118.533 134C121.857 134 125.045 135.32 127.396 137.671C129.746 140.021 131.067 143.209 131.067 146.533C131.067 149.857 129.746 153.045 127.396 155.396C125.045 157.746 121.857 159.067 118.533 159.067Z" stroke="#FFC100"/>
<path d="M108.25 95H111.67V85.88H118.57V83.09H111.67V76.94H120.52V74.15H108.25V95ZM123.689 95H127.109V78.47H123.689V95ZM125.429 76.28C126.629 76.28 127.589 75.32 127.589 74.09C127.589 72.86 126.629 71.9 125.429 71.9C124.199 71.9 123.239 72.86 123.239 74.09C123.239 75.32 124.199 76.28 125.429 76.28ZM143.33 95H146.72V85.25C146.72 80.63 143.81 78.2 139.94 78.2C137.96 78.2 136.13 79.01 135.02 80.36V78.47H131.6V95H135.02V85.76C135.02 82.73 136.67 81.17 139.19 81.17C141.68 81.17 143.33 82.73 143.33 85.76V95ZM149.942 86.66C149.942 91.76 153.392 95.27 157.682 95.27C160.442 95.27 162.422 93.95 163.472 92.54V95H166.922V78.47H163.472V80.87C162.452 79.52 160.532 78.2 157.742 78.2C153.392 78.2 149.942 81.56 149.942 86.66ZM163.472 86.72C163.472 90.29 161.042 92.3 158.462 92.3C155.912 92.3 153.452 90.23 153.452 86.66C153.452 83.09 155.912 81.17 158.462 81.17C161.042 81.17 163.472 83.18 163.472 86.72ZM183.144 95H186.534V85.25C186.534 80.63 183.624 78.2 179.754 78.2C177.774 78.2 175.944 79.01 174.834 80.36V78.47H171.414V95H174.834V85.76C174.834 82.73 176.484 81.17 179.004 81.17C181.494 81.17 183.144 82.73 183.144 85.76V95ZM189.756 86.72C189.756 91.91 193.116 95.27 197.856 95.27C201.906 95.27 204.546 93.02 205.476 89.78H201.786C201.156 91.49 199.896 92.39 197.856 92.39C195.096 92.39 193.266 90.35 193.266 86.72C193.266 83.12 195.096 81.08 197.856 81.08C199.896 81.08 201.216 82.1 201.786 83.69H205.476C204.546 80.21 201.906 78.2 197.856 78.2C193.116 78.2 189.756 81.56 189.756 86.72ZM208.885 95H212.305V78.47H208.885V95ZM210.625 76.28C211.825 76.28 212.785 75.32 212.785 74.09C212.785 72.86 211.825 71.9 210.625 71.9C209.395 71.9 208.435 72.86 208.435 74.09C208.435 75.32 209.395 76.28 210.625 76.28ZM215.655 86.66C215.655 91.76 219.105 95.27 223.395 95.27C226.155 95.27 228.135 93.95 229.185 92.54V95H232.635V78.47H229.185V80.87C228.165 79.52 226.245 78.2 223.455 78.2C219.105 78.2 215.655 81.56 215.655 86.66ZM229.185 86.72C229.185 90.29 226.755 92.3 224.175 92.3C221.625 92.3 219.165 90.23 219.165 86.66C219.165 83.09 221.625 81.17 224.175 81.17C226.755 81.17 229.185 83.18 229.185 86.72ZM237.127 95H240.547V72.8H237.127V95ZM252.83 95H256.25V74.15H252.83V95ZM272.47 95H275.86V85.25C275.86 80.63 272.95 78.2 269.08 78.2C267.1 78.2 265.27 79.01 264.16 80.36V78.47H260.74V95H264.16V85.76C264.16 82.73 265.81 81.17 268.33 81.17C270.82 81.17 272.47 82.73 272.47 85.76V95ZM279.083 86.66C279.083 91.76 282.533 95.27 286.883 95.27C289.583 95.27 291.563 94.01 292.613 92.51V95H296.063V72.8H292.613V80.78C291.353 79.22 289.073 78.2 286.913 78.2C282.533 78.2 279.083 81.56 279.083 86.66ZM292.613 86.72C292.613 90.29 290.183 92.3 287.603 92.3C285.053 92.3 282.593 90.23 282.593 86.66C282.593 83.09 285.053 81.17 287.603 81.17C290.183 81.17 292.613 83.18 292.613 86.72ZM307.515 81.08C310.065 81.08 312.075 82.7 312.135 85.25H302.985C303.345 82.64 305.205 81.08 307.515 81.08ZM315.255 90.08H311.565C310.935 91.37 309.765 92.39 307.665 92.39C305.145 92.39 303.195 90.74 302.955 88.01H315.585C315.675 87.44 315.705 86.9 315.705 86.33C315.705 81.47 312.375 78.2 307.665 78.2C302.775 78.2 299.415 81.53 299.415 86.72C299.415 91.91 302.925 95.27 307.665 95.27C311.715 95.27 314.325 92.96 315.255 90.08ZM322.49 80.9V78.47H319.07V102.86H322.49V92.6C323.57 93.89 325.52 95.27 328.25 95.27C332.6 95.27 336.02 91.76 336.02 86.66C336.02 81.56 332.6 78.2 328.25 78.2C325.55 78.2 323.54 79.52 322.49 80.9ZM332.54 86.66C332.54 90.23 330.08 92.3 327.5 92.3C324.95 92.3 322.49 90.29 322.49 86.72C322.49 83.18 324.95 81.17 327.5 81.17C330.08 81.17 332.54 83.09 332.54 86.66ZM346.362 81.08C348.912 81.08 350.922 82.7 350.982 85.25H341.832C342.192 82.64 344.052 81.08 346.362 81.08ZM354.102 90.08H350.412C349.782 91.37 348.612 92.39 346.512 92.39C343.992 92.39 342.042 90.74 341.802 88.01H354.432C354.522 87.44 354.552 86.9 354.552 86.33C354.552 81.47 351.222 78.2 346.512 78.2C341.622 78.2 338.262 81.53 338.262 86.72C338.262 91.91 341.772 95.27 346.512 95.27C350.562 95.27 353.172 92.96 354.102 90.08ZM369.648 95H373.038V85.25C373.038 80.63 370.128 78.2 366.258 78.2C364.278 78.2 362.448 79.01 361.338 80.36V78.47H357.918V95H361.338V85.76C361.338 82.73 362.988 81.17 365.508 81.17C367.998 81.17 369.648 82.73 369.648 85.76V95ZM376.26 86.66C376.26 91.76 379.71 95.27 384.06 95.27C386.76 95.27 388.74 94.01 389.79 92.51V95H393.24V72.8H389.79V80.78C388.53 79.22 386.25 78.2 384.09 78.2C379.71 78.2 376.26 81.56 376.26 86.66ZM389.79 86.72C389.79 90.29 387.36 92.3 384.78 92.3C382.23 92.3 379.77 90.23 379.77 86.66C379.77 83.09 382.23 81.17 384.78 81.17C387.36 81.17 389.79 83.18 389.79 86.72ZM404.692 81.08C407.242 81.08 409.252 82.7 409.312 85.25H400.162C400.522 82.64 402.382 81.08 404.692 81.08ZM412.432 90.08H408.742C408.112 91.37 406.942 92.39 404.842 92.39C402.322 92.39 400.372 90.74 400.132 88.01H412.762C412.852 87.44 412.882 86.9 412.882 86.33C412.882 81.47 409.552 78.2 404.842 78.2C399.952 78.2 396.592 81.53 396.592 86.72C396.592 91.91 400.102 95.27 404.842 95.27C408.892 95.27 411.502 92.96 412.432 90.08ZM427.978 95H431.368V85.25C431.368 80.63 428.458 78.2 424.588 78.2C422.608 78.2 420.778 79.01 419.668 80.36V78.47H416.248V95H419.668V85.76C419.668 82.73 421.318 81.17 423.838 81.17C426.328 81.17 427.978 82.73 427.978 85.76V95ZM434.59 86.72C434.59 91.91 437.95 95.27 442.69 95.27C446.74 95.27 449.38 93.02 450.31 89.78H446.62C445.99 91.49 444.73 92.39 442.69 92.39C439.93 92.39 438.1 90.35 438.1 86.72C438.1 83.12 439.93 81.08 442.69 81.08C444.73 81.08 446.05 82.1 446.62 83.69H450.31C449.38 80.21 446.74 78.2 442.69 78.2C437.95 78.2 434.59 81.56 434.59 86.72ZM460.679 81.08C463.229 81.08 465.239 82.7 465.299 85.25H456.149C456.509 82.64 458.369 81.08 460.679 81.08ZM468.419 90.08H464.729C464.099 91.37 462.929 92.39 460.829 92.39C458.309 92.39 456.359 90.74 456.119 88.01H468.749C468.839 87.44 468.869 86.9 468.869 86.33C468.869 81.47 465.539 78.2 460.829 78.2C455.939 78.2 452.579 81.53 452.579 86.72C452.579 91.91 456.089 95.27 460.829 95.27C464.879 95.27 467.489 92.96 468.419 90.08Z" fill="black"/>
<path d="M59.2667 84.5333L64.6381 89.0095L71.8 80.0571M65.5333 97.0667C63.8874 97.0667 62.2576 96.7425 60.737 96.1126C59.2164 95.4828 57.8348 94.5596 56.6709 93.3957C55.5071 92.2319 54.5839 90.8502 53.954 89.3296C53.3242 87.809 53 86.1792 53 84.5333C53 82.8874 53.3242 81.2576 53.954 79.737C54.5839 78.2164 55.5071 76.8348 56.6709 75.6709C57.8348 74.5071 59.2164 73.5839 60.737 72.954C62.2576 72.3242 63.8874 72 65.5333 72C68.8574 72 72.0453 73.3205 74.3957 75.6709C76.7462 78.0214 78.0667 81.2093 78.0667 84.5333C78.0667 87.8574 76.7462 91.0453 74.3957 93.3957C72.0453 95.7462 68.8574 97.0667 65.5333 97.0667Z" stroke="#FFC100"/>
<path d="M215.25 219H218.67V198.15H215.25V219ZM234.89 219H238.28V209.25C238.28 204.63 235.37 202.2 231.5 202.2C229.52 202.2 227.69 203.01 226.58 204.36V202.47H223.16V219H226.58V209.76C226.58 206.73 228.23 205.17 230.75 205.17C233.24 205.17 234.89 206.73 234.89 209.76V219ZM243.183 214.41C243.183 217.77 245.013 219 247.953 219H250.653V216.15H248.553C247.113 216.15 246.633 215.64 246.633 214.41V205.26H250.653V202.47H246.633V198.36H243.183V202.47H241.233V205.26H243.183V214.41ZM260.765 205.08C263.315 205.08 265.325 206.7 265.385 209.25H256.235C256.595 206.64 258.455 205.08 260.765 205.08ZM268.505 214.08H264.815C264.185 215.37 263.015 216.39 260.915 216.39C258.395 216.39 256.445 214.74 256.205 212.01H268.835C268.925 211.44 268.955 210.9 268.955 210.33C268.955 205.47 265.625 202.2 260.915 202.2C256.025 202.2 252.665 205.53 252.665 210.72C252.665 215.91 256.175 219.27 260.915 219.27C264.965 219.27 267.575 216.96 268.505 214.08ZM275.74 210.3C275.74 206.79 277.3 205.74 279.82 205.74H280.69V202.2C278.35 202.2 276.7 203.22 275.74 204.87V202.47H272.32V219H275.74V210.3ZM295.564 219H298.954V209.25C298.954 204.63 296.044 202.2 292.174 202.2C290.194 202.2 288.364 203.01 287.254 204.36V202.47H283.834V219H287.254V209.76C287.254 206.73 288.904 205.17 291.424 205.17C293.914 205.17 295.564 206.73 295.564 209.76V219ZM315.646 214.38C315.466 208.41 306.136 210.27 306.136 206.94C306.136 205.83 307.096 205.08 308.926 205.08C310.786 205.08 311.896 206.07 312.016 207.51H315.436C315.256 204.21 312.796 202.2 309.046 202.2C305.146 202.2 302.686 204.33 302.686 206.97C302.686 213.03 312.286 211.17 312.286 214.41C312.286 215.55 311.236 216.39 309.256 216.39C307.366 216.39 306.076 215.28 305.956 213.93H302.416C302.566 216.93 305.356 219.27 309.316 219.27C313.216 219.27 315.646 217.17 315.646 214.38ZM319.342 219H322.762V209.76C322.762 206.73 324.412 205.17 326.932 205.17C329.422 205.17 331.072 206.73 331.072 209.76V219H334.462V209.25C334.462 204.63 331.582 202.2 327.892 202.2C325.762 202.2 323.902 203.01 322.762 204.39V196.8H319.342V219ZM338.824 219H342.244V202.47H338.824V219ZM340.564 200.28C341.764 200.28 342.724 199.32 342.724 198.09C342.724 196.86 341.764 195.9 340.564 195.9C339.334 195.9 338.374 196.86 338.374 198.09C338.374 199.32 339.334 200.28 340.564 200.28ZM350.154 204.9V202.47H346.734V226.86H350.154V216.6C351.234 217.89 353.184 219.27 355.914 219.27C360.264 219.27 363.684 215.76 363.684 210.66C363.684 205.56 360.264 202.2 355.914 202.2C353.214 202.2 351.204 203.52 350.154 204.9ZM360.204 210.66C360.204 214.23 357.744 216.3 355.164 216.3C352.614 216.3 350.154 214.29 350.154 210.72C350.154 207.18 352.614 205.17 355.164 205.17C357.744 205.17 360.204 207.09 360.204 210.66Z" fill="black"/>
<path d="M166.267 208.533L171.638 213.01L178.8 204.057M172.533 221.067C170.887 221.067 169.258 220.742 167.737 220.113C166.216 219.483 164.835 218.56 163.671 217.396C162.507 216.232 161.584 214.85 160.954 213.33C160.324 211.809 160 210.179 160 208.533C160 206.887 160.324 205.258 160.954 203.737C161.584 202.216 162.507 200.835 163.671 199.671C164.835 198.507 166.216 197.584 167.737 196.954C169.258 196.324 170.887 196 172.533 196C175.857 196 179.045 197.32 181.396 199.671C183.746 202.021 185.067 205.209 185.067 208.533C185.067 211.857 183.746 215.045 181.396 217.396C179.045 219.746 175.857 221.067 172.533 221.067Z" stroke="#FFC100"/>
</svg>
