<svg width="701" height="359" viewBox="0 0 701 359" fill="none" xmlns="http://www.w3.org/2000/svg">
<path d="M34.9537 358.894C34.9537 358.894 -40.2468 198.688 107.973 198.688C186.286 198.688 154.019 154.724 207.247 103.868C260.475 53.0118 446.681 12.3482 486.289 110.574C525.925 208.8 427.98 283.394 522.626 270.594C636.345 255.212 681.273 358.894 681.273 358.894H34.9537Z" fill="#FBECDB"/>
<path d="M644.006 338.562C636.983 333.426 622.645 336.885 612.058 340.611C610.489 338.376 608.547 336.087 606.232 333.852C629.029 319.162 660.525 287.812 643.819 285.178C629.322 282.862 609.744 311.071 599.263 328.236C588.41 320.918 571.758 315.542 546.327 317.405C480.357 322.249 428.805 279.669 390.819 293.88C360.601 305.163 332.936 311.497 306.229 309.342C307.372 289.835 307.638 251.513 292.316 247.548C276.782 243.503 292.024 287.014 300.483 308.73C298.488 308.463 296.519 308.171 294.524 307.825C289.045 296.993 280 282.836 270.052 282.357C260.688 281.904 272.233 294.652 283.591 305.43C250.952 298.564 212.221 325.123 211.583 356.525H619.187C619.187 356.525 618.469 351.948 615.277 345.907C631.051 345.561 651.613 344.15 644.006 338.562Z" fill="#A8D29F"/>
<path d="M300.536 332.229H193.122V356.499H300.536V332.229Z" fill="#4A75CB"/>
<path d="M267.418 332.229H160.004V356.499H267.418V332.229Z" fill="#699DEE"/>
<path d="M342.815 356.5H422.804V244.648H342.815V356.5Z" fill="#D86713"/>
<path d="M318.145 356.5H398.134V244.648H318.145V356.5Z" fill="#F1A34F"/>
<path d="M398.135 244.646L422.794 261.439V244.646H398.135Z" fill="#C95C12"/>
<path d="M151.199 269.422C151.199 269.422 136.25 280.546 133.323 279.881C130.397 279.216 144.256 267.879 144.256 267.879C139.043 265.377 122.843 266.947 122.843 266.947C122.843 266.947 117.443 284.352 114.783 282.995C112.123 281.611 120.342 267.826 120.342 267.826C114.543 267.48 107.414 271.791 107.414 271.791C97.6783 279.482 108.053 291.617 108.053 291.617C108.053 291.617 106.058 297.605 99.8862 303.06C99.8862 303.06 91.1079 309.554 90.4961 321.183L92.0921 321.316C92.0921 321.316 94.6192 310.485 99.2212 305.376C99.4074 305.189 99.6468 304.923 99.9926 304.604C100.737 303.912 101.269 303.38 101.615 303.007C103.903 300.798 107.068 298.004 108.585 297.738C108.585 297.738 108.505 297.445 108.531 296.966C108.558 297.206 108.585 297.472 108.585 297.738C109.117 303.859 120.981 309.208 128.296 310.325C135.611 311.417 133.35 308.409 130.823 303.965C128.296 299.521 120.342 297.525 118.507 295.449C116.698 293.4 120.449 293.4 124.864 295.396C129.28 297.418 129.865 302.768 136.941 306.147C144.017 309.527 154.631 297.791 154.631 297.791C148.991 297.498 140.958 291.377 141.25 289.515C141.543 287.652 154.897 292.735 157.184 293.001C159.472 293.24 164.659 290.393 165.457 281.212C166.282 271.977 151.199 269.422 151.199 269.422Z" fill="#82B378"/>
<path d="M71.769 276.342C71.769 276.342 88.2881 267.081 80.5739 254.52C80.5739 254.52 74.4025 246.803 67.8055 244.833C67.8055 244.833 71.3434 263.568 67.8055 264.021C64.2676 264.473 65.3848 242.864 65.3848 242.864C65.3848 242.864 47.9879 234.481 41.1515 235.146C41.1515 235.146 51.9514 253.429 48.4135 253.003C44.8756 252.551 32.7722 234.055 32.7722 234.055C32.7722 234.055 14.9231 230.755 12.0768 241.32C9.20392 251.912 13.8325 257.181 16.4925 257.847C19.126 258.512 36.0973 258.299 35.6717 260.481C35.2195 262.69 23.7812 266.203 17.397 264.234C17.397 264.234 24.4462 281.638 33.7033 280.76C42.9603 279.882 45.8066 274.16 51.5524 273.708C57.2982 273.255 61.4745 274.799 58.6016 276.342C55.7287 277.886 46.046 276.848 41.4175 280.786C36.7889 284.725 33.0382 287.147 41.6303 288.903C50.2224 290.66 65.6508 289.569 68.7365 282.942C71.769 276.342 71.769 276.342 71.769 276.342Z" fill="#A8D29F"/>
<path d="M76.1583 292.416C71.5297 283.82 71.7425 276.316 71.7425 276.316C66.4756 259.576 20.2168 244.594 20.2168 244.594C79.0311 268.385 68.6834 282.942 68.6834 282.942C70.2795 283.874 72.6469 288.291 74.2962 291.671C74.5356 292.256 74.908 293.055 75.4666 294.119C75.6794 294.598 75.8657 294.997 75.9987 295.29C79.0311 302.875 77.4351 315.968 77.4351 315.968L79.2705 316.474C83.3139 303.247 76.1583 292.416 76.1583 292.416Z" fill="#82B378"/>
<path d="M98.0509 263.568C98.0509 263.568 76.2648 251.353 86.4263 234.8C86.4263 234.8 94.5662 224.634 103.265 222.026C103.265 222.026 98.6095 246.722 103.265 247.308C107.92 247.893 106.457 219.418 106.457 219.418C106.457 219.418 129.387 208.374 138.404 209.252C138.404 209.252 124.173 233.363 128.828 232.777C133.483 232.192 149.444 207.788 149.444 207.788C149.444 207.788 172.959 203.424 176.736 217.369C180.513 231.314 174.422 238.286 170.937 239.164C167.452 240.043 145.081 239.75 145.666 242.651C146.251 245.551 161.361 250.208 169.767 247.6C169.767 247.6 160.483 270.54 148.273 269.396C136.063 268.225 132.313 260.667 124.758 260.108C117.203 259.523 111.697 261.572 115.474 263.594C119.252 265.617 132.02 264.26 138.138 269.449C144.23 274.639 149.178 277.832 137.846 280.147C126.514 282.463 106.191 281.025 102.121 272.297C98.0509 263.568 98.0509 263.568 98.0509 263.568Z" fill="#A8D29F"/>
<path d="M165.99 221.733C165.99 221.733 104.994 241.48 98.0245 263.568C98.0245 263.568 98.3171 273.441 92.2255 284.778C92.2255 284.778 82.8088 299.069 88.1822 316.447L90.6028 315.808C90.6028 315.808 88.4748 298.563 92.4915 288.557C92.6511 288.184 92.8905 287.652 93.1831 287.013C93.9013 285.576 94.4067 284.538 94.6994 283.767C96.8806 279.296 100.02 273.494 102.094 272.27C102.121 272.27 88.4748 253.109 165.99 221.733Z" fill="#82B378"/>
<path d="M97.3061 354.156C120.874 354.156 139.974 335.048 139.974 311.47H54.665C54.665 335.048 73.7644 354.156 97.3061 354.156Z" fill="#F1A34F"/>
<path d="M107.813 353.836C106.084 354.049 104.301 354.156 102.519 354.156C78.9509 354.156 59.8516 335.048 59.8516 311.47H70.4387C70.4387 333.265 86.745 351.228 107.813 353.836Z" fill="#FFB973"/>
<path d="M135.292 351.229H59.3197C56.4202 351.229 54.0527 353.597 54.0527 356.498H140.559C140.559 353.597 138.218 351.229 135.292 351.229Z" fill="#F1A34F"/>
<path d="M140.293 311.497H53.8935C53.5211 311.497 53.2285 311.79 53.2285 312.162C53.2285 312.535 53.5211 312.828 53.8935 312.828H140.293C140.665 312.828 140.958 312.535 140.958 312.162C140.958 311.79 140.665 311.497 140.293 311.497Z" fill="#D86713"/>
<path d="M469.504 86.7296C468.281 86.5434 464.53 89.9763 464.53 89.9763C456.576 90.9078 444.952 93.0101 440.749 93.8085C437.77 94.3674 429.789 91.6529 421.995 88.5393C412.712 84.8136 403.694 80.529 403.694 80.529C398.56 80.2628 392.708 89.657 403.135 95.6448C404.732 96.5496 410.717 98.1197 417.606 99.5302C427.129 101.499 438.355 103.203 442.185 102.591C446.628 101.899 459.21 97.2947 466.685 93.7819C466.685 93.7819 466.685 93.7819 466.711 93.7819C466.738 93.7819 466.765 93.7553 466.791 93.7553C467.243 93.5424 469.079 92.7174 470.302 92.7973C471.712 92.8771 474.825 90.3223 474.931 89.6304C475.037 88.9118 470.755 86.9159 469.504 86.7296Z" fill="#ED975D"/>
<path d="M459.795 205.074L455.406 205.953C455.406 205.953 435.349 183.412 432.263 173.938C430.614 168.882 420.027 166.673 408.961 163.825C399.332 161.324 389.356 158.343 384.568 152.489C374.327 139.901 391.006 124.466 391.006 124.466C391.006 124.466 408.748 135.031 424.07 145.915C434.764 153.526 444.287 161.324 445.723 165.795C449.208 176.679 456.603 197.357 459.795 205.074Z" fill="#2B478B"/>
<path d="M453.916 212.499H456.39C457.215 212.366 457.827 212.127 458.678 212.02C459.955 211.861 460.566 212.366 460.673 212.499C460.699 212.526 460.699 212.526 460.699 212.526H471.18C471.446 212.153 471.18 211.275 470.941 210.636C470.781 210.211 470.409 209.865 469.956 209.732C468.839 209.412 466.658 209.12 464.663 207.31C463.546 206.299 459.21 203.558 459.21 203.558H459.183C459.077 203.558 458.625 203.691 456.683 205.367C455.672 206.219 453.943 204.17 453.943 204.17C453.943 204.17 453.624 204.436 453.384 204.941C453.198 205.341 453.038 205.873 453.171 206.538C453.331 207.47 452.826 209.226 452.427 210.424C452.187 211.142 451.974 211.648 451.974 211.648C451.974 211.648 451.815 212.233 453.916 212.499Z" fill="#233862"/>
<path d="M424.07 145.915L408.961 163.825C399.332 161.324 389.356 158.343 384.568 152.489C374.327 139.901 391.006 124.466 391.006 124.466C391.006 124.466 408.775 135.004 424.07 145.915Z" fill="#1E3D70"/>
<path d="M410.344 136.548C410.344 136.548 409.121 140.38 407.152 146.181C404.652 153.5 400.901 163.905 396.858 173.566C395.98 175.695 395.049 177.77 394.145 179.793C390.766 187.218 387.335 193.605 384.276 196.825C378.822 202.653 365.549 240.043 365.549 240.043L362.25 239.138C362.25 239.138 357.648 207.203 373.981 189.027C374.167 188.841 374.3 188.601 374.3 188.362C374.513 185.674 375.285 173.619 376.987 161.404C377.413 158.397 377.865 155.416 378.397 152.515C378.423 152.329 378.477 152.143 378.503 151.956C380.977 138.65 383.371 132.742 386.43 129.762L409.014 136.202L410.344 136.548Z" fill="#2B478B"/>
<path d="M361.877 244.62H364.351C365.176 244.487 365.788 244.248 366.639 244.141C367.916 243.982 368.527 244.487 368.634 244.62C368.66 244.647 368.66 244.647 368.66 244.647H379.141C379.407 244.274 379.141 243.396 378.902 242.758C378.742 242.332 378.37 241.986 377.918 241.853C376.8 241.533 374.619 241.241 372.624 239.431C371.507 238.42 367.171 235.679 367.171 235.679H367.144C367.038 235.679 366.586 235.812 364.644 237.488C363.633 238.34 361.904 236.291 361.904 236.291C361.904 236.291 361.585 236.557 361.345 237.063C361.159 237.462 360.999 237.994 361.132 238.659C361.292 239.591 360.787 241.347 360.388 242.545C360.148 243.263 359.935 243.769 359.935 243.769C359.935 243.769 359.776 244.354 361.877 244.62Z" fill="#233862"/>
<path d="M366.719 93.0901C366.719 93.0901 362.942 102.325 358.579 111.32C354.908 118.877 350.838 126.276 348.258 127.846C344.614 130.081 334.585 136.335 328.095 141.019C328.095 141.019 323.014 140.992 322.242 141.95C321.444 142.935 319.636 147.299 320.168 147.725C320.7 148.178 324.743 147.965 325.701 146.953C326.552 146.075 328.467 145.437 328.919 145.303C328.946 145.303 328.973 145.277 328.999 145.277H329.026C336.926 142.855 349.322 137.772 353.073 135.297C356.292 133.168 363.474 124.333 369.166 116.482C373.316 110.787 376.694 105.598 377.253 103.868C381.004 92.4514 370.363 89.4442 366.719 93.0901Z" fill="#FFB27D"/>
<path d="M386.483 56.8443C386.031 56.179 385.579 55.6201 385.127 55.0878C385.685 55.0878 386.297 55.0346 386.803 54.8483C388.133 54.2895 388.745 50.0847 388.532 48.834C388.346 47.5832 386.483 43.9639 384.222 43.6179C381.961 43.2454 379.594 45.7735 379.594 45.7735C380.019 43.9639 383.85 42.8994 383.85 42.8994C375.923 44.3631 376.349 49.6323 376.402 50.138C369.166 47.5566 364.91 61.2087 364.91 61.2087L383.664 72.2794C383.664 72.2794 383.717 69.2722 385.499 69.4585C388.292 69.7512 390.633 62.8853 386.483 56.8443Z" fill="#2C3A64"/>
<path d="M387.681 85.4793C383.372 87.5018 377.652 84.5745 377.679 84.5479C378.051 84.1753 377.918 83.0842 377.573 81.6205C377.227 80.1036 376.429 78.0545 374.966 75.5795C374.646 75.0473 374.354 74.5416 373.981 73.9828L374.487 73.7965L382.839 70.4434C382.839 70.4434 384.196 72.8651 385.606 75.1005C386.803 76.9368 388.053 78.6133 388.612 78.5601C388.665 78.5335 394.198 82.3391 387.681 85.4793Z" fill="#FFB27D"/>
<path d="M382.839 71.2949C382.626 74.2755 381.615 79.6512 377.572 81.6471C377.226 80.1302 376.428 78.0811 374.965 75.6061L382.839 71.2949Z" fill="#ED975D"/>
<path d="M374.487 79.0123C374.487 79.0123 385.367 74.7277 382.6 67.9681C379.834 61.2352 379.355 56.1257 372.279 58.574C365.203 61.0223 364.937 64.1626 365.31 66.6375C365.682 69.1125 371.587 79.9437 374.487 79.0123Z" fill="#FFB27D"/>
<path d="M378.556 66.4246C383.584 65.7061 385.047 63.6836 385.047 63.6836C385.047 63.6836 380.418 62.353 377.705 57.8289C377.705 57.8289 372.065 55.9128 367.862 59.1063C367.596 59.4256 367.437 59.8248 367.33 60.2772C366.373 59.9578 364.936 60.0377 364.085 62.7521C362.835 66.8238 367.277 71.2947 367.277 71.2947C368.368 71.0019 367.144 67.3561 366.958 65.4134C366.825 63.9763 367.596 62.1667 368.022 61.2885C368.554 61.9804 373.848 68.6601 380.338 68.9262C380.338 68.9262 376.907 67.7286 373.794 65.4134C375.364 66.1851 377.013 66.6375 378.556 66.4246Z" fill="#2C3A64"/>
<path d="M408.403 99.3974C408.323 99.0781 408.216 98.7321 408.11 98.3861C409.733 95.2991 410.531 92.5048 410.85 90.1363C411.595 85.1598 410.318 82.0728 410.318 82.0728C410.318 82.0728 402.763 78.0543 399.438 77.5487C399.412 77.5487 399.412 77.5487 399.385 77.5487C399.358 77.5487 399.305 77.5487 399.252 77.5487C395.874 77.0963 388.585 78.56 388.585 78.56C388.585 78.56 389.995 82.3123 386.031 84.8139C382.068 87.3154 377.838 84.1752 377.838 84.1752C377.705 84.255 377.572 84.3615 377.439 84.4679C377.439 84.4679 367.012 91.3605 366.054 92.9306C365.123 94.5007 361.106 102.298 361.106 102.298C361.106 102.298 362.383 108.845 376.482 109.404C377.652 112.225 378.53 114.966 378.823 117.254C379.94 126.143 378.636 133.142 379.94 138.331C381.243 143.521 404.785 140.567 409.041 139.555C413.297 138.544 412.34 133.993 412.659 129.576C413.084 123.987 409.786 104.294 408.403 99.3974Z" fill="#699DEE"/>
<path d="M410.877 90.1358C410.531 92.5043 409.733 95.2986 408.11 98.4122C407.738 96.7889 406.221 90.8011 403.801 88.1133C403.801 88.1133 407.871 88.4859 410.877 90.1358Z" fill="#4A82D3"/>
<path d="M315.06 148.363C315.06 148.363 319.449 143.041 320.38 142.429C321.311 141.79 325.461 140.699 325.7 140.912C325.94 141.125 325.94 141.444 325.434 141.897C324.929 142.349 322.96 143.493 323.253 143.626C323.546 143.759 329.451 140.805 330.302 141.79C331.153 142.775 329.823 146.873 327.536 148.816C325.248 150.758 318.465 151.61 318.039 151.876C314.422 154.218 315.06 148.363 315.06 148.363Z" fill="#ED975D"/>
<path d="M237.892 136.095C237.892 136.095 244.196 143.573 252.203 140.433C252.203 140.433 253.932 136.255 253.959 133.168C253.959 132.795 253.959 132.423 253.959 132.077C254.012 128.617 254.118 126.674 254.118 126.674C253.746 126.515 241.855 121.645 241.882 122.044C242.068 131.411 237.892 136.095 237.892 136.095Z" fill="#FFB27D"/>
<path d="M243.052 124.279C244.196 126.408 248.133 130.56 253.958 132.077C254.011 128.617 254.118 126.675 254.118 126.675C253.799 126.595 242.706 123.667 243.052 124.279Z" fill="#ED975D"/>
<path d="M256.618 126.328C256.618 126.328 243.238 129.468 241.403 121.112C239.567 112.756 236.615 107.513 245.074 105.171C253.533 102.803 255.9 105.624 257.177 108.285C258.481 110.893 260.05 125.29 256.618 126.328Z" fill="#FFB27D"/>
<path d="M241.855 123.375C241.669 123.481 238.796 124.386 233.343 113.501C232.492 111.798 231.906 108.099 233.901 104.852C235.896 101.606 242.972 99.0242 248.851 97.9065C254.73 96.7888 256.14 100.089 257.523 103.415C258.986 106.901 263.162 109.776 263.162 109.776C258.108 112.597 251.99 108.551 249.888 109.217C247.787 109.882 247.016 113.209 246.856 114.273C246.696 115.338 246.457 116.242 243.797 115.284C241.137 114.326 242.6 119.063 243.025 119.968C243.025 119.995 243.398 122.416 241.855 123.375Z" fill="#A9453D"/>
<path d="M207.407 332.228H199.294C197.591 332.228 195.703 330.498 195.224 327.358C194.745 324.191 191.26 322.488 190.515 319.906C189.771 317.325 193.628 313.679 193.628 313.679L194.266 312.827L194.931 311.949L201.342 313.466C201.342 313.466 201.502 315.01 201.608 316.979C201.688 318.416 201.714 320.039 201.635 321.503C201.448 324.936 202.592 328.662 205.598 329.327C208.657 330.019 207.407 332.228 207.407 332.228Z" fill="#2C3A64"/>
<path d="M263.801 332.307H242.334C242.121 332.254 241.962 332.227 241.882 332.174C240.445 331.429 240.898 325.787 241.057 324.03C241.084 323.711 241.11 323.525 241.11 323.525C241.11 323.525 248.665 317.298 249.702 322.061C249.729 322.221 249.782 322.354 249.809 322.487C251.112 326.931 256.991 328.954 260.369 329.539C262.95 329.992 263.615 331.535 263.801 332.307Z" fill="#2C3A64"/>
<path d="M259.465 208.107C259.465 208.107 258.321 222.425 256.964 239.616C255.129 262.982 252.921 291.696 252.708 297.125C252.336 306.573 250.82 321.662 250.82 321.662C250.82 321.662 247.228 325.255 240.073 323.738C240.073 323.738 233.689 302.182 231.853 279.348C231.827 278.976 231.8 278.603 231.773 278.231C230.071 254.998 227.438 206.111 227.438 206.111L259.465 208.107Z" fill="#EE9849"/>
<path d="M259.465 208.108C259.465 208.108 258.321 222.425 256.964 239.617L231.853 279.376C231.827 279.003 231.8 278.631 231.773 278.258C230.071 255.025 227.438 206.139 227.438 206.139L259.465 208.108Z" fill="#E58638"/>
<path d="M254.224 209.811C254.224 209.811 233.555 261.652 219.962 286.002C206.369 310.352 202.14 317.165 202.14 317.165C202.14 317.165 194.346 314.025 193.654 311.896C193.654 311.896 198.841 264.872 207.939 253.402C213.073 246.935 219.111 227.481 219.404 220.695C219.696 213.909 221.239 200.443 221.239 200.443L254.224 209.811Z" fill="#EE9849"/>
<path d="M206.901 201.162C206.901 201.162 206.369 207.629 205.97 208.64C205.571 209.625 202.965 212.712 202.672 212.659C202.379 212.606 202.193 212.366 202.353 211.754C202.512 211.115 203.417 209.199 203.124 209.226C202.832 209.279 199.852 214.735 198.655 214.415C197.458 214.096 196.288 210.237 197.006 207.496C197.724 204.755 202.512 200.444 202.699 200.018C204.268 196.292 206.901 201.162 206.901 201.162Z" fill="#ED975D"/>
<path d="M204.693 202.812C206.981 203.557 207.354 203.371 207.354 203.371C207.354 203.371 218.499 183.092 219.617 181.23C220.734 179.367 243.265 158.476 243.265 158.476L237.492 136.894C237.492 136.894 211.876 170.052 209.136 174.816C204.56 182.693 201.9 200.949 201.9 200.949C201.9 200.949 202.885 202.227 204.693 202.812Z" fill="#1E3D70"/>
<path d="M263.828 166.966C263.748 171.41 263.482 176.386 263.136 181.443C263.109 181.735 263.083 182.055 263.083 182.348C262.87 185.488 262.631 188.628 262.338 191.688C262.232 192.913 262.099 194.137 261.992 195.334L261.966 195.494C261.966 195.946 261.912 196.425 261.859 196.878C260.742 208.348 259.545 217.423 259.332 217.556C259.066 217.742 258.773 217.822 258.454 217.769C255.448 217.396 246.457 218.061 239.115 216.465C232.917 215.161 227.571 212.686 221.905 209.332C221.16 208.88 219.431 207.709 219.59 206.831C219.723 205.873 219.989 204.462 220.309 202.706C221.426 196.612 223.341 186.1 224.006 173.805C224.139 171.516 224.325 169.254 224.565 167.019C225.203 161.217 226.214 155.735 227.571 150.839C230.098 141.764 233.795 134.818 238.45 132.103C239.062 131.758 242.334 133.833 245.313 135.776C248.08 137.559 251.006 138.038 253.826 137.799L256.326 140.566C259.359 144.079 262.577 148.763 263.455 155.416C263.508 155.895 263.588 156.427 263.615 156.986C263.828 159.7 263.907 163.133 263.828 166.966Z" fill="#2A4E96"/>
<path d="M263.827 166.966C263.747 171.41 263.481 176.387 263.136 181.443C263.109 181.736 263.082 182.055 263.082 182.348C245.898 171.596 243.238 151.903 243.238 151.903C251.697 152.276 258.401 154.219 263.588 156.986C263.827 159.701 263.907 163.134 263.827 166.966Z" fill="#1E3D70"/>
<path d="M317.667 148.896C316.789 146.501 315.406 146.661 315.406 146.661C315.406 146.661 289.843 153.021 287.555 153.314C285.267 153.58 260.05 143.467 260.05 143.467C260.05 143.467 250.128 139.023 245.473 143.068C241.429 146.607 241.243 151.078 242.201 154.857C243.318 159.328 247.122 162.655 251.697 163.24C261.992 164.544 282.528 167.019 286.81 166.407C296.387 165.076 318.093 152.542 318.093 152.542C318.093 152.542 318.359 150.786 317.667 148.896Z" fill="#2A4E96"/>
<path d="M569.603 195.76C569.603 195.76 573.141 199.06 572.449 201.402C571.758 203.744 568.566 205.287 568.113 208.161C567.661 211.035 565.959 212.579 564.389 212.579C562.82 212.579 556.968 212.579 556.968 212.579C556.968 212.579 555.824 210.556 558.59 209.971C561.357 209.359 562.394 206.006 562.235 202.892C562.049 199.779 562.501 195.627 562.501 195.627L568.379 194.243L569.603 195.76Z" fill="#2C3A64"/>
<path d="M525.366 212.153C524.993 212.339 523.743 212.445 522.014 212.552H505.202C505.255 212.046 505.654 210.263 508.394 209.837C511.507 209.332 516.88 207.522 518.077 203.557C518.13 203.424 518.157 203.291 518.183 203.158C519.141 198.926 526.057 204.462 526.057 204.462C526.057 204.462 526.084 204.621 526.11 204.914C526.27 206.484 526.696 211.514 525.366 212.153Z" fill="#2C3A64"/>
<path d="M509.219 98.6517C509.219 98.6517 510.283 111.772 511.506 127.553C513.182 149.002 515.204 175.322 515.417 180.325C515.763 189 517.146 202.839 517.146 202.839C517.146 202.839 520.444 206.139 527.015 204.755C527.015 204.755 532.867 184.982 534.543 164.038C534.569 163.692 534.596 163.346 534.623 163C536.192 141.684 538.613 96.8154 538.613 96.8154L509.219 98.6517Z" fill="#35488B"/>
<path d="M509.219 98.6517C509.219 98.6517 510.283 111.772 511.506 127.553L534.543 164.038C534.569 163.692 534.596 163.346 534.623 163C536.192 141.684 538.613 96.8154 538.613 96.8154L509.219 98.6517Z" fill="#2C3A64"/>
<path d="M514.034 100.195C514.034 100.195 533.001 147.751 545.45 170.106C557.926 192.46 561.809 198.687 561.809 198.687C561.809 198.687 568.965 195.84 569.603 193.87C569.603 193.87 564.842 150.732 556.489 140.22C551.781 134.285 546.221 116.455 545.982 110.201C545.716 103.974 544.306 91.626 544.306 91.626L514.034 100.195Z" fill="#35488B"/>
<path d="M455.539 74.4076C455.539 74.4076 450.405 73.2366 449.527 73.2898C448.649 73.3431 445.643 74.6205 445.59 74.86C445.537 75.0995 445.696 75.3124 446.228 75.339C446.76 75.3656 448.463 75.1527 448.356 75.3656C448.25 75.5785 443.276 76.5366 443.222 77.5478C443.169 78.5591 445.883 80.3953 448.17 80.5284C450.458 80.6615 454.98 77.9736 455.379 77.947C458.677 77.6543 455.539 74.4076 455.539 74.4076Z" fill="#FFB27D"/>
<path d="M453.331 75.7119C452.586 73.37 452.773 72.9974 452.773 72.9974C452.773 72.9974 473.628 61.7138 475.516 60.5695C477.432 59.4252 498.978 36.4854 498.978 36.4854L521.057 42.553C521.057 42.553 486.901 68.5798 482.007 71.3741C473.92 76.0046 455.193 78.6392 455.193 78.6392C455.193 78.6392 453.916 77.5747 453.331 75.7119Z" fill="#E58638"/>
<path d="M505.681 25.3346C505.681 25.3346 497.94 38.9601 490.386 40.7431C490.386 40.7431 490.705 36.1658 492.54 33.0522C491.795 32.174 491.13 31.349 490.545 30.6038C488.63 28.1555 487.726 26.6652 487.726 26.6652L490.279 19.7726L492.008 15.0889C492.833 16.6058 493.764 17.9098 494.722 19.0009C499.722 24.6959 505.681 25.3346 505.681 25.3346Z" fill="#FFB27D"/>
<path d="M494.775 19.001C494.775 19.001 495.706 25.8138 490.545 30.604C488.63 28.1557 487.726 26.6654 487.726 26.6654L490.279 19.7728C493.046 18.9212 494.775 19.001 494.775 19.001Z" fill="#ED975D"/>
<path d="M485.704 27.6767C485.704 27.6767 497.275 23.1792 494.349 16.0205C491.423 8.8618 490.971 3.45951 483.443 6.0409C475.941 8.62229 475.622 11.9222 476.021 14.5568C476.42 17.1648 482.618 28.6614 485.704 27.6767Z" fill="#FFB27D"/>
<path d="M545.397 95.2187C540.741 101.925 505.868 110.893 506.293 106.236C506.453 104.453 506.666 101.34 506.293 97.0816C506.214 96.0969 506.081 95.0324 505.921 93.9147C505.043 87.8205 502.942 79.9698 498.233 70.895C497.888 70.2031 497.515 69.5378 497.143 68.8459C495.201 65.3331 493.552 61.6074 492.301 57.9881C489.881 51.0157 488.923 44.336 490.12 39.9449C490.12 39.9183 490.12 39.8917 490.147 39.8917C497.435 36.512 500.255 23.4453 500.255 23.4453C500.255 23.4453 525.127 27.9162 539.039 61.0751C539.066 61.0485 549.466 89.3906 545.397 95.2187Z" fill="#EE9849"/>
<path d="M506.293 97.0818C506.213 96.0971 506.08 95.0326 505.92 93.9149C505.042 87.8207 502.941 79.97 498.232 70.8952C499.03 65.9986 500.148 61.9535 501.371 60.1173C506.319 52.6924 509.219 51.5215 509.219 51.5215C509.219 51.5215 516.667 82.8974 506.293 97.0818Z" fill="#E58638"/>
<path d="M467.109 89.6299C467.109 89.6299 460.22 90.0025 459.156 90.375C458.092 90.7476 454.74 93.4354 454.767 93.7548C454.793 94.0741 455.059 94.287 455.724 94.1274C456.389 93.9943 458.464 93.0895 458.411 93.3822C458.358 93.675 452.479 96.6821 452.745 97.9595C453.038 99.2369 457.108 100.594 460.034 99.9288C462.96 99.2635 467.668 94.287 468.147 94.1274C472.19 92.5839 467.109 89.6299 467.109 89.6299Z" fill="#FFB27D"/>
<path d="M465.806 92.2383C464.423 90.0029 465.434 88.9916 465.434 88.9916C465.434 88.9916 486.688 72.3589 488.337 70.6557C490.013 68.9791 497.727 42.2072 497.727 42.2072C497.727 42.2072 500.387 31.376 506.612 30.1784C512.011 29.1405 515.762 31.8018 518.183 34.942C521.082 38.6677 521.375 43.8305 518.954 47.9022C513.528 57.0568 502.595 75.2064 499.403 78.2934C492.3 85.186 468.493 94.8463 468.493 94.8463C468.493 94.8463 466.897 93.9947 465.806 92.2383Z" fill="#EE9849"/>
<path d="M495.999 2.71446C496.078 2.55478 496.318 2.39511 496.876 2.20882C496.876 2.20882 496.344 2.02254 495.706 2.1556C495.387 1.35723 494.589 0.0266123 493.126 0C493.126 0 493.977 0.212898 494.296 1.06449C492.275 -0.212898 488.497 -0.585471 479.134 2.52817C466.764 6.65308 472.936 13.8384 474.825 14.4239C476.687 15.0093 480.145 11.3102 483.257 10.8046C486.369 10.299 488.045 14.6368 489.215 14.9827C490.386 15.3287 489.721 14.3706 490.971 13.3594C492.221 12.3747 492.913 14.69 492.886 16.3133C492.86 17.9367 495.28 19.4802 495.28 19.4802C495.28 19.4802 495.28 19.4802 496.69 16.8722C498.1 14.2642 497.728 4.84344 496.371 3.14025C496.238 3.00719 496.132 2.84752 495.999 2.71446Z" fill="#2B478B"/>
<path d="M699.096 359H0.931028C0.425613 359 0 358.574 0 358.068V357.403C0 356.897 0.425613 356.472 0.931028 356.472H699.096C699.601 356.472 700.027 356.897 700.027 357.403V358.068C700 358.574 699.601 359 699.096 359Z" fill="#2E3552"/>
<path d="M300.536 331.962V345.96L267.418 331.962H300.536Z" fill="#4271BC"/>
<path d="M584.021 212.553H474.479V356.499H584.021V212.553Z" fill="#4A75CB"/>
<path d="M550.237 212.553H440.695V356.499H550.237V212.553Z" fill="#699DEE"/>
<path d="M584.02 212.553V234.082L550.264 212.553H584.02Z" fill="#4271BC"/>
</svg>
