<svg width="58" height="47" viewBox="0 0 58 47" fill="none" xmlns="http://www.w3.org/2000/svg">
<path d="M22.1693 11.3214C22.1693 11.3214 21.5265 14.3202 22.5438 15.6587C23.5611 16.9973 23.2463 22.1627 20.3814 22.4573C17.5165 22.7518 16.2251 15.7662 16.2251 15.7662C16.2251 15.7662 19.3579 11.7234 19.439 8.45752C19.439 8.45752 21.5265 11.0808 22.1693 11.3214Z" fill="#F5AA8D"/>
<path d="M19.0602 14.0158C19.3891 12.2975 19.3349 10.553 19.7634 8.85625C19.5649 8.61547 19.4396 8.45752 19.4396 8.45752C19.3594 11.7241 16.2266 15.7669 16.2266 15.7669C16.344 16.3042 16.5659 16.8132 16.8797 17.2649C17.7631 16.2683 18.8071 15.3371 19.0602 14.0158Z" fill="#CA5645"/>
<path d="M22.0543 12.0377C21.5716 10.9582 20.4741 9.46551 19.8863 9.85676C19.8863 9.85676 19.1301 13.1669 22.1937 14.9661L22.1981 14.9687C21.8835 14.0285 21.9575 12.8023 22.0543 12.0377Z" fill="#CA5645"/>
<path d="M26.9112 7.45491C26.9112 7.45491 26.6043 11.0677 25.6775 12.399C24.7507 13.7302 23.7477 14.5887 21.8224 13.3C20.572 12.5173 19.6454 11.3105 19.2121 9.9004C19.2121 9.9004 18.3642 9.16726 18.1058 8.32595C17.7564 7.18945 18.5173 6.42128 19.038 6.51777C19.038 6.51777 20.1118 6.6125 20.1118 7.92458C20.1118 9.23665 19.9719 3.77179 20.364 3.29816C20.6158 2.99327 22.0382 3.38826 23.7286 4.03571C23.7283 4.03483 28.0038 4.28662 26.9112 7.45491Z" fill="#F5AA8D"/>
<path d="M26.0168 9.1713C26.0271 9.24045 26.0161 9.3111 25.9851 9.37378C25.9541 9.43646 25.9047 9.48815 25.8435 9.52192C25.7822 9.55569 25.7121 9.56992 25.6426 9.56269C25.5731 9.55546 25.5074 9.52713 25.4544 9.48149C25.4015 9.43586 25.3637 9.37511 25.3463 9.3074C25.3288 9.23969 25.3325 9.16827 25.3569 9.10272C25.3812 9.03718 25.425 8.98065 25.4824 8.94073C25.5398 8.90081 25.6081 8.87941 25.678 8.87941C25.7615 8.87369 25.8439 8.90112 25.9073 8.95577C25.9708 9.01041 26.0101 9.08785 26.0168 9.1713Z" fill="#100142"/>
<path d="M23.358 8.87971C23.3692 8.95505 23.3572 9.03202 23.3234 9.10029C23.2896 9.16855 23.2357 9.22485 23.169 9.26162C23.1023 9.29838 23.026 9.31385 22.9502 9.30596C22.8745 9.29806 22.8029 9.26717 22.7452 9.21744C22.6875 9.1677 22.6465 9.10151 22.6275 9.02774C22.6085 8.95397 22.6126 8.87617 22.6391 8.80477C22.6656 8.73338 22.7134 8.67181 22.7759 8.62834C22.8385 8.58488 22.9128 8.56159 22.989 8.56161C23.08 8.55535 23.1698 8.58524 23.2389 8.6448C23.308 8.70437 23.3508 8.78878 23.358 8.87971Z" fill="#100142"/>
<path d="M23.9371 12.2636C23.7893 12.2398 23.648 12.1859 23.522 12.1051C23.396 12.0244 23.2879 11.9185 23.2046 11.7942C23.1892 11.7746 23.1823 11.7497 23.1853 11.725C23.1882 11.7002 23.2009 11.6777 23.2205 11.6623C23.2401 11.647 23.2651 11.64 23.2898 11.643C23.3145 11.646 23.337 11.6587 23.3524 11.6783C23.8448 12.307 24.2847 12.0235 24.3034 12.0112C24.3136 12.0043 24.3251 11.9996 24.3372 11.9972C24.3492 11.9948 24.3617 11.9947 24.3737 11.9971C24.3858 11.9995 24.3973 12.0043 24.4075 12.0111C24.4177 12.0179 24.4265 12.0267 24.4334 12.0369C24.4402 12.0472 24.445 12.0586 24.4474 12.0707C24.4498 12.0828 24.4498 12.0952 24.4474 12.1073C24.445 12.1193 24.4403 12.1308 24.4334 12.1411C24.4266 12.1513 24.4178 12.1601 24.4076 12.1669C24.2651 12.2486 24.1002 12.2825 23.9371 12.2636Z" fill="url(#paint0_linear)"/>
<path d="M22.478 8.03311C22.457 8.03066 22.4376 8.02126 22.4227 8.00641C22.4077 7.99156 22.3982 7.97213 22.3957 7.95123C22.3932 7.93034 22.3977 7.9092 22.4086 7.89121C22.4196 7.87321 22.4362 7.85942 22.4559 7.85203C22.8842 7.71017 23.3497 7.73119 23.7634 7.91107C23.7859 7.92161 23.8033 7.94066 23.8117 7.96402C23.8201 7.98739 23.819 8.01315 23.8084 8.03564C23.7979 8.05814 23.7788 8.07552 23.7555 8.08397C23.7321 8.09242 23.7063 8.09124 23.6838 8.08069C23.3154 7.92327 22.9023 7.90456 22.5211 8.02804C22.5073 8.0331 22.4925 8.03484 22.478 8.03311Z" fill="#100142"/>
<path d="M26.3629 8.60312C26.34 8.60076 26.3188 8.59001 26.3034 8.57294C25.9807 8.2176 25.439 8.35265 25.4334 8.35441C25.4093 8.36057 25.3838 8.35691 25.3624 8.34423C25.341 8.33154 25.3255 8.31088 25.3193 8.28678C25.3132 8.26268 25.3168 8.23711 25.3295 8.21571C25.3422 8.19431 25.3629 8.17883 25.387 8.17266C25.4138 8.16583 26.0445 8.00921 26.4428 8.44671C26.4556 8.46081 26.4637 8.47844 26.4662 8.49727C26.4687 8.51609 26.4654 8.53523 26.4568 8.55216C26.4482 8.56908 26.4346 8.58299 26.4179 8.59205C26.4012 8.60111 26.3822 8.60489 26.3633 8.6029L26.3629 8.60312Z" fill="#100142"/>
<path d="M18.7124 7.48239C18.8262 7.45108 18.9455 7.44524 19.0618 7.46526C19.1781 7.48529 19.2886 7.5307 19.3854 7.59827C19.5036 7.72237 19.5703 7.88673 19.572 8.05811C19.5737 8.2295 19.5102 8.39513 19.3944 8.52152C19.2656 8.66097 18.8296 8.67441 18.9787 8.12631C19.0587 7.83244 18.9988 7.6963 18.7124 7.48239Z" fill="#CA5645"/>
<path d="M24.1798 11.2504L24.1428 11.2454C24.1292 11.244 24.116 11.24 24.104 11.2335C24.092 11.227 24.0813 11.2182 24.0727 11.2076C24.064 11.197 24.0576 11.1848 24.0537 11.1717C24.0498 11.1586 24.0485 11.1449 24.0499 11.1313C24.0554 11.1042 24.0713 11.0803 24.0942 11.0648C24.1171 11.0493 24.1451 11.0433 24.1723 11.0482C24.3957 11.081 24.5468 11.0647 24.6008 11.0028C24.6874 10.9044 24.5808 10.6504 24.5028 10.4644C24.4722 10.3915 24.4438 10.3237 24.4259 10.2662C24.3158 9.91965 24.4131 9.15456 24.4171 9.12196C24.424 9.09618 24.44 9.07379 24.4622 9.05893C24.4843 9.04408 24.5111 9.03777 24.5376 9.04119C24.5641 9.04461 24.5884 9.05752 24.6061 9.07752C24.6237 9.09752 24.6335 9.12325 24.6336 9.14994C24.6336 9.15743 24.5383 9.90753 24.635 10.2153C24.651 10.2673 24.6777 10.3298 24.7059 10.3966C24.8079 10.64 24.9352 10.9434 24.772 11.1297C24.6678 11.2489 24.4739 11.2881 24.1798 11.2504Z" fill="#E37C58"/>
<path d="M25.2082 17.4927L26.5778 17.9582C27.3211 18.9647 28.1117 21.0372 28.4884 23.7982C29.1308 28.5105 29.4522 28.6713 29.8271 29.046C30.2021 29.4208 37.5375 31.1999 37.5375 31.1999L37.163 33.3837C37.163 33.3837 27.785 32.6875 26.9049 32.5802C26.0248 32.473 23.615 26.3151 23.6684 23.8515C23.7217 21.3879 25.2082 17.4927 25.2082 17.4927Z" fill="url(#paint1_linear)"/>
<path style="mix-blend-mode:multiply" opacity="0.32" d="M36.4129 32.4588C35.3271 32.329 34.2509 32.1289 33.191 31.8596C31.7349 31.5292 30.2413 31.5402 28.8166 31.0774C26.9488 30.4704 26.3178 27.8901 26.6767 26.217C26.7025 26.0967 26.9349 24.5137 26.1368 22.2389C25.9299 21.6494 25.5904 21.0557 25.4759 20.4395C25.3437 19.7302 25.1199 19.0343 25.0531 18.3381C24.5039 19.8198 23.7036 22.2407 23.6684 23.853C23.615 26.3163 26.0255 32.4745 26.9049 32.5817C27.7843 32.689 37.163 33.3852 37.163 33.3852L37.3231 32.4511C37.0208 32.485 36.7157 32.4876 36.4129 32.4588Z" fill="url(#paint2_linear)"/>
<path d="M26.5777 17.9587C26.5777 17.9587 24.1895 16.5429 22.3434 15.3315L22.3214 15.3694C22.0465 15.8411 21.6257 16.2107 21.1223 16.4222C20.619 16.6337 20.0605 16.6757 19.5311 16.5418C18.9934 16.4011 18.4922 16.1464 18.0614 15.7951C17.6306 15.4438 17.2803 15.0041 17.0343 14.5056L11.1701 16.9522C11.1701 16.9522 13.2803 20.6928 12.1021 26.6904C10.924 32.6879 10.3887 34.7227 10.3887 34.7227H25.3826C25.3826 34.7227 24.6336 29.5286 24.7041 26.6014C24.7746 23.6741 24.8458 20.9898 26.5777 17.9587Z" fill="url(#paint3_linear)"/>
<path style="mix-blend-mode:multiply" opacity="0.32" d="M15.6978 30.5886C15.2065 29.8907 14.4505 29.0649 14.3928 28.1575C14.3274 27.1934 14.6001 26.2366 15.1638 25.4518C15.5823 24.8319 16.2838 24.0148 16.3944 23.2667C16.6257 21.6982 15.6013 20.8144 14.8082 19.8001C13.8145 18.531 13.7576 17.1872 13.9447 15.7952L11.1701 16.9524C11.1701 16.9524 13.2803 20.693 12.1021 26.6905C10.924 32.688 10.3887 34.7229 10.3887 34.7229H16.7078C16.6762 34.6565 16.648 34.5884 16.6232 34.5191C16.1752 33.1782 16.6158 31.8921 15.6978 30.5886Z" fill="url(#paint4_linear)"/>
<path style="mix-blend-mode:multiply" opacity="0.32" d="M24.7038 26.6023C24.7549 24.5062 24.8093 22.5345 25.4697 20.4717C25.1148 20.8753 24.6143 21.372 24.2361 22.8432C23.8008 24.5416 24.6214 27.0997 23.6763 28.6422C23.2267 29.3764 22.5438 29.9593 22.1094 30.6909C21.3174 32.0246 22.2706 32.4601 22.477 33.6552C22.5402 34.0092 22.5347 34.372 22.461 34.7239H25.3821C25.3821 34.7239 24.6322 29.5291 24.7038 26.6023Z" fill="url(#paint5_linear)"/>
<path d="M25.0078 31.7005C25.0078 31.7005 26.9889 31.8611 28.2206 31.7005C29.4523 31.5399 29.9609 30.8438 30.7912 31.4328C31.6215 32.0219 33.7364 32.3164 33.5758 33.1194C33.4152 33.9224 31.3259 33.8424 30.4427 33.7363C30.0836 33.6922 29.3214 32.9322 28.3924 33.0773C27.0365 33.2893 24.9543 33.8968 23.9905 33.4322C21.5329 32.2473 25.0078 31.7005 25.0078 31.7005Z" fill="#F5AA8D"/>
<path d="M25.5965 31.2009L25.2136 33.451C25.2136 33.451 13.6373 34.3031 8.92476 33.451C4.21221 32.5989 4.26354 32.2076 4.64112 30.243C5.01871 28.2784 8.29648 18.5324 11.1707 16.9526C11.1707 16.9526 13.5754 19.8903 12.4241 25.3254C12.2442 26.1755 10.6851 28.7221 10.7818 28.9578C11.0447 29.5993 21.4556 30.4931 25.5965 31.2009Z" fill="url(#paint6_linear)"/>
<path style="mix-blend-mode:multiply" opacity="0.32" d="M10.8813 29.1969C10.9608 29.1784 11.0408 29.1634 11.1208 29.1478C10.9254 29.0817 10.8069 29.0189 10.7815 28.9577C10.6848 28.7219 12.2438 26.1751 12.4238 25.3252C12.6043 24.479 12.7019 23.6171 12.7151 22.752C12.6502 22.9332 12.5732 23.1098 12.4846 23.2807C11.7336 24.7073 10.6687 26.1445 10.3116 27.7377C10.2061 28.2078 9.75737 29.4068 10.8813 29.1969Z" fill="url(#paint7_linear)"/>
<path style="mix-blend-mode:multiply" opacity="0.32" d="M24.7448 33.0901C24.2935 33.0569 23.5773 32.7143 23.1955 32.4903C21.7702 31.6531 20.6771 31.5485 19.1234 31.9492C18.3658 32.1446 17.524 32.4101 16.7294 32.3017C15.8394 32.1794 15.0468 31.7012 14.1806 31.5774C12.6877 31.3637 11.0024 32.1365 9.53545 31.6906C7.3325 31.0213 6.98862 28.0665 7.82464 26.1715C8.46217 24.7271 9.57312 23.7787 10.59 22.6098C11.263 21.8364 12.005 20.8915 12.2642 19.872C12.2955 19.7491 12.3136 19.6358 12.3303 19.523C11.8177 17.5576 11.1709 16.9526 11.1709 16.9526C8.29673 18.5324 5.01852 28.2776 4.64138 30.243C4.26423 32.2085 4.2129 32.5991 8.92501 33.451C13.6371 34.3029 25.2138 33.451 25.2138 33.451L25.2727 33.1044C25.0964 33.1075 24.92 33.1031 24.7448 33.0901Z" fill="url(#paint8_linear)"/>
<path d="M53.9881 36.8921H3.53418V46.9256H53.9881V36.8921Z" fill="#100142"/>
<path style="mix-blend-mode:multiply" opacity="0.75" d="M8.04516 39.9912H53.9881V36.8921H3.53418V46.9256L8.04516 39.9912Z" fill="url(#paint9_linear)"/>
<path d="M57.0837 34.7234H0V37.2403H57.0837V34.7234Z" fill="#100142"/>
<path d="M37.1095 31.2957C37.1095 31.2957 39.6263 31.0814 40.4297 31.2957C41.2332 31.5101 43.268 32.2057 42.5717 32.8483C41.8753 33.4909 37.2723 32.5877 37.1095 32.6344C36.36 32.8488 37.1095 31.2957 37.1095 31.2957Z" fill="#F5AA8D"/>
<path d="M51.3005 33.0803H33.2544V34.7231H51.3005V33.0803Z" fill="url(#paint10_linear)"/>
<path d="M51.3005 33.0803H33.2544V33.42H51.3005V33.0803Z" fill="#100142"/>
<path d="M33.4149 33.0803H25.5967V34.7231H33.4149V33.0803Z" fill="#100142"/>
<path d="M38.0155 23.7714L33.6143 32.2871C33.5715 32.37 33.5508 32.4624 33.554 32.5556C33.5573 32.6488 33.5845 32.7396 33.633 32.8192C33.6815 32.8989 33.7497 32.9647 33.831 33.0104C33.9122 33.0561 34.0039 33.0801 34.0972 33.0802H51.1381C51.2378 33.0802 51.3356 33.0528 51.4207 33.0009C51.5059 32.9491 51.5752 32.8748 51.621 32.7863L56.0218 24.2701C56.0646 24.1873 56.0853 24.0948 56.082 24.0016C56.0787 23.9084 56.0515 23.8176 56.0031 23.738C55.9546 23.6583 55.8864 23.5925 55.8051 23.5468C55.7238 23.5011 55.6322 23.4771 55.5389 23.4771H38.4984C38.3987 23.4771 38.3009 23.5046 38.2157 23.5565C38.1305 23.6084 38.0613 23.6827 38.0155 23.7714Z" fill="url(#paint11_linear)"/>
<path style="mix-blend-mode:multiply" opacity="0.32" d="M52.2769 30.3199C49.8669 30.5576 47.3621 30.703 44.943 30.4921C41.7047 30.2099 38.9642 28.4822 36.7675 26.1882L33.6153 32.2873C33.5725 32.3702 33.5517 32.4626 33.555 32.5558C33.5583 32.649 33.5855 32.7398 33.634 32.8194C33.6825 32.8991 33.7507 32.9649 33.8319 33.0106C33.9132 33.0563 34.0049 33.0803 34.0981 33.0804H51.1391C51.2388 33.0804 51.3365 33.053 51.4217 33.0012C51.5069 32.9493 51.5762 32.8751 51.6219 32.7865L52.9402 30.2357C52.7192 30.2652 52.5007 30.2976 52.2769 30.3199Z" fill="url(#paint12_linear)"/>
<path d="M34.2216 32.2876L38.6225 23.7719C38.6682 23.6833 38.7375 23.609 38.8227 23.5571C38.9078 23.5053 39.0056 23.4778 39.1053 23.4778H38.4984C38.3987 23.4778 38.3009 23.5053 38.2158 23.5571C38.1306 23.609 38.0613 23.6833 38.0155 23.7719L33.6143 32.2876C33.5715 32.3705 33.5508 32.4629 33.554 32.5561C33.5573 32.6493 33.5845 32.7401 33.633 32.8197C33.6815 32.8994 33.7497 32.9652 33.831 33.0109C33.9122 33.0566 34.0039 33.0806 34.0972 33.0807H34.7041C34.6108 33.0807 34.5191 33.0567 34.4378 33.011C34.3565 32.9653 34.2884 32.8994 34.2399 32.8198C34.1914 32.7401 34.1643 32.6493 34.1611 32.5561C34.1579 32.4629 34.1787 32.3704 34.2216 32.2876Z" fill="#100142"/>
<path d="M45.9153 28.6043L45.919 28.5947C46.0133 28.5982 46.106 28.5701 46.1824 28.5148C46.2588 28.4594 46.3145 28.38 46.3404 28.2893C46.3618 28.2347 46.3709 28.1761 46.367 28.1177C46.3631 28.0592 46.3464 28.0023 46.318 27.951C46.2896 27.8997 46.2503 27.8553 46.2028 27.821C46.1553 27.7866 46.1008 27.7631 46.0433 27.7522H46.0457L46.1316 27.5251L45.7384 27.422L45.6551 27.6467L45.4952 27.6027L45.5773 27.3791L45.1969 27.2791L45.1174 27.5011L45.0455 27.4817L44.9887 27.4665L44.8285 27.4225L44.6964 27.7932L44.8552 27.8373L44.5483 28.6964L44.3941 28.6484L44.2686 29.0031L44.4228 29.0529L44.4767 29.0703L44.5452 29.0923L44.4703 29.2998L44.829 29.4183L44.9059 29.2088L45.0583 29.2582L44.9803 29.4683L45.35 29.5906L45.4302 29.3787L45.4416 29.382C45.5618 29.4267 45.6947 29.4225 45.8117 29.3702C45.9288 29.318 46.0207 29.2219 46.0677 29.1027C46.0912 29.0601 46.106 29.0133 46.1111 28.9649C46.1161 28.9165 46.1114 28.8677 46.0972 28.8212C46.0829 28.7747 46.0595 28.7315 46.0283 28.6943C45.997 28.657 45.9586 28.6264 45.9153 28.6043ZM45.706 28.062C45.7217 28.0671 45.7362 28.0755 45.7485 28.0866C45.7608 28.0977 45.7706 28.1113 45.7774 28.1264C45.7841 28.1416 45.7875 28.158 45.7875 28.1745C45.7874 28.1911 45.7839 28.2075 45.7771 28.2226L45.7681 28.2464C45.7572 28.28 45.734 28.3084 45.7032 28.3258C45.6725 28.3433 45.6363 28.3486 45.6018 28.3407L45.2548 28.24L45.3566 27.9635L45.706 28.062ZM45.033 28.8442L45.1334 28.572L45.5132 28.6865C45.529 28.6918 45.5434 28.7004 45.5556 28.7117C45.5678 28.723 45.5775 28.7367 45.584 28.752C45.5906 28.7673 45.5938 28.7838 45.5935 28.8004C45.5932 28.817 45.5894 28.8334 45.5824 28.8484L45.5734 28.872C45.5629 28.9051 45.5401 28.9329 45.5096 28.9496C45.4792 28.9663 45.4435 28.9707 45.4099 28.9617L45.033 28.8442Z" fill="url(#paint13_linear)"/>
<path d="M44.3252 29.8842C43.9654 29.637 43.7173 29.258 43.6346 28.8293C43.5519 28.4006 43.6412 27.9566 43.8833 27.5932C44.1378 27.1891 44.5345 26.8952 44.9951 26.7695C45.4558 26.6437 45.9468 26.6953 46.3713 26.914C46.5829 27.0315 46.7661 27.194 46.9081 27.39C47.05 27.5859 47.1473 27.8107 47.1929 28.0484C47.2386 28.286 47.2316 28.5308 47.1724 28.7654C47.1132 29.0001 47.0032 29.2189 46.8502 29.4064C46.5666 29.7891 46.1492 30.0508 45.6812 30.1394C45.2132 30.2279 44.729 30.1368 44.3252 29.8842ZM46.1704 27.2066C45.825 27.0249 45.424 26.9796 45.0467 27.0796C44.6695 27.1796 44.3436 27.4176 44.1335 27.7465C44.0334 27.8943 43.9634 28.0604 43.9275 28.2353C43.8917 28.4102 43.8906 28.5904 43.9244 28.7657C43.9582 28.941 44.0263 29.1079 44.1246 29.2569C44.223 29.4059 44.3498 29.534 44.4977 29.634C44.8293 29.8383 45.2257 29.9101 45.6079 29.835C45.99 29.7599 46.3298 29.5435 46.5594 29.2289C46.6816 29.0759 46.7692 28.8983 46.8161 28.7082C46.863 28.5181 46.8681 28.3201 46.8311 28.1279C46.7941 27.9356 46.7158 27.7537 46.6016 27.5947C46.4875 27.4356 46.3402 27.3032 46.17 27.2066H46.1704Z" fill="url(#paint14_linear)"/>
<path d="M26.0173 1.59593C24.4587 0.384304 22.4668 -0.0670807 21.3803 0.118187C19.6591 0.412061 19.0434 2.05194 19.0434 2.05194C18.1885 1.80278 17.0645 2.73485 16.9253 5.01645C16.749 7.88601 18.3896 9.62722 18.9672 10.7957C18.9672 10.7957 19.1434 10.2952 19.2617 9.81337C19.2681 9.7876 18.2109 8.38872 18.1823 7.72718C18.1501 6.97377 19.0917 6.65412 19.4534 7.04426C20.0784 7.71792 19.7915 8.34665 20.0206 9.03683C20.1088 9.39525 20.815 9.6107 20.9183 9.03683C20.7216 8.16336 20.8805 7.1326 21.1386 6.64289C21.5863 5.79211 21.3865 4.60604 21.3865 4.60604C24.4642 7.09779 24.136 4.90167 25.7444 5.57534C27.3305 6.23975 26.9027 7.56151 26.9027 7.56151C28.192 6.52216 29.2127 4.07887 26.0173 1.59593Z" fill="#100142"/>
<defs>
<linearGradient id="paint0_linear" x1="24.5934" y1="11.8822" x2="23.3759" y2="12.2737" gradientUnits="userSpaceOnUse">
<stop stop-color="#FC5653"/>
<stop offset="1" stop-color="#FC0053"/>
</linearGradient>
<linearGradient id="paint1_linear" x1="31.7537" y1="24.3894" x2="25.8442" y2="32.6596" gradientUnits="userSpaceOnUse">
<stop stop-color="#9FCEF7"/>
<stop offset="1" stop-color="#4D7AE7"/>
</linearGradient>
<linearGradient id="paint2_linear" x1="23.6675" y1="25.8617" x2="37.3231" y2="25.8617" gradientUnits="userSpaceOnUse">
<stop stop-color="#001B83"/>
<stop offset="0.995" stop-color="#272283"/>
</linearGradient>
<linearGradient id="paint3_linear" x1="21.5753" y1="17.4978" x2="12.382" y2="32.4213" gradientUnits="userSpaceOnUse">
<stop stop-color="#9FCEF7"/>
<stop offset="1" stop-color="#4D7AE7"/>
</linearGradient>
<linearGradient id="paint4_linear" x1="10.3887" y1="25.259" x2="16.7078" y2="25.259" gradientUnits="userSpaceOnUse">
<stop stop-color="#001B83"/>
<stop offset="0.995" stop-color="#272283"/>
</linearGradient>
<linearGradient id="paint5_linear" x1="21.7998" y1="27.5978" x2="25.4697" y2="27.5978" gradientUnits="userSpaceOnUse">
<stop stop-color="#001B83"/>
<stop offset="0.995" stop-color="#272283"/>
</linearGradient>
<linearGradient id="paint6_linear" x1="17.0257" y1="26.4882" x2="12.0231" y2="37.2577" gradientUnits="userSpaceOnUse">
<stop stop-color="#9FCEF7"/>
<stop offset="1" stop-color="#4D7AE7"/>
</linearGradient>
<linearGradient id="paint7_linear" x1="13.4557" y1="23.6641" x2="9.40152" y2="24.6237" gradientUnits="userSpaceOnUse">
<stop stop-color="#001B83"/>
<stop offset="0.995" stop-color="#272283"/>
</linearGradient>
<linearGradient id="paint8_linear" x1="4.48682" y1="25.3911" x2="25.2727" y2="25.3911" gradientUnits="userSpaceOnUse">
<stop stop-color="#001B83"/>
<stop offset="0.995" stop-color="#272283"/>
</linearGradient>
<linearGradient id="paint9_linear" x1="55.4513" y1="44.9189" x2="48.1142" y2="24.0094" gradientUnits="userSpaceOnUse">
<stop stop-color="#232350"/>
<stop offset="1" stop-color="#17256E"/>
</linearGradient>
<linearGradient id="paint10_linear" x1="52.7442" y1="33.9017" x2="33.5792" y2="33.9017" gradientUnits="userSpaceOnUse">
<stop stop-color="#F83BB0"/>
<stop offset="0.524" stop-color="#3B9EF4"/>
<stop offset="1" stop-color="#1E30DD"/>
</linearGradient>
<linearGradient id="paint11_linear" x1="54.1674" y1="24.1397" x2="48.5154" y2="37.9061" gradientUnits="userSpaceOnUse">
<stop stop-color="#F83BB0"/>
<stop offset="0.524" stop-color="#3B9EF4"/>
<stop offset="1" stop-color="#1E30DD"/>
</linearGradient>
<linearGradient id="paint12_linear" x1="54.5298" y1="24.9752" x2="50.9085" y2="37.6653" gradientUnits="userSpaceOnUse">
<stop stop-color="#9300C2"/>
<stop offset="0.406" stop-color="#5600B9"/>
<stop offset="1" stop-color="#4000A3"/>
</linearGradient>
<linearGradient id="paint13_linear" x1="44.2686" y1="28.4348" x2="46.3678" y2="28.4348" gradientUnits="userSpaceOnUse">
<stop stop-color="#FFF84A"/>
<stop offset="1" stop-color="#FFEC38"/>
</linearGradient>
<linearGradient id="paint14_linear" x1="43.6045" y1="28.4373" x2="47.2227" y2="28.4373" gradientUnits="userSpaceOnUse">
<stop stop-color="#FFF84A"/>
<stop offset="1" stop-color="#FFEC38"/>
</linearGradient>
</defs>
</svg>
