<svg width="185" height="185" viewBox="0 0 185 185" fill="none" xmlns="http://www.w3.org/2000/svg">
<g clip-path="url(#clip0)">
<path d="M185 63.0049C184.996 60.1963 184.17 57.3479 182.343 55L167.685 36.2442C165.23 33.1267 161.494 31.5393 157.761 31.5332C155.539 31.5332 153.276 32.1027 151.278 33.3492L136.985 42.2415C135.482 43.2001 132.905 43.8581 130.416 43.8411C128.482 43.8494 126.613 43.4625 125.379 42.8529L111.383 36.0733C109.125 34.9864 106.608 34.5409 104.078 34.5366C100.443 34.5535 96.7622 35.4467 93.8044 37.4966L92.1712 38.6423C90.8657 37.9909 88.8708 36.9983 86.6111 35.8738C83.9011 34.5452 80.7146 34.0094 77.4959 33.9989C74.5883 34.0072 71.6814 34.4553 69.1289 35.5335L59.5957 39.6013C58.0441 40.2741 55.5762 40.7135 53.125 40.7026C50.6737 40.7131 48.2102 40.2737 46.6587 39.6013L37.1167 35.5313C35.3762 34.7891 33.5157 34.4719 31.6719 34.4697C29.5487 34.4719 27.4382 34.8903 25.4765 35.6849C23.5174 36.4838 21.6988 37.6631 20.2506 39.2815L2.87799 58.7376C0.952473 60.8879 -0.00396227 63.5957 1.23365e-05 66.2612C-0.00396227 69.4398 1.35608 72.6285 3.97932 74.8633L20.1849 88.6892L12.4973 96.7088C10.3781 98.9205 9.323 101.788 9.323 104.623C9.31903 107.64 10.5172 110.686 12.8904 112.929L14.4499 114.411C15.9194 115.805 17.6852 116.691 19.533 117.164C18.6062 118.869 18.0997 120.738 18.1036 122.611C18.0997 125.63 19.2978 128.674 21.6667 130.919L21.6627 130.917L23.2269 132.405C25.4534 134.516 28.3397 135.567 31.1834 135.565C32.7118 135.567 34.242 135.26 35.6801 134.659C36.1849 136.706 37.2273 138.653 38.867 140.208L40.4312 141.697C42.6577 143.807 45.5393 144.858 48.3876 144.857C50.6141 144.859 52.8508 144.203 54.7763 142.929C55.3396 144.741 56.3047 146.458 57.7738 147.854L59.338 149.342C61.5598 151.453 64.4461 152.504 67.2905 152.502C70.3195 152.504 73.3785 151.315 75.6379 148.956L82.4323 141.861L91.6632 150.404C93.8727 152.453 96.7088 153.473 99.5083 153.467C102.584 153.473 105.687 152.241 107.951 149.818L109.424 148.239C110.696 146.873 111.526 145.256 112.008 143.568L115.584 146.868C117.797 148.91 120.629 149.925 123.425 149.923C126.505 149.925 129.616 148.693 131.882 146.267L133.347 144.69C135.04 142.883 135.992 140.643 136.286 138.357C137.23 138.598 138.186 138.762 139.151 138.762C142.231 138.762 145.333 137.532 147.602 135.109L149.071 133.532C151.125 131.331 152.147 128.508 152.143 125.725C152.143 124.861 152.019 124.001 151.827 123.152C154.381 122.813 156.858 121.674 158.741 119.651L160.215 118.073C162.268 115.872 163.286 113.048 163.286 110.263C163.29 107.198 162.054 104.106 159.616 101.852L156.86 99.3068L181.733 71.8061C183.966 69.3303 184.996 66.1434 185 63.0049ZM22.4074 111.313C21.0897 111.309 19.8008 110.838 18.7938 109.883L17.2318 108.401C16.151 107.38 15.6173 106.02 15.613 104.624C15.6173 103.314 16.086 102.036 17.0511 101.029L32.7963 84.5982C33.8221 83.528 35.1908 82.9921 36.595 82.9903C37.9088 82.9925 39.1933 83.4655 40.2086 84.4219L41.7641 85.9059C41.7641 85.9059 43.3746 88.2874 43.3785 89.6853C43.3746 90.7321 43.0591 91.7518 42.4474 92.6349C42.395 92.6873 25.4534 110.344 25.4534 110.344C24.5537 110.98 23.49 111.308 22.4074 111.313ZM34.9824 127.701C33.9587 128.767 32.5922 129.301 31.188 129.305C29.8703 129.303 28.5854 128.83 27.5744 127.876L26.0102 126.389L26.0062 126.387C24.9342 125.37 24.3958 124.006 24.3958 122.61C24.3958 121.3 24.8688 120.022 25.8292 119.015C25.8292 119.015 46.8173 97.167 46.994 96.9564C47.997 95.9916 49.2895 95.4933 50.6242 95.4912C51.942 95.4933 53.2269 95.9641 54.2379 96.9206L55.8021 98.4089C56.8781 99.4264 57.4125 100.789 57.4165 102.187C57.4122 103.496 56.9395 104.776 55.9784 105.783L34.9824 127.701ZM52.1841 136.99C51.1626 138.059 49.7964 138.593 48.392 138.597C47.0742 138.595 45.7893 138.122 44.7783 137.166L43.2098 135.679C42.1338 134.66 41.5954 133.298 41.5954 131.901C41.5954 130.733 41.9928 129.599 42.7534 128.656L57.3699 113.4C58.3559 112.511 59.5917 112.042 60.8722 112.042C62.19 112.044 63.4749 112.515 64.4859 113.472L66.0544 114.96C67.1265 115.977 67.6648 117.34 67.6688 118.735C67.6645 120.047 67.1875 121.328 66.2307 122.332L52.1841 136.99ZM79.9565 135.38L71.0873 144.637C70.0655 145.705 68.6972 146.239 67.293 146.243C65.9753 146.241 64.6904 145.768 63.6794 144.811L62.1152 143.325C61.0431 142.307 60.5048 140.943 60.5008 139.547C60.5048 138.235 60.9777 136.955 61.9389 135.952L70.8041 126.696C71.8299 125.628 73.1986 125.092 74.6027 125.09C75.9165 125.092 77.2054 125.563 78.2163 126.522L79.7849 128.008C80.8569 129.026 81.391 130.388 81.3953 131.784C81.3903 133.095 80.9173 134.375 79.9565 135.38ZM157.005 110.271C157.004 111.557 156.543 112.816 155.61 113.817L154.14 115.393C153.114 116.491 151.722 117.046 150.297 117.048C149.005 117.046 147.739 116.592 146.734 115.663L121.971 92.7617L117.689 97.3466L144.195 121.902C145.299 122.924 145.853 124.311 145.862 125.728C145.853 127.019 145.397 128.276 144.466 129.277L143.001 130.854C141.975 131.951 140.583 132.504 139.158 132.508C137.865 132.504 136.595 132.048 135.599 131.125L110.829 108.224L106.551 112.809L128.533 133.137C129.593 134.153 130.136 135.504 130.136 136.891C130.136 138.178 129.679 139.437 128.748 140.436L127.279 142.013C126.257 143.11 124.861 143.665 123.432 143.669C122.135 143.665 120.869 143.209 119.869 142.286L97.9304 122.031H97.9264L97.9225 122.027L93.653 126.62L93.6573 126.624L93.7394 126.702L104.727 136.843C105.701 137.844 106.205 139.126 106.209 140.452C106.205 141.732 105.753 142.985 104.822 143.984L103.352 145.563C102.326 146.66 100.939 147.211 99.5177 147.215C98.2249 147.211 96.9592 146.757 95.9586 145.83L86.3918 136.972C87.2243 135.338 87.6889 133.566 87.6889 131.788C87.6929 128.771 86.4947 125.729 84.1259 123.482L82.5573 121.994C80.3355 119.885 77.4532 118.832 74.6092 118.836C74.3884 118.836 74.1659 118.887 73.9494 118.899C73.9494 118.847 73.9617 118.792 73.9617 118.74C73.9657 115.723 70.3987 110.43 70.3987 110.43L68.8345 108.946C67.1716 107.369 65.1428 106.386 63.0326 105.99C63.4677 104.759 63.7137 103.476 63.7137 102.192C63.7137 99.1749 62.5195 96.1307 60.1507 93.8862L58.5865 92.3978C56.36 90.2873 53.4784 89.234 50.634 89.2362C50.3019 89.2362 49.9742 89.3034 49.644 89.333C49.5536 86.4363 48.3869 83.5417 46.1167 81.3849V81.3828L44.5568 79.9009C42.3303 77.7883 39.4487 76.735 36.6044 76.7372C33.5706 76.735 30.5163 77.9248 28.257 80.2836L24.5403 84.1621L8.07606 70.1194C6.89271 69.1063 6.30194 67.7061 6.2976 66.2684C6.30158 65.0637 6.71168 63.8844 7.5861 62.9052L24.9584 43.4494C25.6478 42.6758 26.6675 41.9759 27.8617 41.49C29.0559 41.0043 30.4116 40.7377 31.6791 40.7395C32.783 40.7395 33.8189 40.9393 34.6474 41.2967L44.185 45.3663C46.8737 46.4994 49.9952 46.9641 53.1322 46.9742C56.2729 46.9637 59.3904 46.4991 62.0794 45.3663L71.6127 41.2985C73.0822 40.6575 75.2997 40.26 77.5049 40.2683C79.9435 40.2535 82.3861 40.7583 83.8028 41.4813C84.7025 41.929 85.556 42.3539 86.3484 42.751L76.6258 49.5855C73.5017 51.7824 71.8179 55.2761 71.8223 58.8016C71.8183 61.135 72.558 63.5104 74.0632 65.5262L74.0593 65.5219L75.3434 67.2476C77.782 70.4894 81.5846 72.1562 85.3855 72.1646C87.5317 72.1646 89.7181 71.6222 91.6668 70.4533L97.4813 66.9614C98.6672 66.2362 100.458 65.7781 102.31 65.7864C104.486 65.7737 106.678 66.4173 107.996 67.386L124.082 78.9185C127.662 81.4832 133.493 86.2404 136.725 89.2341L155.344 106.449C156.446 107.471 157.001 108.852 157.005 110.271ZM177.065 67.6212L152.261 95.0482L140.999 84.6383C137.472 81.382 131.655 76.6335 127.754 73.831L111.672 62.2985C108.945 60.3668 105.607 59.5318 102.307 59.5195C99.4982 59.5278 96.6687 60.1399 94.2261 61.5943L88.4159 65.0861C87.5245 65.622 86.4738 65.8955 85.3822 65.8977C83.431 65.9042 81.4784 64.9936 80.3897 63.5115L79.1096 61.7879L79.1052 61.7836C78.4241 60.8651 78.1069 59.8349 78.1022 58.7922C78.1105 57.2153 78.8378 55.6851 80.2467 54.6907L97.4383 42.6115C98.9248 41.5355 101.569 40.7807 104.081 40.7995C105.826 40.7912 107.493 41.142 108.634 41.7057L122.63 48.4853C125.017 49.631 127.71 50.0997 130.419 50.1062C133.9 50.0892 137.419 49.3326 140.318 47.552L154.615 38.6579C155.528 38.0884 156.623 37.7939 157.765 37.7939C159.694 37.79 161.628 38.6644 162.723 40.0916L177.382 58.8474C178.227 59.9217 178.717 61.4371 178.717 63.0078C178.719 64.7642 178.099 66.4924 177.065 67.6212Z" fill="#FFC100"/>
</g>
<defs>
<clipPath id="clip0">
<rect width="185" height="185" fill="white"/>
</clipPath>
</defs>
</svg>
