<svg width="15" height="15" viewBox="0 0 15 15" fill="none" xmlns="http://www.w3.org/2000/svg">
<path d="M12.7807 12.7809H10.5582V9.30027C10.5582 8.47029 10.5434 7.40183 9.40225 7.40183C8.24467 7.40183 8.06754 8.30617 8.06754 9.23986V12.7807H5.84508V5.6231H7.97865V6.60127H8.00854C8.22206 6.23617 8.5306 5.93582 8.90132 5.73221C9.27203 5.5286 9.69103 5.42935 10.1137 5.44503C12.3663 5.44503 12.7816 6.92675 12.7816 8.85437L12.7807 12.7809ZM3.33727 4.64476C2.62494 4.64488 2.04738 4.0675 2.04727 3.35517C2.04715 2.64285 2.62447 2.06529 3.3368 2.06517C4.04912 2.065 4.62668 2.64238 4.6268 3.3547C4.62686 3.69678 4.49103 4.02486 4.2492 4.26679C4.00737 4.50873 3.67934 4.64468 3.33727 4.64476ZM4.44855 12.781H2.22369V5.6231H4.4485V12.7809L4.44855 12.781ZM13.8887 0.00109171H1.10689C0.502793 -0.00570516 0.00738281 0.47822 0 1.08232V13.9175C0.00714844 14.5218 0.5025 15.0062 1.10684 14.9999H13.8887C14.4943 15.0074 14.9916 14.523 15 13.9175V1.08133C14.9914 0.476052 14.494 -0.00781453 13.8887 9.56187e-05" fill="#0A66C2"/>
</svg>
