<svg width="12" height="13" viewBox="0 0 12 13" fill="none" xmlns="http://www.w3.org/2000/svg">
<path d="M2.21053 8.45C2.78526 8.45 3.30505 8.2173 3.69916 7.8455L7.65284 10.1705C7.60602 10.3515 7.5812 10.5377 7.57895 10.725C7.57895 11.9795 8.57053 13 9.78947 13C11.0084 13 12 11.9795 12 10.725C12 9.4705 11.0084 8.45 9.78947 8.45C9.21474 8.45 8.69495 8.6827 8.30084 9.0545L4.34716 6.72945C4.38695 6.5689 4.41221 6.40315 4.41537 6.23025L8.30021 3.9455C8.69495 4.3173 9.21474 4.55 9.78947 4.55C11.0084 4.55 12 3.5295 12 2.275C12 1.0205 11.0084 0 9.78947 0C8.57053 0 7.57895 1.0205 7.57895 2.275C7.57895 2.4674 7.60926 2.6507 7.65284 2.82945L4.06295 4.9413C3.8632 4.62236 3.58904 4.35998 3.26547 4.17809C2.9419 3.9962 2.57922 3.9006 2.21053 3.9C0.991579 3.9 0 4.9205 0 6.175C0 7.4295 0.991579 8.45 2.21053 8.45ZM9.78947 9.75C10.3118 9.75 10.7368 10.1874 10.7368 10.725C10.7368 11.2625 10.3118 11.7 9.78947 11.7C9.26716 11.7 8.8421 11.2625 8.8421 10.725C8.8421 10.1874 9.26716 9.75 9.78947 9.75ZM9.78947 1.3C10.3118 1.3 10.7368 1.73745 10.7368 2.275C10.7368 2.81255 10.3118 3.25 9.78947 3.25C9.26716 3.25 8.8421 2.81255 8.8421 2.275C8.8421 1.73745 9.26716 1.3 9.78947 1.3ZM2.21053 5.2C2.73284 5.2 3.15789 5.63745 3.15789 6.175C3.15789 6.71255 2.73284 7.15 2.21053 7.15C1.68821 7.15 1.26316 6.71255 1.26316 6.175C1.26316 5.63745 1.68821 5.2 2.21053 5.2Z" fill="white"/>
</svg>
