<svg width="19" height="15" viewBox="0 0 19 15" fill="none" xmlns="http://www.w3.org/2000/svg">
<path d="M19 1.77567C18.3009 2.07682 17.5496 2.28036 16.7611 2.37193C17.566 1.90328 18.184 1.16116 18.4751 0.276934C17.7099 0.718028 16.8727 1.02881 15.9998 1.19584C15.2887 0.459922 14.2757 0 13.1545 0C11.0017 0 9.25627 1.69549 9.25627 3.78666C9.25627 4.0835 9.29078 4.37247 9.3572 4.64969C6.11755 4.49172 3.24529 2.9842 1.32265 0.693164C0.987184 1.25244 0.794957 1.90299 0.794957 2.59688C0.794957 3.91067 1.48319 5.06967 2.52908 5.74878C1.91006 5.72994 1.30465 5.56753 0.763414 5.27508C0.763191 5.29095 0.763191 5.30681 0.763191 5.32274C0.763191 7.15746 2.10685 8.68798 3.89003 9.03586C3.31601 9.18752 2.7139 9.20971 2.12971 9.10075C2.62571 10.6052 4.06533 11.6999 5.77103 11.7306C4.43695 12.7462 2.75611 13.3516 0.929887 13.3516C0.615199 13.3516 0.304965 13.3336 0 13.2987C1.72507 14.3731 3.77402 15 5.97535 15C13.1454 15 17.0662 9.22981 17.0662 4.22582C17.0662 4.06158 17.0624 3.89827 17.0549 3.7359C17.818 3.19998 18.4767 2.53618 19 1.77567Z" fill="#55ACEE"/>
</svg>
