<svg width="18" height="18" viewBox="0 0 18 18" fill="none" xmlns="http://www.w3.org/2000/svg">
<path d="M4.61195 15.3597L4.8972 15.5046C6.0859 16.2291 7.41711 16.5672 8.7484 16.5672C12.9324 16.5672 16.3556 13.0896 16.3556 8.83926C16.3556 6.8107 15.5473 4.83041 14.121 3.3814C12.6946 1.93239 10.7928 1.11133 8.7484 1.11133C4.56445 1.11133 1.14115 4.58889 1.18872 8.88759C1.18872 10.3365 1.61663 11.7373 2.32978 12.9447L2.51994 13.2345L1.75928 16.0842L4.61195 15.3597Z" fill="#00E676"/>
<path d="M14.9291 2.60817C13.3126 0.917722 11.078 0 8.79581 0C3.94628 0 0.0475751 4.00885 0.0950821 8.8871C0.0950821 10.4327 0.522986 11.93 1.2362 13.2824L0 17.8709L4.61186 16.6634C5.89557 17.3879 7.32187 17.726 8.74831 17.726C13.5503 17.726 17.449 13.7171 17.449 8.83891C17.449 6.47218 16.5457 4.25037 14.9292 2.60817H14.9291ZM8.79581 16.2287C7.5121 16.2287 6.22839 15.8907 5.13484 15.2145L4.8496 15.0696L2.09201 15.794L2.80516 13.041L2.615 12.7512C0.522986 9.32193 1.52145 4.78165 4.94468 2.65644C8.36791 0.531287 12.7896 1.5456 14.8816 5.02317C16.9736 8.50073 15.9751 12.9926 12.5519 15.1178C11.4583 15.8423 10.1271 16.2287 8.79581 16.2287V16.2287ZM12.9798 10.8675L12.4568 10.626C12.4568 10.626 11.6961 10.2879 11.2206 10.0464C11.1731 10.0464 11.1256 9.99807 11.078 9.99807C10.9353 9.99807 10.8402 10.0464 10.7452 10.0947C10.7452 10.0947 10.6977 10.143 10.032 10.9158C9.98444 11.0124 9.88936 11.0607 9.79428 11.0607H9.7467C9.69919 11.0607 9.60411 11.0124 9.55654 10.9641L9.3188 10.8675C8.79581 10.626 8.3204 10.3362 7.94 9.94981C7.84492 9.85322 7.70227 9.75663 7.60718 9.66004C7.27436 9.32193 6.94154 8.9355 6.70387 8.5008L6.65629 8.40421C6.60879 8.35588 6.60879 8.30762 6.56121 8.21103C6.56121 8.11444 6.56121 8.01785 6.60879 7.96951C6.60879 7.96951 6.79895 7.728 6.94154 7.58315C7.03669 7.48649 7.0842 7.34164 7.17928 7.24504C7.27436 7.10012 7.32194 6.90694 7.27436 6.76202C7.22685 6.52051 6.65629 5.21642 6.51371 4.92664C6.41855 4.78172 6.32354 4.73346 6.18088 4.68513H5.6579C5.56275 4.68513 5.46773 4.73346 5.37258 4.73346L5.32501 4.78172C5.22993 4.83005 5.13484 4.92664 5.03976 4.97491C4.94468 5.07157 4.8971 5.16809 4.80202 5.26475C4.4692 5.69944 4.27904 6.23073 4.27904 6.76202C4.27904 7.14838 4.37412 7.53482 4.51678 7.87292L4.56435 8.01785C4.99225 8.9355 5.56275 9.75663 6.32354 10.4811L6.51371 10.6743C6.65629 10.8192 6.79895 10.9158 6.89403 11.0606C7.8925 11.9301 9.03355 12.558 10.3173 12.8961C10.4599 12.9444 10.6501 12.9444 10.7927 12.9927H11.2682C11.5059 12.9927 11.7911 12.8961 11.9814 12.7995C12.124 12.7029 12.219 12.7029 12.3141 12.6063L12.4093 12.5097C12.5044 12.4131 12.5994 12.3648 12.6945 12.2682C12.7896 12.1716 12.8847 12.075 12.9323 11.9784C13.0273 11.7852 13.0748 11.5437 13.1224 11.3022V10.9641C13.1224 10.9641 13.0748 10.9158 12.9798 10.8675Z" fill="white"/>
</svg>
