<svg width="11" height="11" viewBox="0 0 11 11" fill="none" xmlns="http://www.w3.org/2000/svg">
<path d="M9.35 1.1H8.25V0.55C8.25 0.404131 8.19205 0.264236 8.08891 0.161091C7.98576 0.0579462 7.84587 0 7.7 0C7.55413 0 7.41424 0.0579462 7.31109 0.161091C7.20795 0.264236 7.15 0.404131 7.15 0.55V1.1H3.85V0.55C3.85 0.404131 3.79205 0.264236 3.68891 0.161091C3.58576 0.0579462 3.44587 0 3.3 0C3.15413 0 3.01424 0.0579462 2.91109 0.161091C2.80795 0.264236 2.75 0.404131 2.75 0.55V1.1H1.65C1.21239 1.1 0.792709 1.27384 0.483274 1.58327C0.173839 1.89271 0 2.31239 0 2.75V9.35C0 9.78761 0.173839 10.2073 0.483274 10.5167C0.792709 10.8262 1.21239 11 1.65 11H9.35C9.78761 11 10.2073 10.8262 10.5167 10.5167C10.8262 10.2073 11 9.78761 11 9.35V2.75C11 2.31239 10.8262 1.89271 10.5167 1.58327C10.2073 1.27384 9.78761 1.1 9.35 1.1ZM9.9 9.35C9.9 9.49587 9.84205 9.63576 9.73891 9.73891C9.63576 9.84205 9.49587 9.9 9.35 9.9H1.65C1.50413 9.9 1.36424 9.84205 1.26109 9.73891C1.15795 9.63576 1.1 9.49587 1.1 9.35V5.5H9.9V9.35ZM9.9 4.4H1.1V2.75C1.1 2.60413 1.15795 2.46424 1.26109 2.36109C1.36424 2.25795 1.50413 2.2 1.65 2.2H2.75V2.75C2.75 2.89587 2.80795 3.03576 2.91109 3.13891C3.01424 3.24205 3.15413 3.3 3.3 3.3C3.44587 3.3 3.58576 3.24205 3.68891 3.13891C3.79205 3.03576 3.85 2.89587 3.85 2.75V2.2H7.15V2.75C7.15 2.89587 7.20795 3.03576 7.31109 3.13891C7.41424 3.24205 7.55413 3.3 7.7 3.3C7.84587 3.3 7.98576 3.24205 8.08891 3.13891C8.19205 3.03576 8.25 2.89587 8.25 2.75V2.2H9.35C9.49587 2.2 9.63576 2.25795 9.73891 2.36109C9.84205 2.46424 9.9 2.60413 9.9 2.75V4.4Z" fill="#FFC100"/>
</svg>
