<svg width="8" height="7" viewBox="0 0 8 7" fill="none" xmlns="http://www.w3.org/2000/svg">
<path d="M4.08838 1.58008C3.64536 1.58008 3.22049 1.75607 2.90722 2.06933C2.59396 2.38259 2.41797 2.80747 2.41797 3.25049C2.41797 3.69351 2.59396 4.11839 2.90722 4.43165C3.22049 4.74492 3.64536 4.92091 4.08838 4.92091C4.5314 4.92091 4.95628 4.74492 5.26954 4.43165C5.58281 4.11839 5.7588 3.69351 5.7588 3.25049C5.7588 2.80747 5.58281 2.38259 5.26954 2.06933C4.95628 1.75607 4.5314 1.58008 4.08838 1.58008ZM4.08838 4.33532C3.80057 4.33532 3.52455 4.22099 3.32104 4.01748C3.11752 3.81396 3.00319 3.53794 3.00319 3.25013C3.00319 2.96232 3.11752 2.6863 3.32104 2.48279C3.52455 2.27927 3.80057 2.16494 4.08838 2.16494C4.37619 2.16494 4.65222 2.27927 4.85573 2.48279C5.05924 2.6863 5.17357 2.96232 5.17357 3.25013C5.17357 3.53794 5.05924 3.81396 4.85573 4.01748C4.65222 4.22099 4.37619 4.33532 4.08838 4.33532Z" fill="black" fill-opacity="0.68"/>
<path d="M5.82497 1.90776C6.04005 1.90776 6.2144 1.73341 6.2144 1.51833C6.2144 1.30326 6.04005 1.12891 5.82497 1.12891C5.6099 1.12891 5.43555 1.30326 5.43555 1.51833C5.43555 1.73341 5.6099 1.90776 5.82497 1.90776Z" fill="black" fill-opacity="0.68"/>
<path d="M7.17094 1.12204C7.08731 0.906077 6.95951 0.709956 6.79573 0.546229C6.63194 0.382503 6.43577 0.254778 6.21977 0.171232C5.96702 0.0763524 5.7 0.0250494 5.43008 0.0195074C5.0822 0.00433495 4.97202 0 4.08985 0C3.20768 0 3.09461 -3.63354e-08 2.74962 0.0195074C2.47991 0.024766 2.21308 0.0760795 1.96065 0.171232C1.7446 0.254681 1.54838 0.382371 1.38458 0.54611C1.22078 0.709849 1.09301 0.90602 1.00948 1.12204C0.914585 1.37477 0.8634 1.64182 0.858121 1.91173C0.842587 2.25925 0.837891 2.36943 0.837891 3.25196C0.837891 4.13413 0.837891 4.24648 0.858121 4.59219C0.863539 4.86241 0.914475 5.12901 1.00948 5.38224C1.09325 5.59818 1.22114 5.79428 1.38498 5.95799C1.54882 6.12171 1.74501 6.24945 1.96101 6.33305C2.21296 6.43174 2.4799 6.48672 2.75034 6.49561C3.09822 6.51079 3.2084 6.51548 4.09057 6.51548C4.97274 6.51548 5.08581 6.51548 5.43081 6.49561C5.7007 6.49012 5.96771 6.43895 6.2205 6.34425C6.43644 6.26051 6.63255 6.13267 6.79632 5.9689C6.96009 5.80513 7.08792 5.60902 7.17166 5.39308C7.26667 5.14021 7.31761 4.87361 7.32303 4.60339C7.33856 4.25587 7.34326 4.14569 7.34326 3.26316C7.34326 2.38063 7.34326 2.26864 7.32303 1.92293C7.31882 1.6492 7.26737 1.37825 7.17094 1.12204ZM6.73094 4.56546C6.72861 4.77365 6.69061 4.9799 6.61859 5.17525C6.56434 5.31573 6.48129 5.4433 6.37478 5.54975C6.26826 5.6562 6.14065 5.73918 6.00013 5.79334C5.80695 5.86503 5.60289 5.90304 5.39685 5.90569C5.05366 5.92159 4.95685 5.92556 4.07685 5.92556C3.19612 5.92556 3.10617 5.92556 2.75648 5.90569C2.55054 5.90317 2.34658 5.86517 2.15356 5.79334C2.01256 5.73951 1.88443 5.65668 1.77746 5.55021C1.67049 5.44374 1.58706 5.316 1.53257 5.17525C1.46157 4.982 1.42359 4.77818 1.42022 4.57232C1.40469 4.22914 1.40108 4.13232 1.40108 3.25232C1.40108 2.37196 1.40108 2.28201 1.42022 1.93196C1.42256 1.72389 1.46056 1.51776 1.53257 1.32253C1.64275 1.03751 1.86853 0.813171 2.15356 0.704074C2.34668 0.632597 2.55058 0.594602 2.75648 0.591725C3.10003 0.576192 3.19648 0.571857 4.07685 0.571857C4.95721 0.571857 5.04752 0.571857 5.39685 0.591725C5.60291 0.594204 5.807 0.632211 6.00013 0.704074C6.14064 0.75836 6.26823 0.841421 6.37474 0.947927C6.48125 1.05443 6.56431 1.18203 6.61859 1.32253C6.6896 1.51578 6.72758 1.7196 6.73094 1.92546C6.74647 2.269 6.75045 2.36546 6.75045 3.24582C6.75045 4.12582 6.75045 4.22047 6.73491 4.56582H6.73094V4.56546Z" fill="black" fill-opacity="0.68"/>
</svg>
