<svg width="19" height="19" viewBox="0 0 19 19" fill="none" xmlns="http://www.w3.org/2000/svg">
<path d="M8.99705 4.37109C7.77069 4.37109 6.59455 4.85826 5.72739 5.72543C4.86022 6.5926 4.37305 7.76873 4.37305 8.99509C4.37305 10.2215 4.86022 11.3976 5.72739 12.2648C6.59455 13.1319 7.77069 13.6191 8.99705 13.6191C10.2234 13.6191 11.3995 13.1319 12.2667 12.2648C13.1339 11.3976 13.621 10.2215 13.621 8.99509C13.621 7.76873 13.1339 6.5926 12.2667 5.72543C11.3995 4.85826 10.2234 4.37109 8.99705 4.37109ZM8.99705 11.9981C8.20034 11.9981 7.43626 11.6816 6.8729 11.1182C6.30954 10.5549 5.99305 9.7908 5.99305 8.99409C5.99305 8.19738 6.30954 7.4333 6.8729 6.86995C7.43626 6.30659 8.20034 5.99009 8.99705 5.99009C9.79376 5.99009 10.5578 6.30659 11.1212 6.86995C11.6846 7.4333 12.001 8.19738 12.001 8.99409C12.001 9.7908 11.6846 10.5549 11.1212 11.1182C10.5578 11.6816 9.79376 11.9981 8.99705 11.9981Z" fill="black" fill-opacity="0.68"/>
<path d="M13.8046 5.281C14.3999 5.281 14.8826 4.79836 14.8826 4.203C14.8826 3.60764 14.3999 3.125 13.8046 3.125C13.2092 3.125 12.7266 3.60764 12.7266 4.203C12.7266 4.79836 13.2092 5.281 13.8046 5.281Z" fill="black" fill-opacity="0.68"/>
<path d="M17.531 3.106C17.2995 2.50818 16.9457 1.96528 16.4923 1.51206C16.0389 1.05884 15.4959 0.705271 14.898 0.474C14.1983 0.211357 13.4592 0.0693411 12.712 0.0539999C11.749 0.0119999 11.444 0 9.002 0C6.56 0 6.247 -1.00583e-07 5.292 0.0539999C4.54539 0.0685567 3.80676 0.210601 3.108 0.474C2.50994 0.705001 1.96676 1.05847 1.51333 1.51173C1.0599 1.96499 0.706228 2.50802 0.475 3.106C0.212305 3.80561 0.0706145 4.54484 0.056 5.292C0.013 6.254 0 6.559 0 9.002C0 11.444 -7.45058e-09 11.755 0.056 12.712C0.071 13.46 0.212 14.198 0.475 14.899C0.706878 15.4968 1.0609 16.0396 1.51444 16.4928C1.96798 16.946 2.51106 17.2996 3.109 17.531C3.80643 17.8042 4.54537 17.9564 5.294 17.981C6.257 18.023 6.562 18.036 9.004 18.036C11.446 18.036 11.759 18.036 12.714 17.981C13.4611 17.9658 14.2002 17.8241 14.9 17.562C15.4978 17.3302 16.0406 16.9763 16.494 16.523C16.9473 16.0696 17.3012 15.5268 17.533 14.929C17.796 14.229 17.937 13.491 17.952 12.743C17.995 11.781 18.008 11.476 18.008 9.033C18.008 6.59 18.008 6.28 17.952 5.323C17.9404 4.56527 17.7979 3.81525 17.531 3.106ZM16.313 12.638C16.3066 13.2143 16.2014 13.7852 16.002 14.326C15.8518 14.7149 15.6219 15.068 15.3271 15.3627C15.0322 15.6574 14.679 15.8871 14.29 16.037C13.7552 16.2354 13.1904 16.3406 12.62 16.348C11.67 16.392 11.402 16.403 8.966 16.403C6.528 16.403 6.279 16.403 5.311 16.348C4.74093 16.341 4.17633 16.2358 3.642 16.037C3.25169 15.888 2.897 15.6587 2.60089 15.364C2.30478 15.0692 2.07384 14.7156 1.923 14.326C1.72645 13.791 1.62131 13.2268 1.612 12.657C1.569 11.707 1.559 11.439 1.559 9.003C1.559 6.566 1.559 6.317 1.612 5.348C1.61846 4.77202 1.72366 4.20142 1.923 3.661C2.228 2.872 2.853 2.251 3.642 1.949C4.17659 1.75114 4.74102 1.64596 5.311 1.638C6.262 1.595 6.529 1.583 8.966 1.583C11.403 1.583 11.653 1.583 12.62 1.638C13.1904 1.64486 13.7554 1.75007 14.29 1.949C14.6789 2.09927 15.0321 2.3292 15.327 2.62403C15.6218 2.91886 15.8517 3.27207 16.002 3.661C16.1986 4.19595 16.3037 4.76016 16.313 5.33C16.356 6.281 16.367 6.548 16.367 8.985C16.367 11.421 16.367 11.683 16.324 12.639H16.313V12.638Z" fill="black" fill-opacity="0.68"/>
</svg>
