<svg  width="13" height="16" viewBox="0 0 13 16" fill="none" xmlns="http://www.w3.org/2000/svg">
<path d="M1.9317 6.14131C2.40321 6.14453 2.87063 6.04606 3.30683 5.85161C3.74303 5.65717 4.13933 5.37061 4.47275 5.00857C4.80617 4.64652 5.07007 4.2162 5.24915 3.74255C5.42822 3.26891 5.51891 2.76137 5.51594 2.24937V2.07054C5.76036 1.87609 5.97191 1.63714 6.14123 1.36429C5.91108 1.47359 5.66755 1.54608 5.41824 1.5795C5.68257 1.40848 5.8809 1.13928 5.97653 0.821723C5.73019 0.982202 5.46006 1.09502 5.17817 1.15514C4.98833 0.9355 4.73712 0.789913 4.46341 0.740909C4.18969 0.691906 3.90874 0.742217 3.66401 0.884059C3.41928 1.0259 3.22442 1.25137 3.10958 1.52557C2.99475 1.79977 2.96634 2.10743 3.02874 2.40093C2.52796 2.37424 2.03797 2.23331 1.59068 1.98734C1.14339 1.74136 0.748821 1.39584 0.432677 0.973278C0.273263 1.27371 0.224944 1.6287 0.297503 1.96637C0.370063 2.30403 0.558079 2.59914 0.823483 2.79194C0.627693 2.78374 0.436433 2.72559 0.265189 2.6222V2.63735C0.26345 2.95133 0.360859 3.25646 0.541183 3.50191C0.721507 3.74735 0.973852 3.91828 1.25616 3.9862C1.07406 4.03938 0.883302 4.04766 0.697867 4.01044C0.779597 4.27821 0.935611 4.51196 1.14451 4.67965C1.35342 4.84733 1.60498 4.94074 1.8647 4.94706C1.42064 5.3352 0.86873 5.54884 0.298687 5.55328C0.198739 5.55014 0.0990265 5.54103 0 5.526C0.576984 5.92516 1.24756 6.13561 1.9317 6.13222" fill="black" fill-opacity="0.68"/>
</svg>
