<svg width="17" height="15" viewBox="0 0 17 15" fill="none" xmlns="http://www.w3.org/2000/svg">
<path d="M5.34727 14.9998C6.65252 15.0087 7.9464 14.7361 9.15388 14.1979C10.3614 13.6596 11.4584 12.8664 12.3814 11.8642C13.3043 10.862 14.0348 9.67074 14.5306 8.35961C15.0263 7.04847 15.2773 5.64351 15.2691 4.22622V3.73117C15.9457 3.1929 16.5313 2.53146 17 1.77616C16.3629 2.07872 15.6888 2.27938 14.9986 2.37189C15.7303 1.89848 16.2794 1.15329 16.5441 0.274234C15.8622 0.718468 15.1144 1.03076 14.3341 1.1972C13.8086 0.58919 13.1132 0.186179 12.3555 0.0505278C11.5978 -0.0851233 10.8201 0.0541472 10.1426 0.44679C9.46516 0.839434 8.92576 1.46356 8.60788 2.2226C8.28999 2.98164 8.21134 3.83328 8.38409 4.64575C6.99784 4.57187 5.64146 4.18177 4.40328 3.50086C3.16509 2.81994 2.07287 1.86349 1.19773 0.693765C0.75644 1.52542 0.622684 2.50809 0.823542 3.44281C1.0244 4.37752 1.54486 5.19443 2.27955 5.72814C1.73756 5.70545 1.20812 5.54448 0.734091 5.25827V5.30022C0.729275 6.16935 0.998921 7.01402 1.49809 7.69345C1.99726 8.37289 2.69579 8.84604 3.47727 9.03405C2.97317 9.18127 2.44513 9.20421 1.93182 9.10118C2.15806 9.84239 2.58994 10.4895 3.16822 10.9536C3.7465 11.4178 4.44287 11.6764 5.16182 11.6939C3.93257 12.7683 2.4048 13.3597 0.826818 13.372C0.550146 13.3633 0.274123 13.3381 0 13.2965C1.59719 14.4014 3.45348 14.984 5.34727 14.9746" fill="black" fill-opacity="0.68"/>
</svg>
