<svg width="13" height="16" viewBox="0 0 13 16" fill="none" xmlns="http://www.w3.org/2000/svg">
<path d="M6.34948 8.48869C7.45721 8.48869 8.35521 7.57437 8.35521 6.44649C8.35521 5.31862 7.45721 4.4043 6.34948 4.4043C5.24175 4.4043 4.34375 5.31862 4.34375 6.44649C4.34375 7.57437 5.24175 8.48869 6.34948 8.48869Z" stroke="#FFC100" stroke-width="2" stroke-linecap="round" stroke-linejoin="round"/>
<path d="M6.34861 1C4.93007 1 3.56963 1.57376 2.56657 2.59506C1.56351 3.61635 1 5.00153 1 6.44586C1 7.73381 1.26877 8.57656 2.00287 9.50916L6.34861 14.6147L10.6944 9.50916C11.4285 8.57656 11.6972 7.73381 11.6972 6.44586C11.6972 5.00153 11.1337 3.61635 10.1307 2.59506C9.1276 1.57376 7.76715 1 6.34861 1V1Z" stroke="#FFC100" stroke-width="2" stroke-linecap="round" stroke-linejoin="round"/>
</svg>
