<svg width="7" height="7" viewBox="0 0 7 7" fill="none" xmlns="http://www.w3.org/2000/svg">
<path fill-rule="evenodd" clip-rule="evenodd" d="M5.60142 0.951178C5.30099 0.648771 4.94354 0.408986 4.54978 0.245713C4.15601 0.0824407 3.73376 -0.00107299 3.30749 1.04073e-05C1.52004 1.04073e-05 0.0649255 1.45476 0.064203 3.24294C0.064203 3.81444 0.213399 4.3722 0.496979 4.86422L0.0371094 6.54439L1.75629 6.09319C2.23184 6.35206 2.76461 6.4878 3.30605 6.48804H3.30749C5.09459 6.48804 6.5497 5.03329 6.55042 3.24511C6.55165 2.81901 6.46841 2.39689 6.30553 2.00316C6.14264 1.60942 5.90333 1.25187 5.60142 0.951178ZM3.30749 5.94075H3.30641C2.82361 5.9408 2.34969 5.8109 1.93439 5.56468L1.83613 5.50616L0.815962 5.77385L1.08798 4.77933L1.02404 4.67746C0.754111 4.24773 0.611218 3.75042 0.611856 3.24294C0.612579 1.75676 1.82168 0.547663 3.30858 0.547663C3.66269 0.546877 4.01345 0.61633 4.34054 0.752004C4.66763 0.887678 4.96457 1.08688 5.21416 1.33808C5.4651 1.58807 5.66399 1.88533 5.79935 2.21266C5.93471 2.53999 6.00385 2.8909 6.00277 3.24511C6.00205 4.73128 4.79295 5.94075 3.30749 5.94075ZM4.78608 3.92173C4.7048 3.88091 4.30671 3.68511 4.23229 3.65801C4.15823 3.63092 4.10441 3.61755 4.05022 3.69847C3.99603 3.77939 3.8407 3.96182 3.79337 4.01601C3.74605 4.0702 3.69873 4.0767 3.61781 4.03624C3.53689 3.99578 3.2757 3.91017 2.96611 3.63417C2.72516 3.41923 2.5626 3.15407 2.51528 3.07279C2.46795 2.99151 2.51022 2.9478 2.55104 2.90734C2.58753 2.87122 2.63196 2.81269 2.67242 2.76537C2.71288 2.71805 2.72624 2.68445 2.75334 2.63026C2.78043 2.57607 2.76707 2.52875 2.74647 2.48829C2.72624 2.44747 2.56404 2.04865 2.49649 1.88645C2.4311 1.72931 2.36427 1.75026 2.31442 1.74809C2.26279 1.74598 2.21112 1.74502 2.15945 1.7452C2.11836 1.74625 2.07792 1.75578 2.04069 1.77318C2.00345 1.79059 1.97021 1.8155 1.94306 1.84635C1.86864 1.92763 1.65948 2.12343 1.65948 2.52225C1.65948 2.92107 1.94992 3.30652 1.99038 3.36071C2.03084 3.41489 2.56188 4.23312 3.37469 4.58426C3.56832 4.6677 3.71932 4.71756 3.83672 4.75513C4.03071 4.8169 4.20736 4.80787 4.34717 4.78728C4.50287 4.76416 4.82654 4.59148 4.8941 4.40219C4.96165 4.21289 4.96165 4.05069 4.94142 4.01673C4.92119 3.98278 4.86664 3.96219 4.78608 3.92173Z" fill="black" fill-opacity="0.68"/>
</svg>
